<svg xmlns="http://www.w3.org/2000/svg" width="32" height="32" viewBox="0 0 32 32">
  <g fill="#009AD9" fill-rule="evenodd" transform="translate(4.97 5.68)">
    <path d="M5.3466353 14.6011274L7.88574849 17.1402406C8.04518003 17.2996721 8.30366964 17.2996721 8.46310118 17.1402406 8.62253272 16.9808091 8.62253272 16.7223195 8.46310118 16.5628879L5.92398799 14.0237747C5.76455644 13.8643432 5.50606684 13.8643432 5.3466353 14.0237747 5.18720376 14.1832063 5.18720376 14.4416959 5.3466353 14.6011274L5.3466353 14.6011274zM16.8880589 3.05970381L19.4271721 5.598817C19.5866036 5.75824854 19.8450932 5.75824854 20.0045248 5.598817 20.1639563 5.43938546 20.1639563 5.18089585 20.0045248 5.02146431L17.4654116 2.48235112C17.30598 2.32291958 17.0474904 2.32291958 16.8880589 2.48235112 16.7286274 2.64178266 16.7286274 2.90027227 16.8880589 3.05970381L16.8880589 3.05970381zM18.815533 2.00989809C19.7138192 1.83271657 20.5771278 2.68575177 20.4956413 3.75542583 20.4656358 4.14930847 20.7606165 4.4929377 21.1544991 4.52294319 21.5483818 4.55294869 21.892011 4.25796799 21.9220165 3.86408535 22.0726158 1.8871662 20.4040895.238495355 18.5387076.606430673 18.1511507.682873916 17.8989434 1.05902029 17.9753866 1.44657712 18.0518298 1.83413394 18.4279762 2.08634134 18.815533 2.00989809L18.815533 2.00989809z"/>
    <path d="M7.57646171,16.4251124 L7.72121079,16.3134118 L4.06635904,18.3696236 L6.17349529,14.7657207 L6.06179744,14.910465 L19.1958682,1.77640353 C19.4751923,1.49707956 19.4751925,1.04420578 19.1958685,0.764881621 C18.9165446,0.485557461 18.4636708,0.485557302 18.1843466,0.764881265 L5.05027588,13.8989428 L4.98510068,13.9641179 L4.93857803,14.0436871 L0.00483649106,22.4820238 L8.44323475,17.5483347 L8.52280669,17.5018113 L8.58798384,17.4366341 L21.7219946,4.30261758 C22.0013186,4.02329345 22.0013185,3.57041967 21.7219943,3.29109567 C21.4426702,3.01177167 20.9897964,3.01177177 20.7104724,3.29109589 L7.57646171,16.4251124 Z"/>
  </g>
</svg>
