<?xml version="1.0" encoding="UTF-8" standalone="no"?>
<svg width="45px" height="45px" viewBox="0 0 45 45" version="1.1" xmlns="http://www.w3.org/2000/svg" xmlns:xlink="http://www.w3.org/1999/xlink" xmlns:sketch="http://www.bohemiancoding.com/sketch/ns">
    <!-- Generator: Sketch 3.4.2 (15855) - http://www.bohemiancoding.com/sketch -->
    <title>lyr_addToLayer</title>
    <desc>Created with Sketch.</desc>
    <defs></defs>
    <g id="Page-3---Icons" stroke="none" stroke-width="1" fill="none" fill-rule="evenodd" sketch:type="MSPage">
        <g id="lyr_addToLayer" sketch:type="MSArtboardGroup" stroke="#4A4A4A">
            <g id="component" sketch:type="MSLayerGroup" transform="translate(5.000000, 9.000000)">
                <path d="M7.49348176,0.0123715299 L14.4835583,2.5704317 L14.4835583,9.99240433 L7.49348176,13.7861828 L0.486635827,10.1252271 L0.486635827,2.57043168 L7.49348176,0.0123715299 Z" id="Path-329" stroke-width="2" sketch:type="MSShapeGroup"></path>
                <path d="M0.539942628,2.67382467 L7.45316849,5.6548965 L14.5790663,2.84340693" id="Path-330" stroke-width="0.5" sketch:type="MSShapeGroup"></path>
                <path d="M0.575813664,2.71058415 L7.46349668,5.68143885 L7.57621836,13.7969552 L0.508180659,10.1084577 L0.575813664,2.71058415 Z" id="Path-331" stroke-width="0.5" sketch:type="MSShapeGroup"></path>
            </g>
            <path d="M29.8374119,25.0580982 L39.9278719,30.2489737 L24.5782285,37.3166951 L11.9004948,30.2489738 L24,26" id="Path-1043" stroke-width="2.04930004" sketch:type="MSShapeGroup"></path>
            <path d="M23,29 L27,32 L31,29" id="Path-1376" stroke-width="1.5" sketch:type="MSShapeGroup"></path>
            <path d="M21,15 C21,15 23,15 25,19 C27,23 27,31 27,31" id="Path-1377" stroke-width="1.5" stroke-dasharray="4,1" sketch:type="MSShapeGroup"></path>
        </g>
    </g>
</svg>