<?xml version="1.0" encoding="UTF-8" standalone="no"?>
<svg width="45px" height="45px" viewBox="0 0 45 45" version="1.1" xmlns="http://www.w3.org/2000/svg" xmlns:xlink="http://www.w3.org/1999/xlink" xmlns:sketch="http://www.bohemiancoding.com/sketch/ns">
    <!-- Generator: Sketch 3.4.2 (15855) - http://www.bohemiancoding.com/sketch -->
    <title>lyr_purge</title>
    <desc>Created with Sketch.</desc>
    <defs></defs>
    <g id="Page-3---Icons" stroke="none" stroke-width="1" fill="none" fill-rule="evenodd" sketch:type="MSPage">
        <g id="lyr_purge" sketch:type="MSArtboardGroup" fill="#4A4A4A">
            <path d="M22.0810811,27.7597864 L21.8783784,32.7214225 L21.8513514,33.0180421 L16.1756757,32.6270436 C15.8513497,32.600078 15.5495509,32.458511 15.2702703,32.2023383 C14.9909896,31.9461656 14.77928,31.6517961 14.6351351,31.319221 C14.5360355,31.0765311 14.4707209,30.8293506 14.4391892,30.5776721 C14.4076575,30.3259937 14.4256753,30.0338713 14.4932432,29.7012962 C14.5608111,29.3687211 14.6148647,29.1215406 14.6554054,28.9597473 C14.6959461,28.797954 14.792792,28.5103258 14.9459459,28.0968541 C15.0990999,27.6833823 15.1846846,27.4451902 15.2027027,27.3822706 C15.9054089,27.4901328 18.1981788,27.6159701 22.0810811,27.7597864 L22.0810811,27.7597864 Z M16.8513514,19.8589202 L19.2837838,24.9688661 L17.2972973,23.7284571 C16.7297269,24.3756302 16.2274797,25.0250408 15.7905405,25.6767082 C15.3536014,26.3283756 15.0270281,26.8901495 14.8108108,27.3620466 C14.5945935,27.8339437 14.4166674,28.2586447 14.277027,28.6361624 C14.1373867,29.01368 14.0540542,29.296814 14.027027,29.4855729 L13.972973,29.7687097 L11.4054054,24.9553834 C11.2522515,24.721682 11.1711712,24.4700073 11.1621622,24.2003518 C11.1531531,23.9306963 11.1801799,23.7194693 11.2432432,23.5666646 L11.3513514,23.3239758 C11.6666682,22.7576993 12.1801766,21.9127915 12.8918919,20.789227 L11,19.6297142 L16.8513514,19.8589202 Z M33.4864865,26.8294796 L30.9459459,31.6697714 C30.8378373,31.9304384 30.6734245,32.1394182 30.4527027,32.2967173 C30.2319809,32.4540163 30.0360369,32.5461472 29.8648649,32.5731128 L29.6216216,32.6270436 C28.9819788,32.6899632 27.9955022,32.7438935 26.6621622,32.7888361 L26.7702703,35 L23.6621622,30.0518466 L26.5135135,25.1711067 L26.6081081,27.503615 C28.1396473,27.6474312 29.4144093,27.6699022 30.4324324,27.5710285 C31.4504555,27.4721548 32.2162136,27.3238465 32.7297297,27.1260992 L33.4864865,26.8294796 Z M22.8783784,14.3714585 C22.4549528,14.937735 21.2612711,16.8927079 19.2972973,20.236436 L15.0135135,17.7151698 L14.7567568,17.5533773 L17.7972973,12.7535337 C17.9774784,12.4748896 18.2477459,12.2726511 18.6081081,12.1468118 C18.9684703,12.0209726 19.328827,11.9760307 19.6891892,12.0119848 C19.9054065,12.0299618 20.1238728,12.0838921 20.3445946,12.1737773 C20.5653164,12.2636624 20.7545037,12.3580404 20.9121622,12.4569141 C21.0698206,12.5557878 21.2567557,12.7040961 21.472973,12.9018434 C21.6891903,13.0995908 21.8513508,13.2546404 21.9594595,13.3669968 C22.0675681,13.4793533 22.2297286,13.6568738 22.4459459,13.8995637 C22.6621632,14.1422537 22.8063059,14.2995503 22.8783784,14.3714585 L22.8783784,14.3714585 Z M31.7297297,18.5106495 L34.5945946,23.4048721 C34.7567576,23.7374472 34.8130633,24.0790057 34.7635135,24.4295578 C34.7139637,24.7801099 34.5900911,25.11268 34.3918919,25.4272781 C34.2747742,25.6070484 34.126127,25.7733335 33.9459459,25.9261383 C33.7657649,26.078943 33.5945954,26.2047804 33.4324324,26.3036541 C33.2702695,26.4025277 33.0518032,26.5013999 32.777027,26.6002736 C32.5022509,26.6991473 32.2905413,26.7710543 32.1418919,26.8159969 C31.9932425,26.8609395 31.7612628,26.9238582 31.4459459,27.0047548 C31.1306291,27.0856515 30.9234239,27.1395818 30.8243243,27.1665473 C30.5180165,26.5193741 29.3243347,24.559907 27.2432432,21.2880871 L31.472973,18.6589593 L31.7297297,18.5106495 Z M29.7972973,15.4635577 L31.7162162,14.3444931 L28.7432432,19.3735427 L23.0810811,19.1038886 L25.1216216,17.9443758 C24.8153138,17.1443979 24.4774793,16.3983622 24.1081081,15.7062465 C23.7387369,15.0141307 23.3986502,14.4590982 23.0878378,14.0411322 C22.7770255,13.6231662 22.4864878,13.2636309 22.2162162,12.9625156 C21.9459446,12.6614003 21.734235,12.4524204 21.5810811,12.3355697 L21.3513514,12.1602945 L26.8243243,12.1737773 C27.103605,12.1468117 27.3648636,12.1940007 27.6081081,12.3153457 C27.8513526,12.4366906 28.0270265,12.5647751 28.1351351,12.6996028 L28.2837838,12.9018434 C28.6351369,13.4501429 29.1396364,14.3040391 29.7972973,15.4635577 L29.7972973,15.4635577 Z" id="Purge" sketch:type="MSShapeGroup"></path>
        </g>
    </g>
</svg>