<svg xmlns="http://www.w3.org/2000/svg" fill="#4A4A4A" width="32" height="32" viewBox="0 0 32 32">
  <g id="srt_az" fill="inherit" stroke="none">
    <path fill-rule="evenodd" d="M15.0528925,21.21125 C15.0528925,21.2778128 15.0253529,21.3443747 14.9702728,21.4109375 L12.3347046,24.0651172 C12.2796245,24.1150393 12.2162834,24.14 12.1446793,24.14 C12.0785832,24.14 12.0152421,24.1150393 11.954654,24.0651172 L9.31082381,21.4026172 C9.2282037,21.3138667 9.20892597,21.2167974 9.25299002,21.1114063 C9.29705408,21.0004682 9.37967295,20.945 9.5008491,20.945 L11.0871472,20.945 L11.0871472,9.49625 C11.0871472,9.41859336 11.1119329,9.35480494 11.1615049,9.30488281 C11.211077,9.25496069 11.2744181,9.23 11.3515302,9.23 L12.9378283,9.23 C13.0149404,9.23 13.0782816,9.25496069 13.1278536,9.30488281 C13.1774257,9.35480494 13.2022114,9.41859336 13.2022114,9.49625 L13.2022114,20.945 L14.7885095,20.945 C14.8656216,20.945 14.9289627,20.9699607 14.9785348,21.0198828 C15.0281068,21.0698049 15.0528925,21.1335934 15.0528925,21.21125 Z M21.9598988,22.2013672 L21.9598988,24.14 L17.1349087,24.14 L17.1349087,23.3911719 L20.1835754,18.9897266 C20.2496715,18.8898823 20.3075047,18.8150002 20.3570768,18.7650781 L20.4479584,18.6901953 L20.4479584,18.6652344 C20.4369424,18.6652344 20.4190417,18.6666211 20.3942556,18.6693945 C20.3694696,18.672168 20.3488149,18.6735547 20.3322909,18.6735547 C20.2661948,18.6901954 20.1835759,18.6985156 20.0844318,18.6985156 L18.1676549,18.6985156 L18.1676549,19.6553516 L17.1762186,19.6553516 L17.1762186,17.75 L21.8607552,17.75 L21.8607552,18.4905078 L18.8120885,22.9002734 C18.7790405,22.9446487 18.7212073,23.0167573 18.6385872,23.1166016 L18.5477055,23.208125 L18.5477055,23.2247656 L18.6633731,23.208125 C18.7129451,23.1970312 18.795564,23.1914844 18.9112321,23.1914844 L20.9602005,23.1914844 L20.9602005,22.2013672 L21.9598988,22.2013672 Z M22.6952141,14.7380469 L22.6952141,15.62 L20.3157669,15.62 L20.3157669,14.7380469 L20.9354146,14.7380469 L20.5471021,13.5399219 L18.5394435,13.5399219 L18.151131,14.7380469 L18.7707787,14.7380469 L18.7707787,15.62 L16.3995935,15.62 L16.3995935,14.7380469 L16.9779313,14.7380469 L18.8781843,9.23 L20.2166233,9.23 L22.1168762,14.7380469 L22.6952141,14.7380469 Z M18.8120885,12.6246875 L20.2744571,12.6246875 L19.6795953,10.8108594 L19.5804517,10.4198047 C19.5694356,10.3310542 19.5639277,10.275586 19.5639277,10.2533984 L19.5308798,10.2533984 L19.5060939,10.4198047 C19.5060939,10.4253516 19.4964551,10.475273 19.477177,10.5695703 C19.457899,10.6638677 19.4372443,10.7442965 19.4152123,10.8108594 L18.8120885,12.6246875 Z"/>
  </g>
</svg>
