<svg width="32px" height="32px" viewBox="0 0 32 32" version="1.1" xmlns="http://www.w3.org/2000/svg" xmlns:xlink="http://www.w3.org/1999/xlink" fill="#4A4A4A">
  <g id="stb_geolocation" stroke="none" fill="inherit" fill-rule="evenodd">
    <path d="M17,15.5 C15.0670034,15.5 13.5,13.9329966 13.5,12 C13.5,10.0670034 15.0670034,8.5 17,8.5 C18.9329966,8.5 20.5,10.0670034 20.5,12 C20.5,13.9329966 18.9329966,15.5 17,15.5 Z M17,14.5 C18.3807119,14.5 19.5,13.3807119 19.5,12 C19.5,10.6192881 18.3807119,9.5 17,9.5 C15.6192881,9.5 14.5,10.6192881 14.5,12 C14.5,13.3807119 15.6192881,14.5 17,14.5 Z"></path>
    <path d="M14.1809577,16.4297211 L17,23.8805779 L19.8190423,16.4297211 C21.2806429,15.4976286 22.25,13.8620171 22.25,12 C22.25,9.10050506 19.8994949,6.75 17,6.75 C14.1005051,6.75 11.75,9.10050506 11.75,12 C11.75,13.8620171 12.7193571,15.4976286 14.1809577,16.4297211 L14.1809577,16.4297211 Z M21.0577184,17.3946882 L17,28.1194221 L12.9422816,17.3946882 C11.3071693,16.1628582 10.25,14.2048867 10.25,12 C10.25,8.27207794 13.2720779,5.25 17,5.25 C20.7279221,5.25 23.75,8.27207794 23.75,12 C23.75,14.2048867 22.6928307,16.1628582 21.0577184,17.3946882 L21.0577184,17.3946882 Z"></path>
  </g>
</svg>