<svg width="32px" height="32px" viewBox="0 0 32 32" version="1.1" xmlns="http://www.w3.org/2000/svg" xmlns:xlink="http://www.w3.org/1999/xlink" fill="#4A4A4A">
  <g id="stb_help" stroke="none" fill-rule="nonzero" fill="inherit">
    <path d="M16,28 C9.372583,28 4,22.627417 4,16 C4,9.372583 9.372583,4 16,4 C22.627417,4 28,9.372583 28,16 C28,22.627417 22.627417,28 16,28 Z M16,26 C21.5228475,26 26,21.5228475 26,16 C26,10.4771525 21.5228475,6 16,6 C10.4771525,6 6,10.4771525 6,16 C6,21.5228475 10.4771525,26 16,26 Z"></path>
    <path d="M14.8932989,18.0405041 L14.8932989,17.4727027 C14.8932989,16.9816289 14.9981621,16.5545033 15.2078916,16.1913133 C15.417621,15.8281232 15.8012668,15.4419198 16.3588402,15.0326916 C16.8959523,14.6490401 17.2501852,14.3370083 17.4215495,14.0965867 C17.5929138,13.8561651 17.6785947,13.587613 17.6785947,13.2909226 C17.6785947,12.9584247 17.5558281,12.7052185 17.3102911,12.5312965 C17.0647542,12.3573745 16.7220307,12.2704148 16.2821103,12.2704148 C15.5148074,12.2704148 14.6400951,12.5210633 13.6579474,13.0223679 L12.8215914,11.3419828 C13.9623151,10.7025637 15.1720779,10.382859 16.4509161,10.382859 C17.5046788,10.382859 18.3423053,10.6360652 18.9638207,11.1424851 C19.585336,11.6489051 19.8960891,12.3241215 19.8960891,13.1681548 C19.8960891,13.7308436 19.7682071,14.2167948 19.5124395,14.6260231 C19.2566719,15.0352513 18.7707206,15.4956261 18.0545712,16.0071614 C17.5634974,16.3703516 17.2527443,16.6465764 17.1223029,16.8358445 C16.9918613,17.0251125 16.9266416,17.2732035 16.9266416,17.5801246 L16.9266416,18.0405041 L14.8932989,18.0405041 Z M14.6477632,20.664667 C14.6477632,20.2349774 14.7628569,19.9101573 14.9930478,19.6901971 C15.2232387,19.470237 15.5582892,19.3602585 15.9982096,19.3602585 C16.422784,19.3602585 16.7514404,19.4727946 16.984189,19.6978702 C17.2169375,19.9229457 17.3333101,20.2452081 17.3333101,20.664667 C17.3333101,21.0687799 17.2156587,21.3872059 16.9803525,21.6199545 C16.7450462,21.852703 16.4176685,21.9690755 15.9982096,21.9690755 C15.56852,21.9690755 15.2360271,21.8552606 15.0007208,21.6276274 C14.7654146,21.3999942 14.6477632,21.0790106 14.6477632,20.664667 L14.6477632,20.664667 Z"></path>
  </g>
</svg>