<svg width="32px" height="32px" viewBox="0 0 32 32" version="1.1" xmlns="http://www.w3.org/2000/svg" xmlns:xlink="http://www.w3.org/1999/xlink" fill="#4A4A4A">
  <g id="stb_undo" stroke="none" fill-rule="nonzero" fill="inherit">
    <path d="M13.371262,20.35095 C12.425798,20.1037601 11.315381,19.5774315 10.0266843,18.7746689 C9.53327712,18.4673127 9.56198237,17.7397501 10.078071,17.4722225 C11.4057235,16.7840005 12.7969872,16.2697826 14.2505182,15.9300897 C15.6767172,15.5967844 17.30322,15.3378901 19.1310168,15.1525198 C19.5618098,15.1088299 19.9399997,15.4379856 19.9561685,15.8706865 L20.0186954,17.5440014 L25.8400516,12.6292103 L19.9566916,7.6229629 L19.9566916,9.4232337 C19.9566916,9.81786362 19.6508813,10.1449873 19.2571453,10.1715347 C17.7709528,10.2717404 16.6667268,10.3803521 15.9530689,10.4954389 C14.263011,10.767983 12.3194338,11.2838627 10.7343739,12.0065535 C9.5969946,12.5251292 8.63476123,13.4387725 7.84470307,14.7683117 L7.84037656,20.5709392 C7.93491736,21.4322742 8.15158142,22.0943772 8.47648896,22.5636322 C9.00196354,23.3225608 10.292154,24.2268181 11.6982492,24.7676394 C12.4392485,25.0526474 13.7642616,25.3885516 15.6576327,25.7690084 L13.6694528,23.482723 C13.3853736,23.1560492 13.4360849,22.6573747 13.7801092,22.3945743 L15.8019877,20.8500593 C14.7735731,20.6720487 13.9643951,20.5060236 13.371262,20.35095 Z M13.750681,18.8997294 C14.5814967,19.1169446 15.9200449,19.3669982 17.7554356,19.6463625 C18.4095936,19.7459317 18.6236876,20.5821445 18.0978629,20.9838225 L15.3257355,23.1014534 L18.2085193,26.4164788 C18.6732113,26.9508462 18.2066181,27.7722515 17.5096688,27.6467572 C14.3717797,27.0817418 12.2676618,26.5937783 11.1597671,26.1676527 C9.49348364,25.526756 7.95903245,24.4513035 7.24324819,23.4175159 C6.76256243,22.7232745 6.46921673,21.8268404 6.34485393,20.6527683 L6.34485393,14.5659817 C6.34485393,14.4360032 6.37863339,14.308256 6.44288012,14.1952659 C7.39962589,12.5126473 8.62381628,11.320285 10.1120935,10.6417212 C11.8382153,9.85471481 13.9030278,9.30665584 15.7142594,9.01457088 C16.3610583,8.91026604 17.2734962,8.81405411 18.4566916,8.72478602 L18.4566916,6 C18.4566916,5.36050403 19.2056949,5.01437629 19.6927317,5.42880389 L27.4860401,12.0602577 C27.8388808,12.3604956 27.8378264,12.905655 27.4838269,13.2045258 L19.8105083,19.6828716 C19.3328934,20.0861071 18.6005453,19.7624414 18.5772044,19.1378054 L18.4872993,16.73181 C17.0425781,16.9016804 15.7439018,17.1215011 14.5918731,17.3907323 C13.7197615,17.5945464 12.8725915,17.8667288 12.0499862,18.2074257 C12.6945958,18.5415734 13.2625899,18.7721188 13.750681,18.8997294 Z" transform="translate(17.047427, 16.454085) scale(-1, 1) translate(-17.047427, -16.454085) "></path>
    <path d="M26.8724801,17.4490558 C25.9926869,17.9206902 25.3325121,18.336576 24.8833429,18.7071805 C24.4342719,19.0777041 23.8969846,19.6505146 23.2592152,20.4324078 L24.421579,21.3805167 C25.0025054,20.6683119 25.4787271,20.1606043 25.8379786,19.8641899 C26.1971319,19.5678565 26.7810705,19.1999967 27.5811819,18.7710777 L26.8724801,17.4490558 Z" transform="translate(25.420199, 19.414786) scale(-1, 1) translate(-25.420199, -19.414786) "></path>
  </g>
</svg>