<?xml version="1.0" encoding="UTF-8" standalone="no"?>
<svg width="46px" height="46px" viewBox="0 0 46 46" version="1.1" xmlns="http://www.w3.org/2000/svg" xmlns:xlink="http://www.w3.org/1999/xlink" xmlns:sketch="http://www.bohemiancoding.com/sketch/ns">
    <!-- Generator: Sketch 3.3.2 (12043) - http://www.bohemiancoding.com/sketch -->
    <title>tb_3DText</title>
    <desc>Created with Sketch.</desc>
    <defs></defs>
    <g id="Page-2---Icons" stroke="none" stroke-width="1" fill="none" fill-rule="evenodd" sketch:type="MSPage">
        <g id="tb_3DText" sketch:type="MSArtboardGroup" transform="translate(0.750000, 0.500000)" stroke="#4A4A4A">
            <path d="M21.430275,24.9584859 L16.0543041,23.2529246 L15.8769436,22.9312693 L15.8373928,22.5381877 L18.1537399,13.0974477 L19.7027864,18.7444293 L19.348413,20.362915 C19.348413,20.362915 19.2817483,20.5818062 19.348413,20.6943461 C19.4150777,20.806886 19.6020555,20.8925425 19.6020555,20.8925425 L20.3965473,21.0968882 L21.430275,24.9584859 Z" id="Path-5262" stroke-width="0.85" sketch:type="MSShapeGroup"></path>
            <path d="M18.6200066,9.24562581 L21.8851089,8.36659241 C21.8851089,8.36659241 22.6876731,8.53420003 23.1106038,8.99090322 C23.5335345,9.4476064 23.8524513,10.3144989 23.8524513,10.3144989 L29.3733773,30.0871925 C29.3733773,30.0871925 29.7916428,31.9225424 30.6473064,32.4131622 C31.5029701,32.9037821 31.9029665,32.9200846 32.4143844,33.1081505 C32.9258022,33.2962163 33.3795161,33.5034396 33.6693878,33.8681005 C33.9592595,34.2327614 33.9210606,34.7500509 33.9210606,34.7500509 L31.5623817,37.6602821 C31.5623817,37.6602821 31.5198183,37.4106445 31.3711166,37.1733055 C31.222415,36.9359665 30.5666599,36.5682309 29.776803,36.2278519 C28.9869461,35.8874728 28.300601,35.6619199 27.7216301,35.0991809 C27.1426592,34.5364418 26.9087534,33.6969452 26.561564,32.8639132 C26.2143745,32.0308812 20.39114,11.5099843 20.39114,11.5099843 C20.39114,11.5099843 19.8911161,10.3437475 19.5627365,9.95476532 C19.2343569,9.56578318 18.6200066,9.24562581 18.6200066,9.24562581 Z" id="Path-5323" stroke-width="0.85" sketch:type="MSShapeGroup"></path>
            <path d="M17.9345537,32.5858549 L21.6754589,30.232844 C21.6754589,30.232844 21.7642939,29.7552491 21.6060908,29.3725739 C21.4478877,28.9898987 21.1984937,28.7725055 20.7433508,28.6816852 C20.2882078,28.5908649 18.9817168,28.4709536 18.4596405,28.2794189 C17.9375642,28.0878843 17.3015442,27.8203507 17.3015442,27.2989223 C17.3015442,26.7774938 17.590332,26.2753906 17.590332,26.2753906 C17.590332,26.2753906 16.3620397,25.6966362 16.076416,25.6392835 C15.7907922,25.5819308 15.4897398,25.4089216 15.2393417,25.6392835 C14.9889436,25.8696454 14.8990274,26.275341 14.7414422,26.7173017 C14.5838571,27.1592623 14.2505027,28.1695573 14.2037601,28.5003993 C14.1570176,28.8312413 14.1183629,29.1551807 14.3580623,29.5868925 C14.5977616,30.0186043 14.8334962,30.0779897 15.2867717,30.3425065 C15.7400473,30.6070232 16.5853724,30.7310013 16.9931717,30.9634273 C17.4009709,31.1958533 17.7296118,31.4388937 17.8568,31.9034017 C17.9839883,32.3679098 17.9345537,32.5858549 17.9345537,32.5858549 Z" id="Path-5263" stroke-width="0.85" sketch:type="MSShapeGroup"></path>
            <path d="M12.1982422,26.9056396 L12.065237,28.1576945 C12.065237,28.1576945 11.9605921,28.4423737 11.7808113,28.5480957 C11.6010305,28.6538177 11.1072998,28.5480957 11.1072998,28.5480957 L10.3126221,28.0317383 L12.1982422,26.9056396 Z" id="Path-5264" stroke-width="0.85" sketch:type="MSShapeGroup"></path>
            <path d="M23.0402313,30.8771973 C23.0402313,30.8771973 23.5561524,32.5897382 23.5561524,32.7214355 C23.5561524,32.8531329 23.8527603,33.4984728 23.6981106,33.6116435 C23.5434608,33.7248141 23.3206787,33.6479874 23.0402312,33.5687561 C22.7597837,33.4895248 22.2954097,33.2569949 21.8966961,33.041612 C21.4979825,32.8262291 21.1945152,32.615537 20.8668694,32.5508118 C20.5392237,32.4860865 23.0402313,30.8771973 23.0402313,30.8771973 Z" id="Path-5265" stroke-width="0.85" sketch:type="MSShapeGroup"></path>
            <path d="M10.073523,28.08544 L12.0704128,26.9418688 C12.0704128,26.9418688 15.9670143,10.5499064 16.1839256,10.1073151 C16.4008369,9.66472371 16.7703896,9.39541626 17.4195786,9.19501241 C18.0687675,8.99460856 21.7720184,8.04462179 21.7720184,8.04462179 C21.7720184,8.04462179 22.6032028,7.97429911 23.1337395,8.58465576 C23.6642761,9.19501241 23.8590946,9.45517474 24.0658092,9.98764038 C24.2725239,10.520106 29.7424278,30.6431125 29.9695358,31.0557454 C30.1966438,31.4683784 30.4005775,31.8874769 30.8328552,32.177597 C31.2651329,32.4677172 32.2183685,32.5678409 32.868948,32.8984833 C33.5195274,33.2291257 33.9709625,33.5257113 34.1571293,33.9876963 C34.3432961,34.4496813 34.313942,34.9375254 34.313942,34.9375254 L31.6198547,38.2509687 C31.6198547,38.2509687 31.2951057,38.7256073 30.9110305,38.7861541 C30.5269554,38.846701 30.150914,38.8209213 29.1954369,38.2968913 C28.2399599,37.7728612 26.2645464,36.6881816 25.2839651,36.3471321 C24.3033838,36.0060826 21.2702179,34.8958997 20.8569431,34.6341604 C20.4436684,34.372421 20.2018061,34.1864449 20.0940456,33.9515101 C19.9862852,33.7165753 19.7408695,33.1623513 19.9174576,32.8512599 C20.0940456,32.5401685 20.3507395,32.3463875 20.7039928,32.1407013 C21.0572462,31.9350151 22.8667712,30.6719663 22.8667712,30.6719663 L22.4999995,28.7846855 C22.4999995,28.7846855 22.3315611,28.1592315 22.1211772,27.9224444 C21.9107933,27.6856572 21.2699862,27.4122899 21.2699862,27.4122899 L17.607213,26.2849197 C17.607213,26.2849197 17.5527533,26.6417366 17.486166,26.9418691 C17.4195787,27.2420016 17.2151814,27.5418195 17.8724813,27.9224447 C18.5297813,28.3030698 19.6861777,28.355615 20.3150506,28.466302 C20.9439235,28.5769889 21.0913892,28.8019114 21.2879071,29.0653061 C21.4844251,29.3287007 21.607481,29.6623004 21.607481,29.8588409 C21.607481,30.0553815 21.6426287,30.3546473 21.6426287,30.3546473 L17.7149734,32.888471 C17.7149734,32.888471 17.4900284,32.998449 17.1763258,32.9984487 C16.8626232,32.9984484 16.3502398,32.7500333 15.9969864,32.5450567 C15.643733,32.34008 15.0395794,31.8314237 14.3485222,31.5262451 C13.657465,31.2210665 12.9161968,30.8417819 12.2837706,30.6719666 C11.6513443,30.5021512 11.173954,30.4527209 10.6874485,30.206749 C10.200943,29.960777 9.93706512,29.7732242 9.7853508,29.425237 C9.63363647,29.0772499 9.63734436,28.6034396 9.7559967,28.4029566 C9.87464905,28.2024737 10.073523,28.08544 10.073523,28.08544 Z" id="Path-5266" stroke-width="1.5" sketch:type="MSShapeGroup"></path>
            <path d="M18.1231499,12.9028778 L21.4554577,24.833608" id="Path-3441" stroke-width="0.85" sketch:type="MSShapeGroup"></path>
            <path d="M19.7567439,18.729332 L19.3338132,20.4249204 C19.3338132,20.4249204 19.2031102,20.6973813 19.5562863,20.8588397 C19.9094625,21.020298 20.4161296,21.0705566 20.4161296,21.0705566" id="Path-3442" stroke-width="0.85" sketch:type="MSShapeGroup"></path>
            <path d="M22.5822494,29.252624 L23.7116482,33.2988566" id="Path-3443" stroke-width="0.85" sketch:type="MSShapeGroup"></path>
        </g>
    </g>
</svg>