<?xml version="1.0" encoding="UTF-8" standalone="no"?>
<svg width="31px" height="31px" viewBox="0 0 31 31" version="1.1" xmlns="http://www.w3.org/2000/svg" xmlns:xlink="http://www.w3.org/1999/xlink">
    <!-- Generator: Sketch 3.8.3 (29802) - http://www.bohemiancoding.com/sketch -->
    <title>tb_add_folder</title>
    <desc>Created with Sketch.</desc>
    <defs></defs>
    <g id="Page-2---Icons-32x32" stroke="none" stroke-width="1" fill="none" fill-rule="evenodd">
        <g id="tb_add_folder">
            <g id="Group" transform="translate(5.000000, 5.000000)" stroke-width="2" stroke="#4A4A4A">
                <polyline id="Path-1430" points="12 19 0 19 0 0 7 0 9 3 20 3 20 12"></polyline>
            </g>
            <g id="Group" transform="translate(18.982222, 17.840357)" fill="#4A4A4A">
                <path d="M5.5102332,11.1596429 C8.54363256,11.1596429 11.0026886,8.69720898 11.0026886,5.65964286 C11.0026886,2.62207673 8.54363256,0.159642857 5.5102332,0.159642857 C2.47683383,0.159642857 0.0177777778,2.62207673 0.0177777778,5.65964286 C0.0177777778,8.69720898 2.47683383,11.1596429 5.5102332,11.1596429 L5.5102332,11.1596429 Z M1.70713043,5.65964286 C1.70713043,3.55636204 3.40983753,1.85131604 5.5102332,1.85131604 C7.61062886,1.85131604 9.31333597,3.55636204 9.31333597,5.65964286 C9.31333597,7.76292368 7.61062886,9.46796967 5.5102332,9.46796967 C3.40983753,9.46796967 1.70713043,7.76292368 1.70713043,5.65964286 Z" id="Shape"></path>
                <polygon id="plus" points="5.01777778 3.15964286 6.01777778 3.15964286 6.01777778 8.15964286 5.01777778 8.15964286"></polygon>
                <polygon id="plus" transform="translate(5.517778, 5.659643) rotate(90.000000) translate(-5.517778, -5.659643) " points="5.01777778 3.15964286 6.01777778 3.15964286 6.01777778 8.15964286 5.01777778 8.15964286"></polygon>
            </g>
        </g>
    </g>
</svg>