<svg xmlns="http://www.w3.org/2000/svg" width="32" height="32" viewBox="0 0 32 32">
  <g fill="none" fill-rule="evenodd" stroke="#4A4A4A" transform="translate(5.68 6.39)">
    <path stroke-width="1.42" d="M7.08396739,1.15298435 C10.7535232,-0.378316343 14.9738264,0.516820395 17.7290579,3.4108531 C20.4842895,6.3049317 21.2154798,10.6105933 19.5732542,14.2713855 C17.931178,17.9321319 14.2487654,20.2050858 10.2851488,20.0045567 C6.32168167,19.8040735 2.8810059,17.1708342 1.60684211,13.3625558" stroke-linecap="round"/>
    <path stroke-width=".604" d="M16.5728947 16.9216667L2.50368421 13.2533333M16.9652632 16.4058073L7.60447368 1.96174479" stroke-linecap="round" stroke-linejoin="round"/>
    <path fill="#4A4A4A" stroke-width="1.065" d="M8.07585439.447983868C8.56839941.951636132 8.56839941 1.76818683 8.07585439 2.27181809 7.58330937 2.77547036 6.78484852 2.77547036 6.2923035 2.27181809 5.79975848 1.76818683 5.79975848.951636132 6.2923035.447983868 6.78484852-.0556474006 7.58330937-.0556474006 8.07585439.447983868M17.8850649 16.3249891C18.3776099 16.8286413 18.3776099 17.645192 17.8850649 18.1488233 17.3925199 18.6524756 16.594059 18.6524756 16.101514 18.1488233 15.608969 17.645192 15.608969 16.8286413 16.101514 16.3249891 16.594059 15.8213578 17.3925199 15.8213578 17.8850649 16.3249891M2.52664387 12.1407964C3.01918889 12.6444486 3.01918889 13.4609993 2.52664387 13.9646306 2.03409885 14.4682829 1.235638 14.4682829.743092975 13.9646306.250547956 13.4609993.250547956 12.6444486.743092975 12.1407964 1.235638 11.6371651 2.03409885 11.6371651 2.52664387 12.1407964"/>
  </g>
</svg>
