<svg xmlns="http://www.w3.org/2000/svg" width="32" height="32" viewBox="0 0 32 32">
  <g fill="none" fill-rule="evenodd" stroke="#4A4A4A">
    <path stroke-width=".71" d="M8.32381579 7.455L23.9064474 7.455M8.32381579 23.9531579L24.4669737 7.81" stroke-linecap="round" stroke-linejoin="round"/>
    <path fill="#4A4A4A" stroke-width="1.42" d="M8.39454048 8.59082121C7.89114367 9.09428767 7.0747602 9.09428767 6.57136339 8.59082121 6.06796659 8.08733491 6.06796659 7.27106631 6.57136339 6.76759985 7.0747602 6.26413338 7.89114367 6.26413338 8.39454048 6.76759985 8.89813563 7.27106631 8.89813563 8.08733491 8.39454048 8.59082121zM8.34669864 25.5829773C7.85424524 26.0754988 7.05560923 26.0754988 6.56315584 25.5829773 6.07070244 25.0904557 6.07070244 24.2919127 6.56315584 23.7993912 7.05560923 23.3068696 7.85424524 23.3068696 8.34669864 23.7993912 8.83934607 24.2919127 8.83934607 25.0904557 8.34669864 25.5829773zM25.3867754 8.54298182C24.8942304 9.03549729 24.0957696 9.03549729 23.6032246 8.54298182 23.1106795 8.05046635 23.1106795 7.25191747 23.6032246 6.759402 24.0957696 6.266866 24.8942304 6.266866 25.3867754 6.759402 25.8793205 7.25191747 25.8793205 8.05046635 25.3867754 8.54298182z"/>
    <path stroke-width="1.42" d="M10.3418884,24.1614941 C11.5131458,24.0715308 16.4477844,23.5112097 20.2776416,19.480625 C24.1074988,15.4500403 24.3829358,11.6941992 24.6250049,10.3619092"/>
  </g>
</svg>
