<?xml version="1.0" encoding="UTF-8" standalone="no"?>
<svg width="32px" height="32px" viewBox="0 0 32 32" version="1.1" xmlns="http://www.w3.org/2000/svg" xmlns:xlink="http://www.w3.org/1999/xlink">
    <!-- Generator: Sketch 3.8.3 (29802) - http://www.bohemiancoding.com/sketch -->
    <title>tb_add_model</title>
    <desc>Created with Sketch.</desc>
    <defs></defs>
    <g id="Page-2---Icons-32x32" stroke="none" stroke-width="1" fill="none" fill-rule="evenodd">
        <g id="tb_add_model">
            <g id="Group-2" transform="translate(4.000000, 3.000000)">
                <g id="Group" transform="translate(14.982222, 14.840357)" fill="#4A4A4A">
                    <path d="M5.5102332,11.1596429 C8.54363256,11.1596429 11.0026886,8.69720898 11.0026886,5.65964286 C11.0026886,2.62207673 8.54363256,0.159642857 5.5102332,0.159642857 C2.47683383,0.159642857 0.0177777778,2.62207673 0.0177777778,5.65964286 C0.0177777778,8.69720898 2.47683383,11.1596429 5.5102332,11.1596429 L5.5102332,11.1596429 Z M1.70713043,5.65964286 C1.70713043,3.55636204 3.40983753,1.85131604 5.5102332,1.85131604 C7.61062886,1.85131604 9.31333597,3.55636204 9.31333597,5.65964286 C9.31333597,7.76292368 7.61062886,9.46796967 5.5102332,9.46796967 C3.40983753,9.46796967 1.70713043,7.76292368 1.70713043,5.65964286 Z" id="Shape"></path>
                    <polygon id="plus" points="5.01777778 3.15964286 6.01777778 3.15964286 6.01777778 8.15964286 5.01777778 8.15964286"></polygon>
                    <polygon id="plus" transform="translate(5.517778, 5.659643) rotate(90.000000) translate(-5.517778, -5.659643) " points="5.01777778 3.15964286 6.01777778 3.15964286 6.01777778 8.15964286 5.01777778 8.15964286"></polygon>
                </g>
                <g id="Group" stroke="#4A4A4A">
                    <path d="M21,13.1389694 L21,4 L11,0 L0,4 L0,15 L11,21 L12.5491231,20.0705261 C12.5478024,20.0147968 12.5471382,19.9589048 12.5471382,19.9028574 C12.5471382,16.0735999 15.6471066,12.9693733 19.4711113,12.9693733 C19.9964597,12.9693733 20.5081428,13.0279617 21,13.1389694 Z" id="Combined-Shape" stroke-width="2"></path>
                    <path d="M10.5,8.5 L21.5266213,4.30863193" id="Path-330"></path>
                    <polygon id="Path-331" points="0.846039219 4.10736475 10.5715379 8.29101468 10.7503507 20.1073648 0.750350701 14.7840755"></polygon>
                </g>
            </g>
        </g>
    </g>
</svg>