<?xml version="1.0" encoding="UTF-8" standalone="no"?>
<svg width="46px" height="46px" viewBox="0 0 46 46" version="1.1" xmlns="http://www.w3.org/2000/svg" xmlns:xlink="http://www.w3.org/1999/xlink" xmlns:sketch="http://www.bohemiancoding.com/sketch/ns">
    <!-- Generator: Sketch 3.3.2 (12043) - http://www.bohemiancoding.com/sketch -->
    <title>tb_Axes</title>
    <desc>Created with Sketch.</desc>
    <defs></defs>
    <g id="Page-2---Icons" stroke="none" stroke-width="1" fill="none" fill-rule="evenodd" sketch:type="MSPage">
        <g id="tb_Axes" sketch:type="MSArtboardGroup" transform="translate(0.750000, 0.500000)" fill="#4A4A4A">
            <g id="Group" sketch:type="MSLayerGroup" transform="translate(9.000000, 9.000000)">
                <path d="M12.2667411,9.80554194 L14.5680825,9.77965005 L11.388116,0.122423492 L8.31624712,9.84998809 L10.7131696,9.82302084 L10.7131696,14.4204793 L12.2667411,14.4204793 L12.2667411,9.80554194 Z" id="Path-5306" stroke="#4A4A4A" stroke-width="1.02" sketch:type="MSShapeGroup"></path>
                <path d="M18.0387748,9.30653425 L27.9272417,6.44877408 L21.3750087,14.2385259 L20.1747458,12.4313938 L13.7774527,16.4027161 L12.9856851,15.1608796 L19.28588,11.1897425 L18.0387748,9.30653425 Z" id="Path-5308" sketch:type="MSShapeGroup"></path>
                <path d="M18.0765141,20.6768621 L27.9649811,17.8191019 L21.4127481,25.6088537 L20.2124852,23.8017216 L13.8151921,27.7730439 L13.0234244,26.5312074 L19.3236193,22.5600703 L18.0765141,20.6768621 Z" id="Path-5308-Copy" sketch:type="MSShapeGroup" transform="translate(20.494203, 22.796073) rotate(67.000000) translate(-20.494203, -22.796073) "></path>
                <ellipse id="Oval-5" sketch:type="MSShapeGroup" cx="11.3928571" cy="16.7897603" rx="2.81584821" ry="2.74836601"></ellipse>
                <g id="Rectangle-10-+-Rectangle-10-Copy-+-Rectangle-10-Copy-2" transform="translate(0.420759, 9.587146)" sketch:type="MSShapeGroup">
                    <rect id="Rectangle-10" transform="translate(6.835180, 4.552187) rotate(-56.000000) translate(-6.835180, -4.552187) " x="6.0713962" y="3.8067076" width="1.5275678" height="1.49095943"></rect>
                    <rect id="Rectangle-10-Copy" transform="translate(4.019332, 2.846305) rotate(-56.000000) translate(-4.019332, -2.846305) " x="3.25554799" y="2.10082525" width="1.5275678" height="1.49095943"></rect>
                    <rect id="Rectangle-10-Copy-2" transform="translate(1.106385, 1.045651) rotate(-56.000000) translate(-1.106385, -1.045651) " x="0.342601559" y="0.300171653" width="1.5275678" height="1.49095943"></rect>
                </g>
                <g id="Rectangle-10-+-Rectangle-10-Copy-+-Rectangle-10-Copy-2-Copy" transform="translate(4.347842, 21.269063) scale(-1, 1) translate(-4.347842, -21.269063) translate(0.118676, 18.306100)" sketch:type="MSShapeGroup">
                    <rect id="Rectangle-10" transform="translate(6.835180, 4.552187) rotate(-56.000000) translate(-6.835180, -4.552187) " x="6.0713962" y="3.8067076" width="1.5275678" height="1.49095943"></rect>
                    <rect id="Rectangle-10-Copy" transform="translate(4.019332, 2.751534) rotate(-56.000000) translate(-4.019332, -2.751534) " x="3.25554799" y="2.00605401" width="1.5275678" height="1.49095943"></rect>
                    <rect id="Rectangle-10-Copy-2" transform="translate(1.106385, 1.045651) rotate(-56.000000) translate(-1.106385, -1.045651) " x="0.342601559" y="0.300171653" width="1.5275678" height="1.49095943"></rect>
                </g>
                <g id="Rectangle-10-Copy-3-+-Rectangle-10-Copy-4-+-Rectangle-10-Copy-5" transform="translate(10.616071, 21.623094)" sketch:type="MSShapeGroup">
                    <rect id="Rectangle-10-Copy-3" x="0.0130018121" y="0.015857927" width="1.5275678" height="1.49095943"></rect>
                    <rect id="Rectangle-10-Copy-4" x="0.0130018121" y="3.23808015" width="1.5275678" height="1.49095943"></rect>
                    <rect id="Rectangle-10-Copy-5" x="0.0130018121" y="6.46030237" width="1.5275678" height="1.49095943"></rect>
                </g>
            </g>
        </g>
    </g>
</svg>