<svg xmlns="http://www.w3.org/2000/svg" width="32" height="32" viewBox="0 0 32 32">
  <g fill="none" fill-rule="evenodd" stroke="#4A4A4A">
    <path stroke-width="1.42" d="M10.5228287,25.2583141 C7.38521995,22.8404538 5.90005209,18.8202828 6.70365384,14.9194531 C7.5072556,11.0186387 10.4568513,7.92899034 14.2895522,6.97363775 C18.1219526,6.01827 22.1578459,7.36662386 24.6684438,10.4413014" stroke-linecap="round"/>
    <path stroke-width="1.42" d="M11.278746,24.3843086 L23.6873022,11.3907603" stroke-linecap="round" stroke-linejoin="round"/>
    <path fill="#4A4A4A" stroke-width=".883" d="M11.3685086 24.3518973C11.8644435 24.8524927 11.8644435 25.6641318 11.3685086 26.1647423 10.8727231 26.6653377 10.0687709 26.6653377 9.57298544 26.1647423 9.07705059 25.6641318 9.07705059 24.8524927 9.57298544 24.3518973 10.0687709 23.8512868 10.8727231 23.8512868 11.3685086 24.3518973M25.352318 9.59326866C25.825627 10.0711201 25.825627 10.8458555 25.352318 11.3237069 24.8790089 11.8015583 24.1115935 11.8015583 23.6382845 11.3237069 23.1649754 10.8458555 23.1649754 10.0711201 23.6382845 9.59326866 24.1115935 9.11541724 24.8790089 9.11541724 25.352318 9.59326866"/>
    <path stroke-width=".883" d="M17.5695954,17.916668 L10.2398902,10.7498229" stroke-linecap="round" stroke-linejoin="round"/>
    <path fill="#4A4A4A" stroke-width=".883" d="M10.1734795,9.01059833 C10.6467885,9.48843473 10.6467885,10.2631852 10.1734795,10.7410366 C9.70017047,11.218888 8.93275499,11.218888 8.45944598,10.7410366 C7.98613697,10.2631852 7.98613697,9.48843473 8.45944598,9.01059833 C8.93275499,8.53274691 9.70017047,8.53274691 10.1734795,9.01059833"/>
  </g>
</svg>
