<svg xmlns="http://www.w3.org/2000/svg" width="32" height="32" viewBox="0 0 32 32">
  <g fill="none" fill-rule="evenodd" transform="translate(6.39 7.81)">
    <path stroke="#FB0011" stroke-width=".604" stroke-linecap="round" stroke-linejoin="round"/>
    <path fill="#4A4A4A" stroke="#4A4A4A" stroke-width="1.42" d="M2.36529701,16.3674114 C2.75197878,16.7540795 2.75197878,17.3809984 2.36529701,17.7676664 C1.97863048,18.1543344 1.35172923,18.1543344 0.965062695,17.7676664 C0.578380928,17.3809984 0.578380928,16.7540795 0.965062695,16.3674114 C1.35172923,15.9807434 1.97863048,15.9807434 2.36529701,16.3674114" transform="rotate(90 1.665 17.068)"/>
    <path fill="#4A4A4A" stroke="#4A4A4A" stroke-width="1.42" d="M19.1763838 1.95702937C18.7897158 2.34371113 18.1627969 2.34371113 17.7761289 1.95702937 17.3894609 1.57036283 17.3894609.943461584 17.7761289.556795049 18.1627969.170113282 18.7897158.170113282 19.1763838.556795049 19.5630518.943461584 19.5630518 1.57036283 19.1763838 1.95702937M2.53294657 1.95702937C2.14627855 2.34371113 1.51935966 2.34371113 1.13269164 1.95702937.746023616 1.57036283.746023616.943461584 1.13269164.556795049 1.51935966.170113282 2.14627855.170113282 2.53294657.556795049 2.91961459.943461584 2.91961459 1.57036283 2.53294657 1.95702937"/>
    <path stroke="#4A4A4A" stroke-width="1.42" d="M3.95188843 17.0614941C5.12314575 16.9715308 10.0577844 16.4112097 13.8876416 12.380625 17.7174988 8.35004028 17.9929358 4.59419922 18.2350049 3.26190918M1.810448 3.27213623L1.71675781 14.8034827"/>
    <polyline stroke="#4A4A4A" stroke-width=".71" points="1.857 1.244 18.668 1.244 1.717 16.983"/>
  </g>
</svg>
