<svg xmlns="http://www.w3.org/2000/svg" width="32" height="32" viewBox="0 0 32 32">
  <g fill="none" fill-rule="evenodd" stroke="#4A4A4A">
    <path stroke-width=".604" d="M17.328042,15.923982 L23.0566424,10.1953816" stroke-linecap="round" stroke-linejoin="round"/>
    <path fill="#4A4A4A" stroke-width="1.42" d="M22.8818382 9.58500768C22.8818382 9.07898301 23.2890554 8.66791667 23.7901365 8.66791667 24.2914622 8.66791667 24.6986029 9.07898301 24.6986029 9.58500768 24.6986029 10.0910323 24.2914622 10.5020833 23.7901365 10.5020833 23.2890554 10.5020833 22.8818382 10.0910323 22.8818382 9.58500768L22.8818382 9.58500768zM15.7818382 16.6850077C15.7818382 16.178983 16.1890554 15.7679167 16.6901365 15.7679167 17.1914622 15.7679167 17.5986029 16.178983 17.5986029 16.6850077 17.5986029 17.1910323 17.1914622 17.6020833 16.6901365 17.6020833 16.1890554 17.6020833 15.7818382 17.1910323 15.7818382 16.6850077L15.7818382 16.6850077z" stroke-linecap="round"/>
    <path stroke-width="1.42" d="M16.685,26.98 C22.3707715,26.98 26.98,22.3707715 26.98,16.685 C26.98,10.9992285 22.3707715,6.39 16.685,6.39 C10.9992285,6.39 6.39,10.9992285 6.39,16.685 C6.39,22.3707715 10.8560967,25.2989989 11.6621689,25.6639592" transform="rotate(-150 16.685 16.685)"/>
  </g>
</svg>
