<svg xmlns="http://www.w3.org/2000/svg" width="32" height="32" viewBox="0 0 32 32">
  <g fill="none" fill-rule="evenodd">
    <path stroke="#4A4A4A" stroke-width="1.456" d="M16.8845147 26.1587083L6.93005147 16.050125M7.86146324 21.6333542L21.2505074 8.17483333M25.7329265 17.2255417L15.7784632 7.11695833" stroke-linecap="round"/>
    <path fill="#4A4A4A" stroke="#4A4A4A" stroke-width="1.456" d="M16.0695294 26.217487C16.0695294 25.6986336 16.4869591 25.2771458 17.0008393 25.2771458 17.5147195 25.2771458 17.9323529 25.6986336 17.9323529 26.217487 17.9323529 26.7363405 17.5147195 27.1578125 17.0008393 27.1578125 16.4869591 27.1578125 16.0695294 26.7363405 16.0695294 26.217487L16.0695294 26.217487zM24.9179412 17.1080079C24.9179412 16.5891544 25.3354822 16.1676667 25.8492667 16.1676667 26.363302 16.1676667 26.7807647 16.5891544 26.7807647 17.1080079 26.7807647 17.6268613 26.363302 18.0483333 25.8492667 18.0483333 25.3354822 18.0483333 24.9179412 17.6268613 24.9179412 17.1080079L24.9179412 17.1080079z" stroke-linecap="round"/>
    <path fill="#4A4A4A" d="M10.6362924,10.5498276 L12.5090495,8.69549174 L10.420205,8.69549174 C10.1861092,8.69549174 10.0300477,8.71064139 9.95201572,8.74094115 C9.8019543,8.78942076 9.72692472,8.90758804 9.72692472,9.09544654 C9.72692472,9.15604605 9.73292708,9.24391403 9.744932,9.35905311 C9.75693691,9.47419219 9.76293928,9.56206017 9.76293928,9.62265968 C9.76293928,9.93777716 9.65789786,10.0953335 9.44781188,10.0953335 C9.24372835,10.0953335 9.14168812,9.96504653 9.14168812,9.70446862 C9.14168812,9.6317492 9.14618989,9.52115674 9.15519358,9.37268793 C9.16419726,9.22421912 9.16869904,9.11362667 9.16869904,9.04090725 C9.16869904,8.87122861 9.16569785,8.74397153 9.1596954,8.65913221 C9.15369294,8.57429289 9.15069176,8.48036505 9.15069176,8.37734588 C9.15069176,8.21372719 9.18070359,8.11222452 9.24072816,8.07283484 C9.30075272,8.03344515 9.45081189,8.01375061 9.69091016,8.01375061 L11.9058056,8.01375061 C12.0258547,8.01375061 12.2299352,8.00769075 12.5180531,7.99557084 C12.6621121,7.98951089 12.8301784,7.98648096 13.022257,7.98648096 C13.3764019,7.98648096 13.5534717,8.09555845 13.5534717,8.31371671 C13.5534717,8.45309559 13.4784421,8.59550231 13.3283807,8.74094115 L11.671711,10.3498502 C11.7077257,10.3498502 11.7557446,10.3468203 11.8157692,10.3407603 L11.9328165,10.3407603 C12.4430253,10.3407603 12.8616904,10.5058915 13.1888243,10.8361589 C13.5159582,11.1664263 13.6795227,11.5891015 13.6795227,12.1041974 C13.6795227,12.7465523 13.446931,13.2707302 12.9817406,13.676747 C12.5165502,14.0827637 11.9178141,14.285769 11.1855144,14.285769 C10.5132393,14.285769 9.95201797,14.1206378 9.50183372,13.7903705 C9.05164946,13.4601031 8.82656071,13.0465176 8.82656071,12.5496016 C8.82656071,12.2647839 8.90759266,12.0239044 9.06965899,11.826956 C9.23172533,11.6300076 9.43280461,11.5315349 9.67290288,11.5315349 C9.82896675,11.5315349 9.95651704,11.5784988 10.0555576,11.672428 C10.1545981,11.7663573 10.2041176,11.8890695 10.2041176,12.0405682 C10.2041176,12.3435658 10.0270478,12.4950623 9.67290288,12.4950623 L9.57386284,12.4950623 L9.57386284,12.5586915 C9.57386284,12.8556291 9.73742733,13.1131732 10.0645612,13.3313315 C10.3916951,13.5494897 10.7773472,13.6585672 11.221529,13.6585672 C11.7197329,13.6585672 12.1278938,13.5146455 12.446024,13.2267978 C12.7641542,12.9389501 12.9232169,12.5708136 12.9232169,12.1223772 C12.9232169,11.3345835 12.4790418,10.9406925 11.5906782,10.9406925 C11.3565824,10.9406925 11.1134865,10.9679619 10.8613834,11.0225015 C10.8073612,11.0346214 10.7563411,11.0406812 10.7083215,11.0406812 C10.5642625,11.0406812 10.4922341,10.9619031 10.4922341,10.8043443 C10.4922341,10.7316249 10.5402531,10.6467868 10.6362924,10.5498276 L10.6362924,10.5498276 Z" transform="rotate(-45 11.474 11.136)"/>
  </g>
</svg>
