<svg xmlns="http://www.w3.org/2000/svg" width="32" height="32" viewBox="0 0 32 32">
  <g fill="#4A4A4A" fill-rule="evenodd" transform="translate(6 4)">
    <path stroke="#4A4A4A" stroke-width=".743" d="M8.9301875,7.13843453 L10.6055641,7.11958524 L8.29054846,0.0891243022 L6.05422791,7.17079133 L7.7991875,7.15115917 L7.7991875,10.4981089 L8.9301875,10.4981089 L8.9301875,7.13843453 Z"/>
    <polygon points="13.132 6.775 20.331 4.695 15.561 10.366 14.687 9.05 10.03 11.941 9.454 11.037 14.04 8.146"/>
    <polygon points="13.16 15.053 20.359 12.972 15.588 18.643 14.715 17.328 10.057 20.219 9.481 19.315 14.068 16.424" transform="rotate(67 14.92 16.596)"/>
    <ellipse cx="8.294" cy="12.223" rx="2.05" ry="2.001"/>
    <g transform="translate(.306 6.98)">
      <rect width="1.112" height="1.085" x="4.42" y="2.771" transform="rotate(-56 4.976 3.314)"/>
      <rect width="1.112" height="1.085" x="2.37" y="1.529" transform="rotate(-56 2.926 2.072)"/>
      <rect width="1.112" height="1.085" x=".249" y=".219" transform="rotate(-56 .805 .761)"/>
    </g>
    <g transform="matrix(-1 0 0 1 6.244 13.327)">
      <rect width="1.112" height="1.085" x="4.42" y="2.771" transform="rotate(-56 4.976 3.314)"/>
      <rect width="1.112" height="1.085" x="2.37" y="1.46" transform="rotate(-56 2.926 2.003)"/>
      <rect width="1.112" height="1.085" x=".249" y=".219" transform="rotate(-56 .805 .761)"/>
    </g>
    <g transform="translate(7.729 15.742)">
      <rect width="1.112" height="1.085" x=".009" y=".012"/>
      <rect width="1.112" height="1.085" x=".009" y="2.357"/>
      <rect width="1.112" height="1.085" x=".009" y="4.703"/>
    </g>
  </g>
</svg>
