<svg xmlns="http://www.w3.org/2000/svg" width="32" height="32" viewBox="0 0 32 32">
  <g fill="none" fill-rule="evenodd">
    <polygon stroke="#4A4A4A" stroke-width=".604" points="16.013 27.231 18.19 20.229 26.175 8.03 23.756 15.033" stroke-linecap="round" stroke-linejoin="round"/>
    <polygon stroke="#4A4A4A" stroke-width=".604" points="8.008 15.106 18.15 20.296 26.119 8.112 18.15 6.081" stroke-linecap="round" stroke-linejoin="round"/>
    <path fill="#4A4A4A" d="M0.841945019,4.49543942 L0.841945019,4.63784941 C1.0065145,4.40643202 1.2313248,4.29072506 1.51638265,4.29072506 C1.81025673,4.29072506 2.04388312,4.39308122 2.21726882,4.5977966 C2.39065453,4.80251198 2.47734608,5.079912 2.47734608,5.43000498 C2.47734608,5.80679996 2.38551181,6.10719303 2.20184051,6.3311932 C2.01816921,6.55519336 1.77205336,6.66719177 1.46348558,6.66719177 C1.20781514,6.66719177 1.00063702,6.57670299 0.841945019,6.39572272 L0.841945019,6.76509863 C0.841945019,6.87784044 0.844883716,6.95052814 0.850761198,6.98316393 C0.868393642,7.07513751 0.911004744,7.12112361 0.978595782,7.12112361 C0.999166967,7.12112361 1.03002328,7.11667334 1.07116565,7.10777267 C1.11230802,7.098872 1.14316434,7.09442173 1.16373552,7.09442173 C1.25777523,7.09442173 1.30479438,7.14337468 1.30479438,7.24128204 C1.30479438,7.33918939 1.24308175,7.38814234 1.11965463,7.38814234 C1.07557352,7.38814234 1.00945285,7.38220865 0.921290623,7.37034109 C0.856638326,7.36144042 0.759661336,7.35699015 0.630356742,7.35699015 C0.559826964,7.35699015 0.50105303,7.359957 0.454033178,7.36589078 C0.336483547,7.38072523 0.258608085,7.38814234 0.220404455,7.38814234 C0.170445862,7.38814234 0.12783476,7.3725664 0.0925698712,7.34141406 C0.0573049821,7.31026172 0.039672802,7.27391787 0.039672802,7.23238141 C0.039672802,7.13744094 0.0896306456,7.08997142 0.189547832,7.08997142 C0.207180276,7.08997142 0.235097895,7.09442169 0.273301525,7.10332236 C0.323260118,7.11518992 0.359993826,7.12112361 0.383503752,7.12112361 C0.439339827,7.12112361 0.473869513,7.09219687 0.487093846,7.03434252 C0.50031818,6.97648817 0.508399596,6.81553683 0.511338336,6.55148365 L0.515746425,4.83366315 C0.512807685,4.69718622 0.474604628,4.62894879 0.401136109,4.62894879 C0.380564923,4.62894879 0.348973934,4.63414076 0.306362193,4.64452488 C0.263750452,4.65490899 0.230690114,4.66010097 0.207180188,4.66010097 C0.0984467797,4.66010097 0.0440808911,4.61114803 0.0440808911,4.51324067 C0.0440808911,4.4183002 0.108732218,4.37083068 0.238036812,4.37083068 C0.27036296,4.37083068 0.30562732,4.3723141 0.34383095,4.37528099 C0.417299469,4.38121477 0.471665358,4.38418162 0.506930247,4.38418162 C0.533378914,4.38418162 0.571581971,4.38195648 0.621540564,4.37750615 C0.671499157,4.37305581 0.708232866,4.37083068 0.731742792,4.37083068 C0.805211311,4.37083068 0.841945019,4.41236651 0.841945019,4.49543942 L0.841945019,4.49543942 Z M0.908066356,5.03837751 C0.881617689,5.1540862 0.866924206,5.29501135 0.863985465,5.46115716 C0.863985465,5.47302472 0.862516117,5.49527606 0.859577376,5.52791185 L0.859577376,5.59021622 C0.859577376,5.78899782 0.875740208,5.93363152 0.908066356,6.02412166 C0.940392504,6.11461179 1.00430916,6.19545832 1.09981823,6.26666367 C1.19532731,6.33786902 1.31360985,6.37347116 1.45466941,6.37347116 C1.66625874,6.37347116 1.83009108,6.29559148 1.94617134,6.13982977 C2.0622516,5.98406807 2.12029086,5.76229639 2.12029086,5.4745081 C2.12029086,4.88113018 1.9116434,4.58444566 1.49434221,4.58444566 C1.35328265,4.58444566 1.22765337,4.62746492 1.11745059,4.71350472 C1.00724781,4.79954452 0.937453764,4.90783436 0.908066356,5.03837751 L0.908066356,5.03837751 Z M3.53087937,5.30094593 L3.53087937,5.87948651 C3.53087937,6.02783099 3.53234872,6.11535292 3.53528746,6.14205493 C3.54998117,6.27556496 3.58965357,6.34231898 3.65430587,6.34231898 C3.66899957,6.34231898 3.70573328,6.33490186 3.7645081,6.32006742 C3.7792018,6.31413364 3.80124203,6.31116679 3.83062943,6.31116679 C3.94230158,6.31116679 3.99813682,6.36011974 3.99813682,6.45802709 C3.99813682,6.49956355 3.97976997,6.53516569 3.94303571,6.56483459 C3.90630145,6.59450348 3.86001697,6.60933771 3.8041809,6.60933771 C3.75716105,6.60933771 3.68589765,6.60266231 3.59038858,6.5893113 C3.4948795,6.5759603 3.42361611,6.5692849 3.37659626,6.5692849 C3.300189,6.5692849 3.21496679,6.57521859 3.12092709,6.58708615 C3.0063162,6.60192059 2.92991008,6.60933771 2.89170645,6.60933771 C2.77415682,6.60933771 2.71538289,6.55890134 2.71538289,6.45802709 C2.71538289,6.36011974 2.76534073,6.31116679 2.86525792,6.31116679 C2.88876785,6.31116679 2.92329753,6.31561706 2.96884801,6.32451773 C3.0143985,6.3334184 3.04892818,6.33786866 3.07243811,6.33786866 C3.14296789,6.33786866 3.18557899,6.24292962 3.20027269,6.05304868 L3.20027269,5.66587152 L3.20027269,5.30094593 L3.20027269,4.91376877 C3.18557899,4.72685472 3.14149854,4.6333991 3.06803002,4.6333991 C3.04452009,4.6333991 3.01145975,4.63859108 2.96884801,4.64897519 C2.92623627,4.6593593 2.89464528,4.66455128 2.8740741,4.66455128 C2.76827943,4.66455128 2.71538289,4.61708176 2.71538289,4.52214129 C2.71538289,4.42126705 2.78003422,4.37083068 2.90933881,4.37083068 C2.96517488,4.37083068 3.00484729,4.3723141 3.02835722,4.37528099 C3.12239692,4.38714855 3.1826402,4.39308224 3.20908887,4.39308224 C3.2325988,4.39308224 3.26859783,4.38937368 3.31708705,4.38195646 C3.36557628,4.37453924 3.40157531,4.37083068 3.42508524,4.37083068 C3.51030872,4.37083068 3.55291982,4.42868416 3.55291982,4.54439285 C3.55291982,4.55626041 3.55145047,4.57406148 3.54851173,4.5977966 C3.54557299,4.62153172 3.54410364,4.63933279 3.54410364,4.65120035 C3.5411649,4.67493546 3.5382262,4.76690766 3.53528746,4.9271197 C3.53234872,5.04876218 3.53087937,5.17336967 3.53087937,5.30094593 L3.53087937,5.30094593 Z M3.30165874,4.13496413 C3.2340677,4.13496413 3.17602844,4.11048766 3.12753922,4.06153398 C3.07905,4.0125803 3.05480575,3.95398511 3.05480575,3.88574665 C3.05480575,3.81750819 3.07905,3.75965471 3.12753922,3.71218448 C3.17602844,3.66471424 3.2340677,3.64097948 3.30165874,3.64097948 C3.36924978,3.64097948 3.42728904,3.66471424 3.47577826,3.71218448 C3.52426748,3.75965471 3.54851173,3.81750819 3.54851173,3.88574665 C3.54851173,3.95398511 3.52426748,4.0125803 3.47577826,4.06153398 C3.42728904,4.11048766 3.36924978,4.13496413 3.30165874,4.13496413 L3.30165874,4.13496413 Z M4.8577142,4.50434004 L4.8577142,4.62894879 C5.03403864,4.40346517 5.26913438,4.29072506 5.56300845,4.29072506 C5.72170045,4.29072506 5.87157398,4.33151918 6.01263354,4.41310865 C6.1536931,4.49469811 6.24920074,4.59631256 6.29915933,4.71795503 C6.3403017,4.81882928 6.36087258,4.95085388 6.36087258,5.11403281 L6.36087258,5.95959213 C6.36087258,6.08716838 6.36234193,6.16282293 6.36528067,6.18655805 C6.37997437,6.2874323 6.41964678,6.33786866 6.48429908,6.33786866 C6.51074774,6.33786866 6.54527743,6.33416011 6.58788917,6.32674288 C6.63050091,6.31932566 6.66062255,6.3156171 6.678255,6.3156171 C6.71645863,6.3156171 6.74951896,6.32896791 6.777437,6.35566991 C6.80535504,6.38237192 6.81931385,6.41500722 6.81931385,6.45357678 C6.81931385,6.49808013 6.80168167,6.53516569 6.76641678,6.56483459 C6.73115189,6.59450348 6.68854079,6.60933771 6.63858219,6.60933771 C6.59743982,6.60933771 6.5298498,6.60340402 6.4358101,6.59153646 C6.34177039,6.5796689 6.25360949,6.57373521 6.17132475,6.57373521 C6.09491749,6.57373521 6.03173551,6.57670205 5.98177692,6.58263583 C5.83483988,6.60043717 5.75696442,6.60933771 5.74814819,6.60933771 C5.63059856,6.60933771 5.57182463,6.55741792 5.57182463,6.45357678 C5.57182463,6.3616032 5.62178247,6.3156171 5.72169966,6.3156171 C5.74520959,6.3156171 5.77165786,6.31858395 5.80104526,6.32451773 C5.85688134,6.33638529 5.8921457,6.34231898 5.9068394,6.34231898 C5.97736918,6.34231898 6.01557224,6.26073074 6.02144972,6.09755181 L6.0302659,5.87058588 L6.03467399,5.59911684 L6.03467399,5.26089312 C6.03467399,5.10364797 6.02732725,4.99535812 6.01263354,4.93602033 C5.98618487,4.82327852 5.92888029,4.73575659 5.84071807,4.67345191 C5.74373962,4.60521345 5.6335385,4.57109473 5.51011138,4.57109473 C5.27501212,4.57109473 5.10603706,4.65564981 5.00318114,4.82476252 C4.93265136,4.94047122 4.897387,5.13776642 4.897387,5.41665404 L4.897387,6.00854556 C4.897387,6.13908871 4.90620309,6.22809406 4.92383553,6.27556429 C4.94146798,6.32303453 4.97379364,6.34676929 5.02081349,6.34676929 C5.04432342,6.34676929 5.07664908,6.3408356 5.11779145,6.32896804 C5.15893382,6.31710048 5.19272884,6.31116679 5.2191775,6.31116679 C5.31027847,6.31116679 5.35582826,6.36160316 5.35582826,6.46247741 C5.35582826,6.56038476 5.29705433,6.60933771 5.1795047,6.60933771 C5.15599477,6.60933771 5.07958866,6.60043717 4.95028407,6.58263583 C4.88563177,6.57373517 4.8136337,6.5692849 4.7342877,6.5692849 C4.67257414,6.5692849 4.59029064,6.57521859 4.48743471,6.58708615 C4.35813012,6.60192059 4.2846627,6.60933771 4.26703026,6.60933771 C4.14360314,6.60933771 4.08189051,6.55890134 4.08189051,6.45802709 C4.08189051,6.36308662 4.12890966,6.3156171 4.22294936,6.3156171 C4.23764307,6.3156171 4.26482601,6.32006737 4.30449901,6.32896804 C4.34417201,6.33786871 4.38310974,6.34231898 4.42131337,6.34231898 C4.5094756,6.34231898 4.5550254,6.25628047 4.55796414,6.08420087 L4.56678031,5.59021622 L4.56678031,5.05172844 L4.55796414,4.89596752 C4.55208665,4.79509327 4.53959719,4.72611412 4.52049538,4.689028 C4.50139356,4.65194188 4.46833323,4.6333991 4.42131337,4.6333991 C4.40074219,4.6333991 4.37062055,4.63710765 4.33094755,4.64452488 C4.29127455,4.6519421 4.26115291,4.65565066 4.24058172,4.65565066 C4.13478705,4.65565066 4.08189051,4.60818114 4.08189051,4.51324067 C4.08189051,4.41533331 4.14801119,4.36638037 4.28025452,4.36638037 C4.29788697,4.36638037 4.31258045,4.36786379 4.32433541,4.37083068 L4.48743471,4.38863193 C4.53445456,4.38863193 4.57559632,4.38566508 4.61086121,4.3797313 C4.68726847,4.37379752 4.72694087,4.37083068 4.72987961,4.37083068 C4.81510309,4.37083068 4.8577142,4.41533336 4.8577142,4.50434004 L4.8577142,4.50434004 Z M7.67889122,5.46560748 L8.43267446,4.75355753 C8.45912313,4.72982241 8.47234726,4.7031208 8.47234726,4.67345191 C8.47234726,4.64378301 8.45324573,4.62894879 8.4150421,4.62894879 C8.3856547,4.62894879 8.34304359,4.63488248 8.28720752,4.64675003 C8.23137145,4.65861759 8.18876034,4.66455128 8.15937294,4.66455128 C8.05651701,4.66455128 8.00508982,4.61708176 8.00508982,4.52214129 C8.00508982,4.41830016 8.06974114,4.36638037 8.19904574,4.36638037 C8.23137189,4.36638037 8.27251364,4.36934721 8.32247223,4.37528099 C8.52524535,4.39901611 8.67952692,4.41088349 8.78532159,4.41088349 C8.8440964,4.41088349 8.89405425,4.40791664 8.93519662,4.40198286 L9.11592827,4.37528099 C9.15707064,4.36934721 9.19086565,4.36638037 9.21731432,4.36638037 C9.36131262,4.36638037 9.43331069,4.41681673 9.43331069,4.51769098 C9.43331069,4.61263145 9.38335284,4.66010097 9.28343566,4.66010097 C9.25992573,4.66010097 9.22686539,4.65713413 9.18425365,4.65120035 C9.14164191,4.64526657 9.10858157,4.64229972 9.08507165,4.64229972 C9.01160313,4.64229972 8.93519702,4.67938529 8.85585101,4.75355753 L8.39300166,5.1807875 C8.36067551,5.21045639 8.34451268,5.23419115 8.34451268,5.25199249 C8.34451268,5.26682694 8.35626747,5.28907828 8.37977739,5.31874717 L8.9440128,6.057499 C9.08801109,6.24441304 9.19086548,6.33786866 9.25257903,6.33786866 C9.26727274,6.33786866 9.29151699,6.33416011 9.3253125,6.32674288 C9.35910802,6.31932566 9.38629097,6.3156171 9.40686215,6.3156171 C9.51265682,6.3156171 9.56555336,6.36308662 9.56555336,6.45802709 C9.56555336,6.55890134 9.49796334,6.60933771 9.36278126,6.60933771 C9.30988393,6.60933771 9.23127379,6.60340402 9.1269485,6.59153646 C9.0226232,6.5796689 8.94401306,6.57373521 8.89111573,6.57373521 C8.84409588,6.57373521 8.77577118,6.5796689 8.68613958,6.59153646 C8.59650799,6.60340402 8.52965264,6.60933771 8.48557153,6.60933771 C8.37389938,6.60933771 8.31806414,6.55890134 8.31806414,6.45802709 C8.31806414,6.36308662 8.37096068,6.3156171 8.47675535,6.3156171 C8.50614276,6.3156171 8.52965233,6.31710053 8.54728478,6.32006742 C8.60018211,6.33490186 8.63397712,6.34231898 8.64867083,6.34231898 C8.67511949,6.34231898 8.68834363,6.33193502 8.68834363,6.31116679 L8.68834363,6.29781585 C8.68540489,6.29484896 8.68393554,6.29188212 8.68393554,6.28891523 L8.63985465,6.22661086 L8.58254949,6.14205493 L8.14174058,5.55016341 C8.11235317,5.51159384 8.0888436,5.49230935 8.07121115,5.49230935 C8.05945619,5.49230935 8.03741597,5.50714357 8.00508982,5.53681247 L7.67889122,5.83053308 L7.67889122,5.93289026 C7.67889122,6.07530096 7.68036057,6.15540578 7.68329931,6.17320711 C7.69799302,6.27704825 7.73913477,6.32896804 7.80672581,6.32896804 C7.83611322,6.32896804 7.86109214,6.32674291 7.88166332,6.32229257 C7.90223451,6.31784224 7.93015213,6.3156171 7.96541702,6.3156171 C8.0653342,6.3156171 8.11529205,6.36457005 8.11529205,6.46247741 C8.11529205,6.56038476 8.05945681,6.60933771 7.94778466,6.60933771 C7.89782607,6.60933771 7.82215463,6.60266231 7.72076807,6.5893113 C7.61938151,6.5759603 7.54224073,6.5692849 7.48934339,6.5692849 C7.42175235,6.5692849 7.34387689,6.57521859 7.25571467,6.58708615 C7.14404252,6.60192059 7.06910575,6.60933771 7.03090212,6.60933771 C6.91629124,6.60933771 6.85898665,6.56038476 6.85898665,6.46247741 C6.85898665,6.36457005 6.91482189,6.3156171 7.02649404,6.3156171 C7.05000396,6.3156171 7.07792158,6.31858395 7.11024773,6.32451773 C7.15726758,6.3334184 7.18959324,6.33786866 7.20722569,6.33786866 C7.27775547,6.33786866 7.31742787,6.28149861 7.3262441,6.1687568 L7.33946836,5.99519463 L7.33946836,4.1972685 C7.33359088,4.03705646 7.32330544,3.93544202 7.30861174,3.89242212 C7.29391803,3.84940222 7.26306172,3.82789259 7.21604187,3.82789259 C7.20134816,3.82789259 7.17343055,3.83085944 7.13228817,3.83679322 C7.0911458,3.85162767 7.05000405,3.85904478 7.00886168,3.85904478 C6.91188323,3.85904478 6.86339474,3.81305868 6.86339474,3.7210851 C6.86339474,3.62021085 6.92069932,3.56977449 7.03531021,3.56977449 C7.09408503,3.56977449 7.13522678,3.57125791 7.15873671,3.5742248 C7.23220523,3.58312547 7.28069372,3.58757574 7.30420365,3.58757574 C7.32771358,3.58757574 7.36224326,3.58386718 7.40779374,3.57644995 C7.45334423,3.56903273 7.48640456,3.56532417 7.50697575,3.56532417 L7.53783237,3.56532417 C7.63187208,3.56532417 7.67889122,3.6261445 7.67889122,3.74778697 L7.67889122,5.46560748 Z" transform="rotate(-56 18.054 -3.609)"/>
    <polygon stroke="#4A4A4A" stroke-width="1.42" points="8.123 15.13 6.191 21.917 16.091 27.346 23.818 15.13 26.232 8.117 18.264 6.081" stroke-linecap="round" stroke-linejoin="round"/>
  </g>
</svg>
