<svg xmlns="http://www.w3.org/2000/svg" width="32" height="32" viewBox="0 0 32 32">
  <g fill="none" fill-rule="evenodd" stroke="#4A4A4A" transform="translate(5 5)" stroke-linecap="round">
    <path stroke-width="1.5" d="M16.2169747,8.54704653 C17.0367491,8.60984536 17.8778134,8.32504022 18.5047546,7.69263395 L21.1445334,5.02961157 C22.2851555,3.87901232 22.2851555,2.01352321 21.1445334,0.862937663 C20.0039113,-0.287647885 18.1547081,-0.287647885 17.014086,0.86294965 L14.3743072,3.5259686 C13.7473627,4.15839044 13.4650191,5.00679289 13.5272764,5.83374704 L13.3006071,5.60508887 C12.6940358,4.99324975 11.7106267,4.99323263 11.1042251,5.60505464 C10.4976537,6.21687665 10.4976537,7.20882384 11.1040554,7.82066296 L14.2471977,10.9914024 C14.8537691,11.6032415 15.8371781,11.6032586 16.4437495,10.9914366 C17.0501511,10.3796317 17.0501511,9.38766739 16.4437495,8.77581115 L16.2169747,8.54704653 Z"/>
    <path stroke-width="1.5" d="M11.5210079,8.24127635 L4.44281216,15.3815205 L0.255072464,21.322638 L0.862857547,21.9356725 L6.75219112,17.711189 L13.8303933,10.5709383 L14.2471977,10.9914024 C14.8537691,11.6032415 15.8371781,11.6032586 16.4437495,10.9914366 C17.0501511,10.3796317 17.0501511,9.38766739 16.4437495,8.77581115 L13.3006071,5.60508887 C12.6940358,4.99324975 11.7106267,4.99323263 11.1042251,5.60505464 C10.4976537,6.21687665 10.4976537,7.20882384 11.1040554,7.82066296 L11.5210079,8.24127635 Z"/>
    <polygon stroke-width=".5" points=".255 21.386 4.436 15.439 8.864 15.623 6.741 17.771 .862 22" stroke-linejoin="round"/>
  </g>
</svg>
