<svg xmlns="http://www.w3.org/2000/svg" width="32" height="32" viewBox="0 0 32 32">
  <g fill="none" fill-rule="evenodd" stroke="#4A4A4A" stroke-width="1.42" transform="translate(4.26 4.97)">
    <path d="M1.43146449,20.0849267 C1.19030112,10.8316188 6.94916245,13.5811991 11.9622148,19.3578554 C17.1942615,25.3870869 23.2191515,14.1349493 10.4120287,10.9726815 C-4.37353244,7.32186123 1.49812144,-0.602237528 17.1942615,7.29946792 C22.6827503,10.0624692 23.983235,4.29605636 20.0313014,1.81368259" stroke-linecap="round" stroke-linejoin="round"/>
    <path fill="#4A4A4A" d="M2.43477941 20.4922487C2.92945642 20.9914961 2.92945642 21.8009253 2.43477941 22.3001577 1.9402514 22.7994052 1.13833826 22.7994052.643661249 22.3001577.149133241 21.8009253.149133241 20.9914961.643661249 20.4922487 1.13833826 19.9930162 1.9402514 19.9930162 2.43477941 20.4922487M19.8374419.369734825C20.3095574.846284447 20.3095574 1.61892424 19.8374419 2.09547386 19.3653264 2.5720085 18.5998461 2.5720085 18.1277306 2.09547386 17.6556151 1.61892424 17.6556151.846284447 18.1277306.369734825 18.5998461-.106814797 19.3653264-.106814797 19.8374419.369734825"/>
  </g>
</svg>
