<svg xmlns="http://www.w3.org/2000/svg" width="32" height="32" viewBox="0 0 32 32">
  <g fill="none" fill-rule="evenodd" stroke="#4A4A4A" transform="translate(5.68 5.68)">
    <path stroke-width="1.42" d="M8.5897079,19.2396979 C8.5897079,19.2396979 7.95387176,20.2571929 6.7649446,20.5958935 C5.57601745,20.9345941 4.90620013,20.6379772 4.22342532,20.2571929 C3.54065051,19.8764086 2.6880496,19.0652619 2.17073489,18.3130078 C1.65342018,17.5607536 0.54134035,15.8446484 0.255156258,13.6751269 C-0.0310278352,11.5056054 0.715373482,8.50214618 1.9121118,6.62383551 C3.10885012,4.74552485 6.15269774,1.96775391 9.23520018,1.20800537 C12.3177026,0.448256837 15.0941348,0.23331541 17.3785332,0.782456045 C19.6629316,1.33159668 20.2409871,2.42965491 20.694603,2.9850854 C21.1482189,3.54051588 21.4624199,5.10304601 21.4624199,5.80584467 C21.4624199,6.50864334 21.4418647,7.61568624 21.0446709,8.72954141 C20.6474771,9.84339659 19.5038056,10.2741903 19.5038056,10.2741903 C19.5038056,10.2741903 18.6828861,9.57139144 17.7323302,9.15046622 C16.7817742,8.729541 15.2812145,8.61699094 14.534629,8.61699129 C13.7880434,8.61699164 13.3389054,8.72954111 13.3389054,8.72954111 L13.0191801,9.15046633 L12.8408459,8.91705021 C12.8408459,8.91705021 10.84357,9.93632826 10.1523991,10.3636757 C9.46122813,10.7910232 8.65486201,11.393922 8.40532847,11.6968643 C8.15579493,11.9998066 7.9736325,12.3027954 7.9736325,12.3027954 C7.9736325,12.3027954 9.35948523,12.7843446 10.7488799,12.5529248 C12.1382746,12.3215049 13.1346465,11.916641 13.6252054,11.6968643 C14.1157644,11.4770875 14.8093509,11.0793627 14.8093509,11.0793627 L14.0830281,13.9433143 L16.0237699,15.0586109 C16.0237699,15.0586109 14.0830285,16.5244195 12.8408454,16.7858837 C11.5986622,17.0473479 9.91607157,16.8200435 9.23519988,16.5244195 C8.5543282,16.2287956 7.50111892,15.4386865 7.50111892,15.4386865 C7.50111892,15.4386865 7.07399871,15.7952299 7.07399871,16.2234731 C7.07399871,16.6517163 7.12508372,17.0841754 7.50111923,17.6133254 C7.87715474,18.1424753 8.5897079,19.2396979 8.5897079,19.2396979 Z"/>
    <path stroke-width=".622" d="M7.56716894,12.8508603 C7.56716894,12.8508603 6.88831233,12.5494708 6.35420532,12.2674863 C5.82009832,11.9855019 5.1709081,11.2984491 5.1709081,11.2984491"/>
    <path stroke-width=".604" d="M3.69441737 13.146262C3.69441737 13.146262 2.47255385 11.9468578 2.35892596 10.438025 2.24529808 8.92919213 2.81450071 7.46515737 4.84155509 5.53833786 6.86860948 3.61151835 8.77411748 2.77496788 11.2565161 2.18269531 12.6856527 1.84171927 15.1678103 1.71253138 15.9866029 2.0018343 16.8053955 2.29113723 17.4926481 2.69831252 17.4926481 2.69831252L19.2644594 10.041883C19.2644594 10.041883 18.3829757 9.207462 17.0425028 8.85118344 15.7020299 8.49490488 13.9756694 8.55655814 12.9834687 8.85118344 11.991268 9.14580874 9.58605107 10.5470636 8.60280589 11.5188915 7.61956071 12.4907193 6.59623811 15.0543965 6.75878774 15.9970435 6.92133737 16.9396905 8.60280608 19.2711904 8.60280608 19.2711904L3.69441737 13.146262zM19.5462341 10.1794378L17.5215309 2.65728451C17.5215309 2.65728451 18.2255759 2.30588514 18.7631533 2.30588514 19.3007307 2.30588514 20.067635 2.80720308 20.4094702 3.28955943 20.7513054 3.77191579 21.0822815 4.9195358 21.0822815 5.95959589 21.0822815 6.99965599 20.8856997 7.76205624 20.5584738 8.59326158 20.2312479 9.42446691 19.5462341 10.1794378 19.5462341 10.1794378z"/>
    <path stroke-width=".604" d="M3.75699666,13.1982678 L8.55119756,19.2086497 C8.55119756,19.2086497 7.36011991,19.9746538 6.72844966,20.1934329 C6.0967794,20.4122119 4.83461436,20.2228178 4.08355087,19.7094132 C3.33248739,19.1960086 2.67478907,18.3349748 2.52612127,17.6503615 C2.37745346,16.9657481 2.34767512,15.6292329 2.58982005,15.0286715 C2.83196498,14.4281101 3.26979616,13.7611277 3.41309041,13.5770561 C3.55638467,13.3929845 3.75699666,13.1982678 3.75699666,13.1982678 Z"/>
    <path stroke-width=".622" d="M14.5878046,11.3719668 L14.0408235,13.9349978 L16.1239639,14.9808794 C16.1239639,14.9808794 14.4282777,16.0487166 13.243861,16.3149551 C12.0594443,16.5811937 10.1749008,16.6370805 9.31770996,16.342455 C8.46051915,16.0478295 7.90670926,15.2220576 7.90670926,15.2220576 C7.90670926,15.2220576 5.60968658,12.5184929 5.20986624,11.3719668 C4.81004591,10.2254407 4.70844823,9.16432714 5.20986623,8.29408975 C5.71128423,7.42385236 6.83446503,5.82653207 8.21199315,5.20789619 C9.58952128,4.58926031 10.7516602,4.04846676 10.7516602,4.04846676 L10.2555038,2.75541908 L16.6175455,4.69349363 L12.9716019,8.95186857 L12.1771024,7.65150238 C12.1771024,7.65150238 10.6270614,8.34398868 10.0726917,8.72377501 C9.51832194,9.10356133 8.01731445,10.5463058 7.74651067,11.0753454 C7.47570689,11.604385 7.36610923,12.386024 7.36610923,12.386024 C7.36610923,12.386024 7.62650179,13.034821 9.12314306,13.034821 C10.6197843,13.034821 11.534853,12.7658103 12.4992906,12.386024 C13.4637282,12.0062377 14.5878046,11.3719668 14.5878046,11.3719668 Z"/>
  </g>
</svg>
