<svg xmlns="http://www.w3.org/2000/svg" width="32" height="32" viewBox="0 0 32 32">
  <g fill="#4A4A4A" fill-rule="evenodd" transform="translate(4.26 5.68)">
    <path d="M5.38428874 14.563474L7.92340193 17.1025872C8.06203805 17.2412233 8.28681162 17.2412233 8.42544774 17.1025872 8.56408386 16.963951 8.56408386 16.7391775 8.42544774 16.6005413L5.88633455 14.0614282C5.74769843 13.922792 5.52292486 13.922792 5.38428874 14.0614282 5.24565261 14.2000643 5.24565261 14.4248378 5.38428874 14.563474L5.38428874 14.563474zM15.4253273 4.52243544L17.9644405 7.06154863C18.1030766 7.20018475 18.3278501 7.20018475 18.4664863 7.06154863 18.6051224 6.92291251 18.6051224 6.69813894 18.4664863 6.55950282L15.9273731 4.02038962C15.788737 3.8817535 15.5639634 3.8817535 15.4253273 4.02038962 15.2866911 4.15902575 15.2866911 4.38379932 15.4253273 4.52243544L15.4253273 4.52243544zM16.9257123 3.02205037L19.4648255 5.56116356C19.6034616 5.69979969 19.8282352 5.69979969 19.9668713 5.56116356 20.1055075 5.42252744 20.1055075 5.19775387 19.9668713 5.05911775L17.4277581 2.52000456C17.289122 2.38136843 17.0643485 2.38136843 16.9257123 2.52000456 16.7870762 2.65864068 16.7870762 2.88341425 16.9257123 3.02205037L16.9257123 3.02205037zM18.8145163 2.00474341C19.7163544 1.82686129 20.5826204 2.68281871 20.5008801 3.75582492 20.471095 4.14681423 20.7639089 4.48791929 21.1548982 4.51770437 21.5458875 4.54748946 21.8869926 4.25467558 21.9167777 3.86368626 22.0671231 1.89009926 20.4015543.244350644 18.5397243.611585358 18.1550143.687467076 17.9046596 1.06085042 17.9805413 1.44556039 18.056423 1.83027036 18.4298063 2.08062513 18.8145163 2.00474341L18.8145163 2.00474341z"/>
    <path d="M7.72386266,16.3179474 L2.7286568,19.6945497 L6.16895966,14.7630688 L19.192153,1.77268839 C19.4694254,1.49541624 19.4694255,1.0458691 19.1921534,0.768596758 C18.9148812,0.491324414 18.4333633,0.588851644 18.156091,0.866123793 L5.05399102,13.9026579 L0.019490509,22.4673699 L8.5842687,17.4329189 L21.7182794,4.29890244 C21.9955516,4.02163013 21.9955515,3.57208299 21.7182792,3.29481081 C21.4410069,3.01753862 20.9914598,3.01753872 20.7141876,3.29481103 L7.72386266,16.3179474 Z"/>
  </g>
</svg>
