<svg xmlns="http://www.w3.org/2000/svg" width="32" height="32" viewBox="0 0 32 32">
  <g fill="none" fill-rule="evenodd" transform="translate(4.97 4.97)">
    <path fill="#B3B3B3" d="M10.7288889.955994118C10.8942227.551294118 11.2022592.171026471 11.6133936.8817842e-16 11.4530889.414097059 11.0859597.711044118 10.7288889.955994118L10.7288889.955994118zM11.68003.283164706C11.7963295.152858824 11.9490905.0632735294 12.1106524 0 11.9239446.3834 11.6039639.675335294 11.3336462.998594118 11.3455905 1.06687941 11.3581634 1.13516471 11.3707363 1.20345 11.1758561 1.39828235 11.007379 1.64135294 10.7288889 1.72342059 10.7886102 1.49789118 10.9608592 1.33688824 11.1167634 1.17463235 11.0853311 1.17275294 11.0230951 1.16836765 10.9922915 1.16586176L10.9187399 1.16022353C11.1305936.833832353 11.4178847.568208824 11.68003.283164706L11.68003.283164706zM12.2196177 2.02621471C12.4063255 1.75683235 12.6609271 1.54633824 12.9092422 1.33647059 12.9406745 1.4129 12.9721068 1.48995588 13.0035391 1.56763824 12.8507781 1.71799118 12.7061896 1.87648824 12.5804604 2.05064706 12.6986458 2.02370882 12.8162026 1.99363824 12.9337594 1.96356765 12.6829297 2.20413235 12.442787 2.52864412 12.07 2.5631 12.1504667 2.30624706 12.3648349 2.13584706 12.5339406 1.93913529 12.4276995 1.96482059 12.3227156 1.99175882 12.2196177 2.02621471L12.2196177 2.02621471z"/>
    <path fill="#B3B3B3" d="M13.2443104 1.65972941C13.4417052 1.51313529 13.6535589 1.37656471 13.901874 1.33647059 13.7484844 1.50561765 13.5655484 1.64281471 13.3775833 1.76998824 13.5366307 1.76810882 13.6963068 1.76748235 13.8553542 1.775 13.5366307 1.93600294 13.2713422 2.27993529 12.8778099 2.21478235 12.9783932 2.04688824 13.1104089 1.90217353 13.2411672 1.75745882 12.8413484 1.87210294 12.5691448 2.21352941 12.1881854 2.36889412 12.1586391 2.31689706 12.0995464 2.21352941 12.07 2.16215882 12.300713 1.99990294 12.5276542 1.82825 12.7131047 1.61462353 12.6037203 1.60647941 12.4955932 1.59958824 12.3868375 1.59332353 12.6659562 1.4555 12.9658203 1.59395 13.2443104 1.65972941L13.2443104 1.65972941zM14.2767564 1.41152186C14.5395304 1.2210748 14.8318507 1.43344833 15.0393038 1.60134244 15.2021231 1.54370715 15.3617991 1.47041009 15.5346767 1.44535127 15.7672757 1.39711303 15.8496283 1.67276009 15.9684424 1.81496891 16.1865825 1.8024395 16.4336403 1.76046597 16.6247486 1.89515715 16.6976715 1.98912774 16.7190455 2.11066303 16.7617934 2.21966891 16.9371856 2.21089833 17.1220075 2.17456303 17.2885986 2.24911303 17.518683 2.35122774 17.7713986 2.37064833 18.0190851 2.39132186 18.1290981 2.67887186 18.2460262 2.96391597 18.3547819 3.25271891 18.4918267 3.26336891 18.6420731 3.25209244 18.7564866 3.34355715 18.6150413 3.34230421 18.4729674 3.35420715 18.333408 3.33165421 18.2208804 3.21763656 18.1812757 3.05412774 18.0907507 2.92444833 17.9015283 2.88498068 17.7066481 2.91505127 17.5155398 2.91066597 17.5048528 2.79414244 17.4960517 2.67761891 17.488508 2.56109539 17.184872 2.6331395 16.8894085 2.73525421 16.592059 2.82734539 16.4229533 2.78850421 16.2965955 2.66822186 16.1815533 2.54668656 15.9502116 2.59429833 15.7207559 2.66884833 15.4824991 2.66446303 15.4278069 2.62061009 15.3988892 2.5629748 15.3970033 2.49343656 15.4076903 2.4733895 15.4284356 2.43454833 15.4384939 2.41450127 15.8339122 2.2603895 16.2758502 2.20776597 16.62412 1.94778068 16.1790387 1.97096009 15.7622465 2.19962186 15.3115075 2.1432395 15.1015398 2.12131303 14.893458 2.16391303 14.6897767 2.20839244 14.6860049 2.14261303 14.6828616 2.07620715 14.680347 2.01042774 14.9230043 1.92084244 15.1700622 1.83000421 15.3787726 1.67213362 15.0757653 1.60635421 14.7966465 1.74229833 14.5470741 1.89641009 14.1736585 2.0837248 13.8385903 2.36563656 13.4173976 2.44206597 13.414883 2.35999833 13.4123684 2.27793068 13.4111111 2.1964895 13.7870413 1.96594833 14.1849741 1.77362186 14.5539892 1.53117774 14.5935939 1.50737186 14.6363418 1.48669833 14.6784611 1.46665127 14.5433023 1.45662774 14.4094007 1.43783362 14.2767564 1.41152186L14.2767564 1.41152186z"/>
    <path fill="#4A4A4A" d="M11.6270007,1.45483513 C11.7300986,1.42037925 11.8350825,1.39344101 11.9413236,1.36775572 C11.7722179,1.56446748 11.5578497,1.73486748 11.477383,1.99172042 C11.85017,1.95726454 12.0903127,1.63275278 12.3411424,1.39218807 L12.382633,1.34520278 C12.4913887,1.35146748 12.5995158,1.35835866 12.7089002,1.36650278 C12.5234497,1.58012925 12.2965085,1.75178219 12.0657955,1.91403807 C12.0953418,1.96540866 12.1544346,2.06877631 12.1839809,2.12077337 C12.5649403,1.96540866 12.8371439,1.62398219 13.2369627,1.50933807 C13.1062043,1.65405278 12.9741887,1.79876748 12.8736054,1.9666616 C13.2671377,2.03181454 13.5324262,1.68788219 13.8511497,1.52687925 C14.0894064,1.42852337 14.3364642,1.28568807 14.6042674,1.35459984 L14.5370023,1.41098219 C14.1679872,1.65342631 13.7700543,1.84575278 13.3941241,2.07629395 C13.3953814,2.15773513 13.397896,2.23980278 13.4004106,2.32187042 C13.8216033,2.24544101 14.1566715,1.96352925 14.5300872,1.77621454 C14.7796596,1.62210278 15.0587783,1.48615866 15.3617856,1.55193807 C15.1530752,1.70980866 14.9060174,1.80064689 14.6633601,1.89023219 C14.6658747,1.9560116 14.6690179,2.02241748 14.6727898,2.08819689 C14.9361924,2.08631748 15.199595,2.08318513 15.4623689,2.10699101 C15.348584,2.24919984 15.3045788,2.4246116 15.3221809,2.60440866 C15.5880981,2.61004689 15.8515007,2.56869984 16.1105028,2.51419689 C16.2368606,2.63698513 16.3833351,2.77668807 16.5750721,2.70714984 C16.8724215,2.61505866 17.1678851,2.51294395 17.471521,2.44089984 C17.4790648,2.55742337 17.4878658,2.67394689 17.4985528,2.79047042 C17.6896611,2.79485572 17.8845413,2.76478513 18.0737637,2.80425278 C18.1642887,2.93393219 18.2038934,3.09744101 18.316421,3.21145866 C18.4559804,3.2340116 18.5980543,3.22210866 18.7394997,3.2233616 C18.8601997,3.36744984 18.7527012,3.59047337 18.909234,3.71138219 C19.0475361,3.74082631 19.1889814,3.71012925 19.3291694,3.71514101 C19.45427,3.77027042 19.57497,3.83542337 19.7013278,3.88679395 C19.6667523,4.09227631 19.674296,4.30402337 19.8138554,4.47129101 C19.9219825,4.47504984 20.0301096,4.47755572 20.1388653,4.47755572 C20.1017752,4.68115866 20.2438491,4.83714984 20.3192866,5.01193513 C20.3224299,5.10903807 20.329345,5.20864689 20.3054564,5.30387042 C20.197958,5.4492116 20.0351387,5.53754395 19.8848924,5.63088807 C19.9238684,5.79752925 19.9509002,5.96604984 19.9546721,6.13707631 C19.8880356,6.16088219 19.8226564,6.18468807 19.7566486,6.20849395 C19.4561559,6.06503219 19.161321,5.90904101 18.8815736,5.72861748 C18.6439455,5.57638513 18.3585403,5.55696454 18.0844507,5.57513219 C18.1894346,5.37152925 18.2937898,5.16729984 18.387458,4.95805866 C17.94552,4.95617925 17.5589028,5.20363513 17.1301663,5.27505278 C17.2426939,5.12094101 17.3684231,4.97058807 17.4312877,4.78765866 C17.2898424,4.80958513 17.1521689,4.84654689 17.0151241,4.88413513 C16.8623632,4.77137042 16.717146,4.60723513 16.516608,4.59533219 C16.2902955,4.64043807 16.0979299,4.77763513 15.8955059,4.87974984 C15.9904314,4.65171454 16.0809564,4.42179984 16.1733674,4.1925116 C16.0979299,4.11921454 16.0250069,4.0434116 15.9426543,3.97888513 C15.6295887,4.03526748 15.4265361,4.33910572 15.1027835,4.37732042 C15.2291413,4.17810278 15.4309366,4.01647337 15.4824856,3.7771616 C15.3058361,3.80973807 15.1474174,3.89556454 14.9927705,3.98076454 C14.9393356,3.94254984 14.8865293,3.90433513 14.8343517,3.86612042 C14.8613835,3.71702042 14.8890439,3.56792042 14.9154471,3.41882042 C14.635071,3.49023807 14.3924137,3.65186748 14.1799314,3.84419395 C14.1466132,3.82226748 14.0806054,3.77904101 14.0479158,3.75711454 C14.111409,3.59987042 14.173645,3.44199984 14.2295944,3.28162337 C13.8153168,3.42821748 13.6323809,3.86862631 13.2551934,4.06784395 C13.1401512,4.13487631 13.0181939,4.18937925 12.9000085,4.25014689 C12.8629184,4.23448513 12.7887382,4.2031616 12.7522767,4.18749984 C12.8019398,4.02712337 12.9773319,3.8304116 12.8170273,3.6813116 C12.7459903,3.58483513 12.6114601,3.56729395 12.5052189,3.60801454 C12.2833069,3.69008219 12.0991137,3.84419395 11.9149205,3.98765572 C11.8960611,3.81287042 11.9746418,3.52093513 11.7338705,3.48021454 C11.5345898,3.47269689 11.3912585,3.64560278 11.2328398,3.74207925 C11.0297872,3.91122631 10.7468965,3.90558807 10.5017247,3.85609689 C10.1635132,3.77841454 9.79826997,3.81788219 9.48268976,3.65186748 C9.34753091,3.60550866 9.19036945,3.45828807 9.05709653,3.58358219 C8.82512622,3.7558616 8.62898872,3.97136748 8.39890435,4.14677925 C8.19710903,3.90684101 7.96953924,3.56040278 7.61749757,3.57982337 C7.33963612,3.75648807 7.21139237,4.08287925 7.02279862,4.34098513 L6.98319393,4.3629116 C6.85620747,4.27207337 6.73425018,4.16995866 6.58966164,4.10793807 C6.41615539,4.21506454 6.2709382,4.38984984 6.05216945,4.39924689 C5.98490435,4.40801748 5.91763924,4.41553513 5.85037414,4.4268116 C5.59954445,4.5865616 5.44741216,4.84654689 5.30093768,5.09588219 C5.20098299,5.02383807 5.10039966,4.95367337 4.99855903,4.88413513 C4.82631007,5.13284395 4.68549341,5.40222631 4.56730799,5.68037925 C4.34728195,5.64341748 4.12662726,5.58703513 3.9022007,5.59329984 C3.78904445,5.73550866 3.73372362,5.91342631 3.6224533,6.05688807 C3.4275731,6.18844689 3.1849158,6.23480572 2.9969507,6.37764101 C2.8529908,6.54992042 2.80961424,6.77920866 2.73103351,6.98469101 C2.54369705,7.01037631 2.35573195,7.03418219 2.1671382,7.05548219 C1.98357362,7.45642337 1.5705533,7.67192925 1.3593283,8.05094395 C1.29017726,8.16809395 1.21914028,8.28461748 1.1411882,8.39675572 C0.978997575,8.60223807 0.874013721,8.84280278 0.797947575,9.0915116 C0.60558195,8.90482337 0.368582471,8.78140866 0.0976361166,8.76512042 C-0.0381513834,8.65987337 0.00836840832,8.47193219 0.00522517915,8.32408513 C-0.00860502918,7.97952631 0.193190283,7.67882042 0.389956429,7.41319689 C0.5829507,7.20583513 0.65084445,6.9189116 0.828751221,6.70152631 C0.944422054,6.63261454 1.07203716,6.58625572 1.18770799,6.51671748 C1.32475278,6.36761748 1.36687205,6.15837631 1.48568612,5.99674689 C1.57432518,5.91217337 1.69502518,5.87145278 1.79057935,5.79502337 C1.90184966,5.68413807 1.94711216,5.52000278 2.06592622,5.41600866 C2.29223872,5.32517042 2.53301007,5.24999395 2.72474705,5.09337631 C2.89448143,4.91295278 3.01643872,4.68992925 3.09753403,4.45750866 C3.1025632,4.44184689 3.11262153,4.41114984 3.1176507,4.39611454 C3.29618612,4.52328807 3.53444289,4.57027337 3.74126737,4.48883219 C3.93740487,4.37481454 4.05118976,4.16118807 4.24481268,4.0434116 C4.4000882,4.00770278 4.56479341,4.05719395 4.7169257,4.00832925 C4.9885007,3.84356748 5.1324606,3.49524984 5.46752882,3.43134984 C5.64857882,3.35304101 5.87740591,3.56165572 6.01570799,3.37434101 C6.26779497,3.12062042 6.4752481,2.82805866 6.69967466,2.55053219 C6.65315487,2.73408807 6.60349185,2.91827042 6.6110356,3.10934395 C6.82037466,2.98154395 6.97565018,2.79047042 7.14664185,2.61944395 C7.25351164,2.50918513 7.41444497,2.49477631 7.55274705,2.4459116 C7.62315539,2.57684395 7.69544966,2.70589689 7.77403039,2.83181748 C7.96199549,2.69649984 8.12355747,2.52860572 8.25934497,2.34129101 C8.35049862,2.22602042 8.4517106,2.11889395 8.55103664,2.00988807 C8.6698507,2.05624689 8.78866476,2.10323219 8.90685018,2.15147042 C8.98165903,2.09696748 9.05646789,2.04246454 9.1306481,1.98733513 C9.12121841,2.11764101 9.11807518,2.24857337 9.11744653,2.38013219 C9.41982518,2.25170572 9.57761528,1.93283219 9.87496476,1.80189984 C10.078646,1.71168807 10.2446085,1.91278513 10.4256585,1.97229984 C10.5872205,1.90589395 10.723008,1.79312925 10.8657106,1.69477337 C10.9279465,1.65029395 10.9901825,1.60393513 11.0593335,1.56885278 C11.0901372,1.57135866 11.1523731,1.57574395 11.1838054,1.57762337 C11.0279012,1.73987925 10.8556523,1.90088219 10.7959309,2.1264116 C11.074421,2.04434395 11.2428981,1.80127337 11.4377783,1.60644101 C11.4956137,1.55068513 11.5534491,1.49117042 11.6270007,1.45483513 L11.6270007,1.45483513 Z"/>
    <path fill="#B3B3B3" d="M10.3426908,1.36862396 C10.6060934,1.28843572 10.8770398,1.37676808 11.1360418,1.43252396 C10.9933392,1.53087984 10.8575517,1.64364455 10.6959898,1.71005043 C10.5149398,1.65053572 10.3489773,1.44943867 10.145296,1.53965043 C9.84794653,1.67058278 9.69015642,1.98945631 9.38777778,2.11788278 C9.38840642,1.98632396 9.39154965,1.85539161 9.40097934,1.72508572 C9.38274861,1.62171808 9.50156267,1.60542984 9.5650559,1.55781808 C9.55562622,1.68561808 9.5430533,1.81404455 9.53110903,1.94184455 C9.77502361,1.71944749 10.003222,1.44254749 10.3426908,1.36862396 L10.3426908,1.36862396 Z"/>
    <path fill="#5D5D5D" d="M15.373953,1.53192941 C15.824692,1.58831176 16.2414842,1.35965 16.6865655,1.33647059 C16.3382957,1.59645588 15.8963576,1.64907941 15.5009394,1.80319118 C15.4908811,1.82323824 15.4701358,1.86207941 15.4594488,1.88212647 C15.4613347,1.95166471 15.4902524,2.0093 15.5449446,2.05315294 C15.7832014,2.05753824 16.0126571,1.98298824 16.2439988,1.93537647 C16.359041,2.05691176 16.4853988,2.17719412 16.6545045,2.21603529 C16.4627675,2.28557353 16.3162931,2.14587059 16.1899352,2.02308235 C15.9309332,2.07758529 15.6675306,2.11893235 15.4016134,2.11329412 C15.3840113,1.93349706 15.4280165,1.75808529 15.5418014,1.61587647 C15.2790274,1.59207059 15.0156248,1.59520294 14.7522222,1.59708235 C14.9559035,1.55260294 15.1639852,1.51000294 15.373953,1.53192941 L15.373953,1.53192941 Z"/>
    <path fill="#B3B3B3" d="M7.40460972,2.77129706 C7.54856962,2.7619 7.68435712,2.70802353 7.82391649,2.67294118 C7.68812899,2.86025588 7.52656701,3.02815 7.33860191,3.16346765 C7.26002118,3.03754706 7.18772691,2.90849412 7.11731858,2.77756176 C6.97901649,2.82642647 6.81808316,2.84083529 6.71121337,2.95109412 C6.5402217,3.12212059 6.38494618,3.31319412 6.17560712,3.44099412 C6.16806337,3.24992059 6.21772639,3.06573824 6.26424618,2.88218235 C6.03981962,3.15970882 5.83236649,3.45227059 5.58027951,3.70599118 C5.44197743,3.89330588 5.21315035,3.68469118 5.03210035,3.763 C4.69703212,3.8269 4.55307222,4.17521765 4.28149722,4.33997941 C4.12936493,4.38884412 3.96465972,4.33935294 3.8093842,4.37506176 C3.61576128,4.49283824 3.50197639,4.70646471 3.30583889,4.82048235 C3.09901441,4.90192353 2.86075764,4.85493824 2.68222222,4.72776471 C2.79412118,4.62815588 2.92990868,4.56425588 3.06695347,4.50724706 C3.37813316,4.37819412 3.64970816,4.17208529 3.95774462,4.03614118 C4.39276753,3.82627353 4.89065503,3.71914706 5.25338368,3.38147941 C5.45769358,3.22486176 5.57210712,2.98993529 5.74435608,2.80512647 C5.98701337,2.73746765 6.23532847,2.82893235 6.43523785,2.96550294 C6.59931441,2.87341176 6.7596191,2.76377941 6.94632691,2.72493824 C7.10097378,2.70614412 7.25122014,2.76252647 7.40460972,2.77129706 L7.40460972,2.77129706 Z"/>
    <path fill="#5D5D5D" d="M12.6946644 4.79563235C13.0718519 4.59641471 13.2547878 4.15600588 13.6690655 4.00941176 13.613116 4.16978824 13.55088 4.32765882 13.4873868 4.48490294 13.5200764 4.50682941 13.5860842 4.55005588 13.6194024 4.57198235 13.8318847 4.37965588 14.074542 4.21802647 14.3549181 4.14660882 14.3285149 4.29570882 14.3008545 4.44480882 14.2738227 4.59390882 14.3260003 4.63212353 14.3788066 4.67033824 14.4322415 4.70855294 14.5868884 4.62335294 14.7453071 4.53752647 14.9219566 4.50495 14.8704076 4.74426176 14.6686123 4.90589118 14.5422545 5.10510882 14.8660071 5.06689412 15.0690597 4.76305588 15.3821253 4.70667353 15.464478 4.7712 15.5374009 4.84700294 15.6128384 4.9203 15.5204274 5.14958824 15.4299024 5.37950294 15.3349769 5.60753824 15.5374009 5.50542353 15.7297665 5.36822647 15.956079 5.32312059 16.156617 5.33502353 16.3018342 5.49915882 16.4545951 5.61192353 16.5916399 5.57433529 16.7293134 5.53737353 16.8707587 5.51544706 16.8078941 5.69837647 16.6821649 5.84872941 16.5696373 6.00284118 16.9983738 5.93142353 17.384991 5.68396765 17.826929 5.68584706 17.7332608 5.89508824 17.6289056 6.09931765 17.5239217 6.30292059 17.7980113 6.28475294 18.0834165 6.30417353 18.3210446 6.45640588 18.600792 6.63682941 18.8956269 6.79282059 19.1961196 6.93628235 19.2621274 6.91247647 19.3275066 6.88867059 19.3941431 6.86486471 19.266528 6.99892941 19.1407988 7.1355 19.0244993 7.27958824 18.9484332 7.37606471 18.8560222 7.45938529 18.7560675 7.53080294 18.3713363 7.80582353 18.0306102 8.13597353 17.6553087 8.42352353 17.383105 8.63088529 17.1272462 8.85892059 16.8927613 9.10762941 17.1285035 9.03809118 17.3604738 8.95351765 17.5849003 8.85140294 18.0909602 8.61772941 18.6473118 8.53190294 19.1772602 8.36839412 19.4821535 8.27254412 19.8071634 8.22681176 20.1214863 8.30950588 20.1453748 8.37465882 20.169892 8.43918529 20.1944092 8.50433824 19.8065347 8.91342353 19.2816155 9.13644706 18.8252186 9.45344118 19.2608701 9.3933 19.7204102 9.21663529 20.1548045 9.36824118 20.4829576 9.58437353 20.3163665 10.0629971 20.1019983 10.3073206 20.0724519 10.3380176 20.0133592 10.3981588 19.9831842 10.4288559 19.7606436 10.6305794 19.516729 10.8078706 19.2822441 10.9951853 19.3633394 11.0634706 19.4438061 11.1330088 19.5280446 11.1981618 19.1225681 11.0390382 18.723378 10.8579882 18.2958988 10.7646441 18.139366 10.7414647 18.0588993 10.5973765 17.9664884 10.4877441 18.3424186 10.6481206 18.7812134 10.9319118 19.1898332 10.7051294 19.6041108 10.4777206 19.9762691 10.0993324 20.0504493 9.61569706 19.6053681 9.55242353 19.16343 9.66205588 18.7309217 9.75477353 18.3524769 9.83746765 17.9859764 9.96401471 17.6289056 10.1118618 17.6540514 10.1425588 17.7037144 10.2045794 17.7288602 10.2352765 17.5830144 10.1331618 17.4359113 10.0310471 17.2787498 9.9471 17.6194759 9.71843824 17.9979207 9.55743529 18.3681931 9.38515588 18.8377915 9.15398824 19.346366 8.97419118 19.7298399 8.60394706 19.7996196 8.54756471 19.8675134 8.48805 19.9354071 8.42916176 19.6468587 8.4348 19.3614535 8.49055588 19.094279 8.60018824 18.2525222 8.80629706 17.4553993 9.14835 16.660791 9.48601765 16.7588597 9.66017647 16.8871035 9.82619118 17.0895274 9.8832 16.9637983 9.84498529 16.8361832 9.80301176 16.7362285 9.71530588 16.5155738 9.53237647 16.2509139 9.41647941 16.0069993 9.26988529 16.2861181 9.27427059 16.4866561 9.06252353 16.6840509 8.89713529 17.1655936 8.4774 17.6986852 8.11968529 18.1601113 7.67739706 17.606903 7.96682647 17.1285035 8.37528529 16.579067 8.67035294 16.3206936 8.81945294 16.0101425 8.91843529 15.8448087 9.18468529 15.5858066 9.06690882 15.3997274 8.83010294 15.1262665 8.74051765 14.8163441 8.63213824 14.4995066 8.54380588 14.1870696 8.44357059 13.8595451 8.34333529 13.5697394 8.14850294 13.2378144 8.05954412 12.748728 7.9236 12.2382675 7.88663824 11.7498097 7.74693529 12.0201274 7.76259706 12.2879306 7.81334118 12.5588769 7.81835294 12.787704 7.73879118 12.9467514 7.54270588 13.1183717 7.38045 13.4377238 7.08037059 13.6860389 6.71639118 13.9852743 6.39814412 14.3536608 6.00847941 14.6931295 5.59312941 15.0124816 5.16274412 14.5453977 5.46094412 14.1983852 5.89822059 13.7771925 6.25029706 13.5948852 6.40378235 13.4245222 6.56979706 13.2529019 6.73393235 12.9360644 6.95820882 12.6827201 7.25578235 12.3727977 7.48757647 12.2483259 7.59720882 12.0767056 7.58405294 11.9226873 7.58843824 12.0345863 7.34223529 12.2263233 7.14802941 12.4274899 6.97199118 12.8939451 6.54223235 13.3509707 6.09931765 13.7551899 5.60941765 13.3534852 5.95898824 12.938579 6.29352353 12.5601342 6.66752647 12.3960576 6.81850588 12.2219227 7.02586765 11.9710931 6.96071471 12.2715858 6.59235 12.6707759 6.31795588 12.9574384 5.93706176 13.1730639 5.6445 13.4716707 5.39641765 13.5709967 5.03431765 13.2573024 5.13455294 13.0705946 5.42022353 12.8687993 5.65890882 12.595967 6.01286471 12.2866733 6.33737647 12.0371009 6.70887353 11.9308597 6.86737059 11.7969582 7.00456765 11.6473405 7.12234412 11.600192 6.88115294 11.7894144 6.70636765 11.9170295 6.52782353 12.2816441 6.05546471 12.647516 5.57182941 12.8788576 5.01802941 12.636829 5.25107647 12.4652087 5.54113235 12.2608988 5.80550294 11.9566342 6.20957647 11.621566 6.59047059 11.3072431 6.98765294 11.1532248 7.18436471 10.9696602 7.36729412 10.7288889 7.45374706 10.7754087 7.31968235 10.8301009 7.18875 10.8935941 7.06157647 11.0803019 7.04967353 11.2217472 6.93878824 11.3034712 6.77590588 11.7667832 6.23087647 12.2212941 5.67707647 12.6217415 5.08255588 12.5117285 5.05624412 12.4023441 5.03055882 12.2929597 5.00424706L12.3394795 4.97793529C12.4576649 4.91716765 12.5796222 4.86266471 12.6946644 4.79563235L12.6946644 4.79563235zM8.73985347 4.11301671C8.87312639 3.9877226 9.03028785 4.13494318 9.1654467 4.18130201 9.48102691 4.34731671 9.84627014 4.30784907 10.1844816 4.38553142 10.4296535 4.4350226 10.7125441 4.44066083 10.9155967 4.27151377 11.0740155 4.1750373 11.2173467 4.00213142 11.4166274 4.00964907 11.6573988 4.05036966 11.5788181 4.34230495 11.5976774 4.51709024 11.7818707 4.37362848 11.9660639 4.21951671 12.1879759 4.13744907 12.294217 4.09672848 12.4287472 4.11426966 12.4997842 4.21074613 12.6600889 4.35984613 12.4846967 4.55655789 12.4350337 4.71693436 12.1823181 4.66180495 11.953491 4.84661377 11.7020326 4.80902554 11.3455905 4.7394873 10.9520582 4.79649613 10.6490509 4.55530495 10.1781951 4.39994024 9.66459149 4.43189024 9.17236181 4.42687848 8.88067014 4.49140495 8.64492795 4.71630789 8.34129201 4.74449907 8.07034566 4.7607873 7.79751337 4.77206377 7.52593837 4.75577554 7.24681962 4.72946377 6.9777592 4.82781966 6.70555556 4.87041966 6.89414931 4.61231377 7.02239306 4.2859226 7.30025451 4.10925789 7.65229618 4.0898373 7.87986597 4.43627554 8.08166128 4.67621377 8.31174566 4.50080201 8.50788316 4.28529613 8.73985347 4.11301671L8.73985347 4.11301671z"/>
    <path fill="#FEFEFE" d="M8.51037697,4.32703235 C8.81401291,4.29884118 9.0497551,4.07393824 9.34144677,4.00941176 C9.83367645,4.01442353 10.3472801,3.98247353 10.8181358,4.13783824 C10.9363212,4.24496471 11.0394192,4.40847353 11.2198405,4.39845 C11.6209166,4.41285882 12.0289077,4.55005588 12.4174108,4.38278824 C11.9320962,5.03745 11.2990499,5.61442941 11.0299895,6.40252941 C11.4379806,6.18514412 11.5417072,5.69023235 11.8459718,5.36947941 C11.6812666,5.73533824 11.476328,6.08240294 11.305965,6.44575588 C11.2424718,6.57292941 11.1877796,6.70386176 11.1412598,6.83792647 C11.3820311,6.75147353 11.5655957,6.56854412 11.719614,6.37183235 C12.0339369,5.97465 12.3690051,5.59375588 12.6732697,5.18968235 C12.8775796,4.92531176 13.0491999,4.63525588 13.2912285,4.40220882 C13.0598869,4.95600882 12.694015,5.43964412 12.3294004,5.91200294 C12.2017853,6.09054706 12.0125629,6.26533235 12.0597113,6.50652353 C12.2093291,6.38874706 12.3432306,6.25155 12.4494718,6.09305294 C12.6990442,5.72155588 13.0083379,5.39704412 13.2811702,5.04308824 C13.4829655,4.80440294 13.6696733,4.51873235 13.9833676,4.41849706 C13.8840416,4.78059706 13.5854348,5.02867941 13.3698093,5.32124118 C13.0831468,5.70213529 12.6839567,5.97652941 12.383464,6.34489412 C12.6342936,6.41004706 12.8084285,6.20268529 12.9725051,6.05170588 C13.3509499,5.67770294 13.7658561,5.34316765 14.1675608,4.99359706 C13.7633416,5.48349706 13.306316,5.92641176 12.8398608,6.35617059 C12.6386942,6.53220882 12.4469572,6.72641471 12.3350582,6.97261765 C12.4890765,6.96823235 12.6606968,6.98138824 12.7851686,6.87175588 C13.095091,6.63996176 13.3484353,6.34238824 13.6652728,6.11811176 C13.7564265,6.08052353 13.8500947,6.04794706 13.9431343,6.01474412 C13.780315,6.19642059 13.5848061,6.35178529 13.4515332,6.55664118 C13.4666207,6.62993824 13.5018249,6.69634412 13.5307426,6.76462941 C13.3591223,6.92688529 13.2000749,7.12297059 12.9712478,7.20253235 C12.7003015,7.19752059 12.4324983,7.14677647 12.1621806,7.13111471 C11.7133275,6.99329118 11.2418431,7.05781765 10.7848176,6.98201471 C10.1134238,6.92375294 9.44014416,6.84982941 8.76434989,6.88616471 C8.38967697,6.91811471 8.00494572,7.03777059 7.63278739,6.92751176 C7.40898947,6.86925 7.16947541,6.8799 6.9456775,6.93064412 C6.55906031,7.03275882 6.16615666,7.12359706 5.80405666,7.29712941 C5.40486656,7.45562647 5.04402385,7.71498529 4.6140301,7.79078824 C4.51910458,7.79454706 4.42417906,7.7958 4.32925354,7.79830588 C4.36005718,7.73691176 4.39023218,7.67614412 4.42040718,7.61537647 C4.63540406,7.2846 4.79130822,6.92312647 4.92772437,6.55476176 C5.06162593,6.17762647 5.41115302,5.90699118 5.47087437,5.50041176 C5.18672645,5.71905 4.9981327,6.02915294 4.83845666,6.34364118 C4.54047854,6.64810588 4.28587697,6.99203824 4.09351135,7.37230588 C4.09916916,7.03401176 4.08533895,6.69446471 4.02876083,6.36055588 C3.99858583,6.26909118 4.10168375,6.21458824 4.15449,6.16008529 C4.54739364,5.86877647 4.98807437,5.65076471 5.4136676,5.41207941 C5.56517125,5.31998824 5.73176239,5.22915 5.82480197,5.07315882 C5.90023947,4.88521765 5.78079677,4.70228824 5.70221604,4.53877941 C5.76948114,4.52750294 5.83674625,4.51998529 5.90401135,4.51121471 C6.17684364,4.75491176 6.56157489,4.66783235 6.83503583,4.47487941 L6.87464052,4.45295294 C7.14684416,4.41035294 7.41590458,4.31199706 7.69502333,4.33830882 C7.96659833,4.35459706 8.23943062,4.34332059 8.51037697,4.32703235 L8.51037697,4.32703235 Z"/>
    <path fill="#B3B3B3" d="M10.7288889,4.00941176 C11.0318962,4.25060294 11.4254285,4.19359412 11.7818707,4.26313235 C12.033329,4.30072059 12.2621561,4.11591176 12.5148717,4.17104118 C12.5513332,4.18670294 12.6255134,4.21802647 12.6626035,4.23368824 L12.6160837,4.26 C12.3105618,4.52437059 12.1672306,4.91215588 11.9522337,5.24293235 C11.7944436,5.48287059 11.6611707,5.74348235 11.6265951,6.03165882 C11.5448712,6.19454118 11.4034259,6.30542647 11.2167181,6.31732941 C11.3870811,5.95397647 11.5920196,5.60691176 11.7567248,5.24105294 C11.4524602,5.56180588 11.3487337,6.05671765 10.9407425,6.27410294 C11.209803,5.48600294 11.8428493,4.90902353 12.3281639,4.25436176 C11.9396608,4.42162941 11.5316696,4.28443235 11.1305936,4.27002353 C10.9501722,4.28004706 10.8470743,4.11653824 10.7288889,4.00941176 L10.7288889,4.00941176 Z"/>
    <path fill="#5D5D5D"/>
    <path fill="#B3B3B3" d="M13.4111111,4.57511471 C13.5230101,4.29257647 13.7568663,4.08458824 14.0523299,4.00941176 C13.8800809,4.23932647 13.6644554,4.43603824 13.4111111,4.57511471 L13.4111111,4.57511471 Z"/>
    <path fill="#FEFEFE" d="M12.3956385,4.99234412 C12.6106354,4.66156765 12.7539667,4.27378235 13.0594885,4.00941176 C13.1688729,4.03572353 13.2782573,4.06140882 13.3882703,4.08772059 C12.9878229,4.68224118 12.533312,5.23604118 12.07,5.78107059 C12.1045755,5.49289412 12.2378484,5.23228235 12.3956385,4.99234412 L12.3956385,4.99234412 Z"/>
    <path fill="#B3B3B3" d="M15.5091118 4.95788824C15.7926311 4.63275 16.0516332 4.28004706 16.3911019 4.00941176 16.2521712 4.34018824 16.2333118 4.76681471 15.906416 4.97918824 15.5040826 5.26611176 15.1853592 5.65890882 14.7522222 5.90385882 14.9546462 5.55115588 15.2570248 5.27362941 15.5091118 4.95788824L15.5091118 4.95788824zM2.59714549 4.49492647C2.9416434 4.32891176 3.25596632 4.08709412 3.63692569 4.00941176 3.55583038 4.24183235 3.43387309 4.46485588 3.26413872 4.64527941 3.07240174 4.80189706 2.83163038 4.87707353 2.60531788 4.96791176 2.48650382 5.07190588 2.44124132 5.23604118 2.32997101 5.34692647 2.23441684 5.42335588 2.11371684 5.46407647 2.02507778 5.54865 1.90626372 5.71027941 1.86414444 5.91952059 1.72709965 6.06862059 1.61142882 6.13815882 1.48381372 6.18451765 1.36814288 6.25342941 1.37945851 6.04481471 1.34173976 5.83870588 1.34111111 5.63071765 1.5014158 5.32061471 1.87105955 5.22601765 2.14389184 5.04183529 2.37334757 4.92719118 2.35763142 4.59704118 2.59714549 4.49492647L2.59714549 4.49492647z"/>
    <path fill="#5D5D5D" d="M5.31205729,4.67848235 C5.45853177,4.42914706 5.61066406,4.16916176 5.86149375,4.00941176 C5.94007448,4.17292059 6.05951719,4.35585 5.98407969,4.54379118 C5.8910401,4.69978235 5.72444896,4.79062059 5.57294531,4.88271176 C5.14735208,5.12139706 4.70667135,5.33940882 4.31376771,5.63071765 C4.26096146,5.68522059 4.15786354,5.73972353 4.18803854,5.83118824 C4.24461667,6.16509706 4.25844688,6.50464412 4.25278906,6.84293824 C4.44515469,6.46267059 4.69975625,6.11873824 4.99773438,5.81427353 C5.0021349,6.27535588 4.72427344,6.66376765 4.5796849,7.08600882 C4.5495099,7.14677647 4.5193349,7.20754412 4.48853125,7.26893824 C4.58345677,7.26643235 4.67838229,7.26517941 4.77330781,7.26142059 C4.54259479,7.34599412 4.39109115,7.53957353 4.28044948,7.74944118 C4.20312604,7.73753824 4.1258026,7.72500882 4.04847917,7.71247941 C4.02207604,7.20253235 3.91017708,6.70072941 3.90514792,6.18890294 C3.72158333,6.65311765 3.67632083,7.1568 3.64551719,7.65045882 C3.62540052,7.75445294 3.7033526,7.82962941 3.75993073,7.90668529 C3.56065,8.11968529 3.28593177,8.22555882 3.05018958,8.38718824 C2.97852396,8.54255294 2.98795365,8.72047059 2.96720833,8.88711176 C2.94143385,8.88585882 2.8898849,8.8821 2.86411042,8.88022059 C2.80187448,8.79564706 2.74026719,8.7117 2.67803125,8.62775294 C2.61076615,8.66408824 2.5428724,8.70105 2.47560729,8.73801176 C2.50829687,9.01177941 2.56990417,9.30872647 2.39136875,9.54929118 C2.29832917,9.37325294 2.2178625,9.19095 2.13613854,9.00927353 C2.08458958,9.08069118 2.02549687,9.14835 1.98903542,9.22979118 C2.00726615,9.54553235 2.13048073,9.84247941 2.18957344,10.1513294 C2.11979375,10.1713765 2.05064271,10.1914235 1.98086302,10.2108441 C1.90416823,10.0655029 1.82747344,9.91953529 1.74952135,9.77482059 C1.73003333,10.0523471 1.74637813,10.3424029 1.63196458,10.6036412 C1.56344219,10.7627647 1.52949531,10.9325382 1.50246354,11.1029382 C1.3949651,11.0490618 1.28809531,10.9933059 1.18185417,10.93755 C1.1013875,11.0334 1.02029219,11.1286235 0.935425,11.2207147 C0.836098958,10.9575971 0.680194792,10.7220441 0.522404688,10.4908765 C0.4677125,10.55415 0.412391667,10.6167971 0.355813542,10.6788176 C0.330667708,10.3092 0.413648958,9.91452353 0.221911979,9.57497647 C0.14333125,9.75101471 0.0685223958,9.92893235 0,10.1087294 C0.0465197917,9.84811765 0.1207,9.59001176 0.108755729,9.32250882 C0.0898963542,9.21350294 0.189222396,9.15022941 0.259002083,9.08820882 C0.360214063,9.19533529 0.462683333,9.30183529 0.567038542,9.40645588 C0.518004167,9.22039412 0.46016875,9.03809118 0.403590625,8.85516176 C0.380330729,8.73049412 0.462054687,8.61334412 0.492229687,8.49494118 C0.358328125,8.46236471 0.222540625,8.42790882 0.108755729,8.34772059 C0.379702083,8.36400882 0.616701563,8.48742353 0.809067188,8.67411176 C0.885133333,8.42540294 0.990117188,8.18483824 1.15230781,7.97935588 C1.27300781,8.15539412 1.40628073,8.32328824 1.5458401,8.48491765 C1.51817969,8.19486176 1.47983229,7.90543235 1.48863333,7.61349706 C1.45908698,7.61850882 1.39999427,7.62853235 1.37044792,7.63354412 C1.58167292,7.25452941 1.99469323,7.03902353 2.17825781,6.63808235 C2.36685156,6.61678235 2.55481667,6.59297647 2.74215313,6.56729118 C2.82073385,6.36180882 2.86411042,6.13252059 3.00807031,5.96024118 C3.19603542,5.81740588 3.43869271,5.77104706 3.63357292,5.63948824 C3.74484323,5.49602647 3.80016406,5.31810882 3.91332031,5.1759 C4.13774687,5.16963529 4.35840156,5.22601765 4.5784276,5.26297941 C4.69661302,4.98482647 4.83742969,4.71544412 5.00967865,4.46673529 C5.11151927,4.53627353 5.2121026,4.60643824 5.31205729,4.67848235 L5.31205729,4.67848235 Z"/>
    <path fill="#B3B3B3" d="M14.2113773 4.25874706C14.3245335 4.14347647 14.4672361 4.06454118 14.6181111 4.00941176 14.5407877 4.14535588 14.4483767 4.27315588 14.3339632 4.38090882 14.0429002 4.65843529 13.7587523 4.95037059 13.4111111 5.15961176 13.6355377 4.82445 13.9215715 4.53752647 14.2113773 4.25874706L14.2113773 4.25874706zM14.1491413 5.09696471C14.570334 4.74488824 14.9173465 4.30761176 15.3844304 4.00941176 15.0650783 4.43979706 14.7256095 4.85514706 14.3572231 5.24481176 14.0579877 5.56305882 13.8096726 5.92703824 13.4903205 6.22711765 13.4614028 6.15883235 13.4261986 6.09242647 13.4111111 6.01912941 13.544384 5.81427353 13.7398929 5.65890882 13.9027122 5.47723235 13.8096726 5.51043529 13.7160043 5.54301176 13.6248507 5.5806 13.796471 5.41646471 13.966834 5.25045 14.1491413 5.09696471L14.1491413 5.09696471zM20.850925 5.34588235C20.9898557 5.39662647 21.1256432 5.46115294 21.2721177 5.48934412 21.4770563 5.50312647 21.6794802 5.45238235 21.8837901 5.44110588 21.836013 5.54008824 21.7894932 5.64721471 21.6914245 5.70672941 21.3708151 5.93288529 21.0332323 6.13335588 20.7138802 6.35951176 20.6044958 6.42779706 20.5479177 6.54557353 20.4919682 6.65645882 20.3662391 6.73163529 20.2411385 6.80806471 20.1166667 6.88574706 20.2329661 6.74165882 20.3586953 6.60508824 20.4863104 6.47102353 20.4825385 6.29999706 20.4555068 6.13147647 20.4165307 5.96483529 20.5667771 5.87149118 20.7295964 5.78315882 20.8370948 5.63781765 20.8609833 5.54259412 20.8540682 5.44298529 20.850925 5.34588235L20.850925 5.34588235zM15.6907905 5.59333824C15.8045753 5.43672059 15.9912832 5.38033824 16.1729618 5.34588235 16.1723332 5.38785588 16.1717045 5.47180294 16.1710759 5.51377647 15.7071352 5.88715294 15.2928576 6.3332 14.7522222 6.60195588 15.0432852 6.24549412 15.402242 5.95230588 15.6907905 5.59333824L15.6907905 5.59333824zM16.7563451 5.49999412C16.9103634 5.36968824 17.1184451 5.35966471 17.3101821 5.34588235 17.1536493 5.609 16.891504 5.77501471 16.6614196 5.96608824 16.0321451 6.46663824 15.4695071 7.06805 14.7522222 7.44706471 14.9571608 7.11628824 15.272741 6.88073529 15.5493451 6.61448529 15.9573363 6.24925294 16.3206936 5.83452941 16.7563451 5.49999412L16.7563451 5.49999412zM4.44138281 6.18911176C4.60105885 5.87462353 4.7896526 5.56452059 5.07380052 5.34588235 5.01407917 5.75246176 4.66455208 6.02309706 4.53065052 6.40023235 4.39423438 6.76859706 4.23833021 7.13007059 4.02333333 7.46084706 4.16792188 7.03860588 4.44578333 6.65019412 4.44138281 6.18911176L4.44138281 6.18911176zM14.1013642 6.19788235C14.45152 5.92286176 14.7450976 5.57892941 15.1279429 5.34588235 14.6124533 5.88339412 14.1309106 6.45410882 13.5651293 6.94150294 13.5104372 6.88637353 13.4588882 6.82873824 13.4111111 6.76859706 13.6405668 6.57752353 13.8681366 6.38457059 14.1013642 6.19788235L14.1013642 6.19788235z"/>
    <path fill="#B3B3B3" d="M17.163079 5.34588235C16.8625863 5.71487353 16.4753405 5.99678529 16.1346144 6.32505588 15.8586389 6.59193235 15.5795201 6.85818235 15.333091 7.15262353 15.2589108 7.23531765 15.1872451 7.32427647 15.0891764 7.37940588 14.9728769 7.36875588 14.8628639 7.32678235 14.7522222 7.29232647 15.0627733 7.00352353 15.4261306 6.7805 15.7404535 6.49608235 16.2069087 6.10453824 16.641303 5.66600882 17.163079 5.34588235zM19.2964934 6.50426729C20.1011601 6.11334965 20.90897 5.72493788 21.7337533 5.37724671 21.9720101 5.26322906 22.2750174 5.477482 22.2448424 5.73934671 22.2234684 5.97302024 21.9996705 6.105832 21.8167345 6.21295847 21.3609663 6.45853494 20.9146278 6.72165259 20.4626314 6.97474671 20.5292679 7.02674376 20.5959043 7.07874082 20.6631694 7.13136435 20.3488465 7.04867024 20.0238366 7.09440259 19.7189434 7.19025259 19.188995 7.35376141 18.6326434 7.43958788 18.1265835 7.67326141 17.9021569 7.77537612 17.6701866 7.85994965 17.4344444 7.92948788 17.6689293 7.68077906 17.9247882 7.45274376 18.1969918 7.245382 18.5722934 6.957832 18.9130194 6.627682 19.2977507 6.35266141 19.297122 6.39024965 19.2964934 6.46667906 19.2964934 6.50426729L19.2964934 6.50426729zM17.7058099 6.89661035C17.7963349 6.82206035 17.8818307 6.7293427 17.9975016 6.69488682 18.1785516 6.66794858 18.3614875 6.69112799 18.5431661 6.70240447 18.5041901 6.84273388 18.4639568 6.99747211 18.3325698 7.08141917 17.9798995 7.34015152 17.6077411 7.5706927 17.2437552 7.81251035 16.867825 8.05119564 16.5101255 8.32621623 16.0933333 8.49160447 16.2002031 8.32809564 16.3221604 8.17461035 16.4629771 8.0392927 16.867825 7.64774858 17.2927896 7.27875741 17.7058099 6.89661035L17.7058099 6.89661035z"/>
    <path fill="#B3B3B3" d="M17.0821932,7.06454492 C17.2412406,6.93048021 17.3845719,6.76634492 17.5807094,6.68490374 C17.7429,6.67174786 17.902576,6.71246845 18.0622521,6.73878021 C17.4210333,7.16791257 16.7974167,7.63651257 16.0933333,7.96102433 C16.363651,7.60080374 16.7603266,7.37214198 17.0821932,7.06454492 L17.0821932,7.06454492 Z"/>
    <path fill="#B3B3B3"/>
    <path fill="#FEFEFE"/>
    <path fill="#FEFEFE" d="M13.4111111,7.26183824 C13.72732,7.10396765 14.0190116,6.90412353 14.2937299,6.68235294 C14.0479293,6.88407647 13.8253887,7.11336471 13.6594262,7.38587941 C13.576445,7.34453235 13.4934637,7.30318529 13.4111111,7.26183824 L13.4111111,7.26183824 Z"/>
    <path fill="#4A4A4A" d="M5.56663749,7.10296039 C5.92873749,6.92942804 6.32164114,6.8385898 6.70825832,6.73647509 C6.93205624,6.68573098 7.1715703,6.67508098 7.39536822,6.73334274 C7.76752655,6.84360157 8.1522578,6.72394568 8.52693072,6.69199568 C9.20272499,6.65566039 9.87600468,6.72958392 10.5473984,6.78784568 C11.0044239,6.86364862 11.4759083,6.79912215 11.9247614,6.93694568 C12.4132193,7.07664862 12.9236797,7.11361039 13.4127661,7.24955451 C13.7446911,7.33851333 14.0344969,7.53334568 14.3620213,7.63358098 C14.6744583,7.73381627 14.9912958,7.82214862 15.3012182,7.93052804 C15.5746792,8.02011333 15.7607583,8.25691921 16.0197604,8.37469568 C16.0606224,8.39599568 16.1410891,8.43859568 16.181951,8.45989568 C16.4258656,8.6064898 16.6905255,8.72238686 16.9111802,8.90531627 C17.0111349,8.99302215 17.13875,9.03499568 17.2644792,9.07321039 C17.3279724,9.09325745 17.390837,9.11455745 17.4537016,9.13711039 C17.610863,9.22105745 17.7579661,9.32317215 17.903812,9.42528686 C17.9849073,9.50735451 18.0647453,9.59130157 18.1414401,9.67775451 C18.233851,9.78738686 18.3143177,9.93147509 18.4708505,9.95465451 C18.8983297,10.0479986 19.2975198,10.2290486 19.7029963,10.3881722 C20.1405338,10.6224722 20.6553948,10.6149545 21.111163,10.7997633 C21.2570088,10.9413457 21.4701198,11.114878 21.3902818,11.3447927 C21.3550776,11.5039163 21.1803141,11.5559133 21.0376114,11.5615516 C20.649737,11.5841045 20.255576,11.531481 19.8928474,11.3911516 C19.8689588,11.382381 19.8199245,11.3642133 19.7960359,11.3554427 C19.5464635,11.253328 19.2792891,11.2063427 19.0259448,11.1155045 C18.8637542,11.0578692 18.8034042,10.8780722 18.7097359,10.7490192 C18.4991396,10.7051663 18.2929437,10.6387604 18.1030927,10.5360192 C17.8642073,10.3850398 17.5781734,10.6393869 17.3386594,10.4896604 C17.0765141,10.3449457 16.8388859,10.1620163 16.5817698,10.0097839 C16.4409531,10.3092369 16.2435583,10.5811251 16.1423463,10.8987457 C15.9864422,11.2702427 15.6909786,11.5628045 15.4646661,11.8929545 C15.2370963,12.1059545 15.0309005,12.3402545 14.7970443,12.5463633 C14.3563635,12.9234986 13.9691177,13.3639074 13.4850604,13.6890457 C13.3429864,13.789281 13.164451,13.7930398 12.9978599,13.8118339 C12.9167646,13.9784751 12.813038,14.1332133 12.6810224,14.2641457 C12.4547099,14.416378 12.1906786,14.5034574 11.9744245,14.671978 C11.7468547,14.8448839 11.46585,14.9200604 11.2213068,15.0610163 C11.0987208,15.1280486 11.013225,15.2433192 10.8944109,15.3153633 C10.7542229,15.3554574 10.6108917,15.3836486 10.4738469,15.4331398 C10.2550781,15.5007986 10.0312802,15.5477839 9.80685364,15.5903839 C9.6911828,15.4744869 9.61260207,15.2414398 9.41332135,15.2740163 C9.13734582,15.333531 8.96258228,15.5922633 8.70106562,15.6818486 C8.39742968,15.7069074 8.09819426,15.619828 7.80084478,15.5728427 C7.79770155,15.4682222 7.79455832,15.3636016 7.79204374,15.258981 C7.58773385,15.4087074 7.35890676,15.5258574 7.10116197,15.5377604 C7.10556249,15.3523251 7.11310624,15.1681427 7.11876405,14.9833339 C6.90376718,14.9739369 6.6900276,14.9538898 6.47565937,14.9438663 C6.2977526,14.9307104 6.15002082,15.0453545 6.00103176,15.1242898 C5.95954114,15.0948457 5.91805051,15.0654016 5.87655989,15.0359574 C5.9947453,14.8298486 6.08967082,14.6105839 6.14624895,14.3800427 C5.93942447,14.4063545 5.73700051,14.4690016 5.52766145,14.4702545 C4.93736301,14.4107398 4.42187343,14.0536516 4.0566302,13.6019663 C3.95164635,13.6213869 3.84666249,13.6414339 3.74167864,13.6608545 C3.73099166,13.5054898 3.71904739,13.3494986 3.70647447,13.1941339 C3.61280624,13.2549016 3.51976666,13.3156692 3.42609843,13.3764369 C3.39592343,13.3626545 3.33431614,13.3344633 3.30351249,13.320681 C3.4229552,13.1866163 3.54302655,13.0538045 3.66309791,12.9216192 C3.5203953,12.7844222 3.38146457,12.6202869 3.17652603,12.5808192 C2.91626666,12.5263163 2.66417968,12.4361045 2.45169739,12.2732222 C2.32093905,12.468681 2.21092603,12.7048604 1.98398489,12.8063486 C1.67531978,12.947931 1.34465207,13.0362633 1.03032916,13.1634369 C0.863738012,12.9441722 0.728579158,12.702981 0.632396345,12.4448751 C0.563245303,12.596481 0.494094262,12.7487133 0.424314574,12.9003192 C0.286641137,12.8195045 0.138909366,12.7505927 0.0194666576,12.6434663 C-0.0207666757,12.4956192 0.0106656159,12.3402545 0.0307822826,12.1924074 C0.162169262,11.9512163 0.346991137,11.7488663 0.538728116,11.5559133 C0.623595303,11.4638222 0.704690616,11.3685986 0.785157283,11.2727486 C0.891398428,11.3285045 0.99826822,11.3842604 1.10576666,11.4381369 C1.13279843,11.2677369 1.1667453,11.0979633 1.2352677,10.9388398 C1.34968124,10.6776016 1.33333645,10.3875457 1.35282447,10.1100192 C1.43077655,10.2547339 1.50747135,10.4007016 1.58416614,10.5460427 C1.65394582,10.5266222 1.72309687,10.5065751 1.79287655,10.486528 C1.73378385,10.177678 1.61056926,9.88073098 1.59233853,9.5649898 C1.62879999,9.48354862 1.6878927,9.4158898 1.73944166,9.34447215 C1.82116562,9.52614862 1.90163228,9.70845157 1.99467187,9.8844898 C2.17320728,9.64392509 2.11159999,9.34697804 2.07891041,9.07321039 C2.14617551,9.03624862 2.21406926,8.99928686 2.28133437,8.96295157 C2.3435703,9.04689862 2.4051776,9.13084568 2.46741353,9.21541921 C2.49318801,9.21729862 2.54473697,9.22105745 2.57051145,9.22231039 C2.59125676,9.05566921 2.58182707,8.87775157 2.6534927,8.72238686 C2.88923489,8.56075745 3.16395312,8.45488392 3.36323385,8.24188392 C3.4531302,8.16858686 3.55245624,8.10719274 3.65178228,8.04767804 C3.72910572,8.06020745 3.80642916,8.07273686 3.8837526,8.0846398 C3.99439426,7.87477215 4.14589791,7.68119274 4.37661093,7.59661921 C4.80660468,7.52081627 5.16744739,7.26145745 5.56663749,7.10296039 L5.56663749,7.10296039 Z"/>
    <path fill="#FEFEFE"/>
    <path fill="#FEFEFE"/>
    <path fill="#B3B3B3" d="M16.8275917 7.67530882C17.3770281 7.38024118 17.8554276 6.97178235 18.4086359 6.68235294 17.9472099 7.12464118 17.4141182 7.48235588 16.9325755 7.90209118 16.7351807 8.06747941 16.5346427 8.27922647 16.255524 8.27484118 16.214662 8.25354118 16.1341953 8.21094118 16.0933333 8.18964118 16.2586672 7.92339118 16.5692182 7.82440882 16.8275917 7.67530882L16.8275917 7.67530882zM21.27568 6.89549445C21.5290243 6.81154739 21.7823686 6.62423268 22.0596014 6.70003562 22.333691 6.78523562 22.3758102 7.19494739 22.1362962 7.34342092 21.7025306 7.60904445 21.1757253 7.67106503 20.7394451 7.93292974 21.2750514 7.89095621 21.790541 7.70865327 22.331805 7.69862974 22.3437493 7.97302386 22.3707811 8.2511768 22.3280332 8.52431797 22.0960628 8.70536797 21.7817399 8.71915033 21.508279 8.80560327 21.0078769 8.91648856 20.5401644 9.1307415 20.0523352 9.28297386 20.2667035 9.03865033 20.4332946 8.5600268 20.1051415 8.34389445 19.6707472 8.19228856 19.2112071 8.36895327 18.7755556 8.42909445 19.2319524 8.11210033 19.7568717 7.8890768 20.1447462 7.4799915 20.120229 7.41483856 20.0957118 7.35031209 20.0718233 7.28515915 20.4955306 7.23754739 20.8777472 7.03331797 21.27568 6.89549445L21.27568 6.89549445z"/>
    <path fill="#B3B3B3"/>
    <path fill="#B3B3B3" d="M16.0933333,8.76181765 C16.5182979,8.54756471 16.8998859,8.26252059 17.3072484,8.01882353 C16.9916682,8.30950588 16.6641438,8.58640588 16.3535927,8.88272647 C16.2668396,8.84200588 16.1800865,8.80191176 16.0933333,8.76181765 L16.0933333,8.76181765 Z"/>
    <path fill="#FEFEFE"/>
    <path fill="#B3B3B3"/>
    <path fill="#FEFEFE" d="M19.467066,8.18985 C19.7342405,8.08021765 20.0196457,8.02446176 20.3081941,8.01882353 C20.2403003,8.07771176 20.1724066,8.13722647 20.1026269,8.19360882 C19.6349144,8.31389118 19.2288092,8.58264706 18.7755556,8.73989118 C18.9685498,8.51436176 19.2099498,8.33707059 19.467066,8.18985 L19.467066,8.18985 Z"/>
    <path fill="#5D5D5D"/>
    <path fill="#B3B3B3" d="M17.4344444 8.90465294C18.2290528 8.56698529 19.0261757 8.22493235 19.8679325 8.01882353 19.6108163 8.16604412 19.3694163 8.34333529 19.176422 8.56886471 19.6296757 8.41162059 20.0357809 8.14286471 20.5034934 8.02258235 20.1200194 8.39282647 19.611445 8.57262353 19.1418465 8.80379118 18.7715741 8.97607059 18.3931293 9.13707353 18.0524033 9.36573529 17.9895387 9.34318235 17.9266741 9.32188235 17.8631809 9.30183529 17.6607569 9.24482647 17.5325132 9.07881176 17.4344444 8.90465294L17.4344444 8.90465294zM6.70557144 8.23081452C7.03749644 8.10552041 7.38513759 8.00528511 7.74346572 8.02032041 8.01126884 8.03660864 8.27970061 8.02157335 8.54750374 8.03723511 8.80461988 8.11178511 9.02904644 8.28844982 9.18055009 8.50771452 9.33582561 8.72572629 9.36285738 8.99886747 9.43200842 9.2494557 9.44143811 9.31460864 9.48230009 9.38978511 9.43892353 9.45117923 9.33519697 9.63097629 9.19312301 9.78446158 9.05482092 9.93857335 9.1560329 9.75689688 9.28679124 9.58273805 9.33456832 9.37788217 9.33645426 8.98383217 9.21701155 8.55156747 8.89577353 8.29659394 8.57453551 8.04099394 8.12945426 8.082341 7.7459803 8.11554394 7.42411363 8.21765864 7.11859176 8.3761557 6.77660842 8.41061158 6.79672509 8.62987629 6.80552613 8.85039394 6.82501415 9.07028511 6.84387353 9.36409982 6.9985204 9.6222057 7.1192204 9.88344394 6.93314124 9.64475864 6.72757405 9.381641 6.72380217 9.06527335 6.72317353 8.78712041 6.7049428 8.50896747 6.70557144 8.23081452L6.70557144 8.23081452z"/>
    <path fill="#B3B3B3"/>
    <path fill="#FEFEFE" d="M6.70555556 8.33868411C7.04753889 8.30422822 7.35306076 8.14573117 7.67492743 8.04361646 8.05840139 8.01041352 8.50348264 7.96906646 8.82472066 8.22466646 9.14595868 8.47963999 9.26540139 8.91190469 9.26351545 9.30595469 9.21573837 9.51081058 9.08498003 9.6849694 8.98376806 9.86664587 8.8184342 10.1222459 8.52171337 10.2544312 8.24259462 10.3458959 7.78871233 10.3484018 7.35746128 10.1347753 7.04816753 9.81151646 6.92746753 9.55027822 6.77282066 9.29217234 6.75396128 8.99835764 6.73447326 8.77846646 6.72567222 8.55794881 6.70555556 8.33868411L6.70555556 8.33868411zM9.82782986 9.00765771C9.88063611 8.67813418 9.73290434 8.29410771 9.98247674 8.01908712 10.1107205 8.02409888 10.2458793 8.00405183 10.3697226 8.04915771 10.6456981 8.33733418 10.6507273 8.7608283 10.5778043 9.129193 10.4765924 9.4743783 10.3577783 9.83773124 10.0748877 10.0801754 9.90263872 10.2192518 9.77250903 10.3959165 9.63609288 10.566943 9.55311163 10.5168254 9.47013038 10.4667077 9.38777778 10.4165901 9.41355226 10.1979518 9.37017569 9.97680771 9.40537986 9.76004888 9.55185434 9.512593 9.72724653 9.27891947 9.82782986 9.00765771L9.82782986 9.00765771z"/>
    <path fill="#B3B3B3"/>
    <path fill="#FEFEFE"/>
    <path fill="#FEFEFE" d="M12.6688899 9.35529412C13.1856368 9.44863824 13.7344446 9.40415882 14.2197592 9.63595294 14.6698696 9.77001765 15.1143222 9.98740294 15.4330457 10.3369735 15.5311144 10.7479382 15.150155 10.9960206 14.9986514 11.32805 14.7572514 11.8398765 14.4819045 12.3391735 14.1317488 12.7858471 13.893492 13.0627471 13.5081321 13.1535853 13.2673608 13.4279794 13.0863108 13.6178 13.0856821 13.9347941 12.8304519 14.0613412 12.3275352 14.37395 11.8635946 14.7711324 11.2971847 14.9659647 10.6490509 15.0937647 10.0103467 15.2629118 9.35969826 15.3781824 8.79140243 15.4076265 8.21053368 15.4333118 7.65418212 15.2936088 6.9859316 15.1689412 6.39123264 14.8225029 5.75315712 14.60825 5.43317639 14.4698 5.18611858 14.2079353 4.8655092 14.0682324 4.66685712 13.9874176 4.54364253 13.79885 4.35316285 13.7055059 4.16519774 13.6084029 3.96528837 13.5150588 3.83201545 13.3446588 3.39259201 12.8027618 2.94499618 12.2483353 2.68222222 11.5961794 2.87018733 11.4458265 3.03552118 11.2710412 3.20525556 11.1012676 3.34355764 10.9502882 3.5679842 10.9371324 3.71697326 10.7999353 3.93699931 10.5988382 4.24314983 10.5512265 4.52289722 10.4867 4.66119931 11.0292235 4.86865243 11.5510735 5.04970243 12.0804412 5.17920347 12.5045618 5.53627431 12.7939912 5.83865295 13.0972029 6.23972899 13.4104382 6.65589253 13.7255529 7.15063681 13.8759059 7.51210816 14.0619676 7.92575712 14.0531971 8.3136316 14.1409029 8.90833056 14.1628294 9.52377483 14.0795088 10.0568665 13.8013559 10.4912608 13.5401176 10.9929201 13.3196 11.2607233 12.8660353 11.5574441 12.3579676 12.082992 11.9870971 12.2326097 11.3975882 12.3256493 11.0254647 12.6651181 10.7698647 12.7053514 10.3808265 12.7235821 10.0368941 12.8983457 9.66852941 12.6688899 9.35529412L12.6688899 9.35529412zM3.75909253 9.85145882C4.08661701 9.6347 4.46128993 9.50877941 4.8202467 9.35529412 4.47700608 9.54323529 4.15576806 9.76688529 3.81189878 9.95482647 3.59187274 10.1158294 3.38064774 10.2937471 3.12290295 10.3952353 2.91670712 10.4654 2.82366753 10.6727618 2.68222222 10.8206088 2.79034931 10.6627382 2.9123066 10.5155176 3.03174931 10.3657912 3.22222899 10.1308647 3.51140608 10.0137147 3.75909253 9.85145882L3.75909253 9.85145882z"/>
    <path fill="#B3B3B3" d="M19.8775717,9.51312075 C20.31008,9.4204031 20.7520181,9.31077075 21.1970993,9.37404428 C21.1229191,9.85767957 20.7507608,10.2360678 20.3364832,10.4634766 C19.9278634,10.690259 19.4890686,10.4064678 19.1131384,10.2460913 C19.0364436,10.1596384 18.9566056,10.0756913 18.8755102,9.99362369 C18.8503644,9.96292663 18.8007014,9.90090605 18.7755556,9.87020899 C19.1326264,9.72236193 19.4991269,9.59581487 19.8775717,9.51312075 L19.8775717,9.51312075 Z"/>
    <path fill="#FEFEFE"/>
    <path fill="#B3B3B3"/>
    <path fill="#5D5D5D"/>
    <path fill="#050505"/>
    <path fill="#B3B3B3" d="M21.7580609 9.48835603C22.2458901 9.43447956 22.7312047 9.33236485 23.224063 9.35992956 23.2209198 9.57292956 23.2680682 9.79971191 23.1876016 10.0039413 22.3584177 10.1755943 21.4965443 10.1793531 20.6761615 10.4036296 21.040776 10.5170207 21.4682552 10.5007325 21.7706339 10.7619707 21.3148656 10.5771619 20.8000047 10.5846796 20.3624672 10.3503796 20.2782286 10.2852266 20.197762 10.2156884 20.1166667 10.1474031 20.3511516 9.96008838 20.5950661 9.78279721 20.8176068 9.58107368 21.1350729 9.62367368 21.4449953 9.52030603 21.7580609 9.48835603L21.7580609 9.48835603zM5.36444444 9.35529412C5.43296684 9.45803529 5.50777569 9.55576471 5.58258455 9.65412059 5.74037465 9.85772353 5.79003767 10.1164559 5.88181997 10.3520088 5.95537153 10.5574912 6.10247465 10.7235059 6.20368663 10.9145794 6.04149601 10.7260118 5.92268194 10.5048676 5.75671944 10.3188059 5.51406215 10.0513029 5.49834601 9.67479412 5.36444444 9.35529412L5.36444444 9.35529412z"/>
    <path fill="#050505" d="M0.517703657,10.6917647 C0.709440637,11.0313118 0.626459387,11.4259882 0.65160522,11.7956059 C0.611371887,12.1533206 0.427178657,12.4828441 0.391345845,12.8430647 C0.361170845,13.3461206 0.390717199,13.8498029 0.38003022,14.3534853 C0.389459907,14.4812853 0.333510428,14.5978088 0.280704178,14.7105735 C-0.0468203009,14.3804235 0.144288032,13.8654647 0.06319272,13.4551265 C-0.0229317592,13.1324941 -0.0059583217,12.7948265 0.0261026158,12.4659294 C0.0921104283,12.0480735 0.144288032,11.6233265 0.295791678,11.2255176 C0.364314074,11.0457206 0.439122928,10.8678029 0.517703657,10.6917647 L0.517703657,10.6917647 Z"/>
    <path fill="#5D5D5D" d="M16.5949927,10.6917647 C16.8521089,10.8439971 17.089737,11.0269265 17.3518823,11.1716412 C17.5913964,11.3213676 17.8774302,11.0670206 18.1163156,11.218 C18.3061667,11.3207412 18.5123625,11.3871471 18.7229589,11.431 C18.8166271,11.5600529 18.8769771,11.73985 19.0391677,11.7974853 C19.292512,11.8883235 19.5596865,11.9353088 19.8092589,12.0374235 C19.7243917,12.0324118 19.6395245,12.0280265 19.5552859,12.0236412 C19.5628297,12.1188647 19.5703734,12.2147147 19.5772885,12.3105647 C19.3572625,12.2447853 19.141637,12.1620912 18.9146958,12.1245029 C18.4036068,12.0242676 17.932751,11.7943529 17.462524,11.5819794 C17.7762182,12.0098588 18.2621615,12.2410265 18.7015849,12.5147941 C18.8524599,12.6219206 19.0907167,12.7453353 19.0171651,12.9696118 C18.988876,13.1155794 18.9524146,13.2602941 18.9172104,13.4050088 C18.7110146,13.3786971 18.5054474,13.3473735 18.3005089,13.3122912 C18.2992516,13.3611559 18.2961083,13.4595118 18.294851,13.5083765 C18.0327057,13.5422059 17.7667885,13.5152676 17.5147016,13.4375853 C17.4191474,13.35865 17.3305083,13.2721971 17.2431266,13.1857441 C17.3575401,13.1725882 17.4719536,13.1619382 17.5869958,13.1512882 C17.5077865,13.1036765 17.4292057,13.0554382 17.3512536,13.0053206 C16.9376047,12.7221559 16.544701,12.4076676 16.0996198,12.1721147 C16.0977339,12.1313941 16.0945906,12.0499529 16.0933333,12.0092324 C16.253638,12.0092324 16.4139427,12.0117382 16.574876,12.0098588 C16.4466323,11.8557471 16.3083302,11.7104059 16.1555693,11.5807265 C16.2567813,11.2631059 16.454176,10.9912176 16.5949927,10.6917647 L16.5949927,10.6917647 Z"/>
    <path fill="#B3B3B3"/>
    <path fill="#FEFEFE"/>
    <path fill="#B3B3B3"/>
    <path fill="#5D5D5D"/>
    <path fill="#5D5D5D" d="M21.8163155 10.6917647C21.9319863 10.7519059 22.070917 10.80265 22.133153 10.9273176 22.2123623 11.1165118 22.1847019 11.39905 21.9665618 11.4804912 21.6861858 11.5387529 21.3970087 11.4980324 21.1141181 11.4911412 21.2895102 11.7730529 21.4561014 12.0693735 21.5239951 12.3976441 21.6742415 13.0936529 21.6629259 13.8128412 21.6226925 14.5195 21.5409686 15.5494176 20.9946753 16.4791 20.3094514 17.2296118 19.6556597 17.9556912 18.9515764 18.6429294 18.1550821 19.2136441 17.6232477 19.5726118 17.093928 19.9629029 16.4709399 20.1502176 15.9127024 20.3362794 15.3513217 20.57935 14.7522222 20.5693265 15.6964483 20.4083235 16.6419316 20.1239059 17.4428264 19.5857676 18.4945509 18.9267206 19.3771696 18.0390118 20.2013243 17.1218588 20.7501321 16.5160618 21.2096722 15.8006324 21.3863217 14.9949912 21.5032498 14.5126088 21.4649024 14.0126853 21.4711889 13.5209059 21.478104 12.9683588 21.4227832 12.3957647 21.1688102 11.8958412 21.0418238 11.6414941 20.8293415 11.4435294 20.5979998 11.2831529 20.9607285 11.4234824 21.3548894 11.4761059 21.7427639 11.4535529 21.8854665 11.4479147 22.06023 11.3959176 22.0954342 11.2367941 22.1752722 11.0068794 21.9621613 10.8333471 21.8163155 10.6917647L21.8163155 10.6917647zM9.64112205 10.7741058C9.69267101 10.7177235 9.78759653 10.6475588 9.85360434 10.7283735 9.92401267 10.9006529 9.95104444 11.1650235 9.77062309 11.281547 9.52167934 11.322894 9.43052569 11.0284529 9.38777778 10.8386323 9.43429757 10.8210911 9.52859444 10.7853823 9.57511424 10.7672146 9.54242465 10.8455235 9.51036372 10.9244588 9.47767413 11.003394 9.5650559 11.0929793 9.65369497 11.1813117 9.74421997 11.2677646 9.7913684 11.1142793 9.82028611 10.9557823 9.81337101 10.7954058 9.76999444 10.7897676 9.68386997 10.779744 9.64112205 10.7741058L9.64112205 10.7741058z"/>
    <path fill="#FEFEFE" d="M16.8935995,10.6917647 C17.0463604,10.8214441 17.1846625,10.9667853 17.3129063,11.1208971 C17.1519729,11.1227765 16.9916682,11.1202706 16.8313635,11.1202706 C16.8326208,11.1609912 16.8357641,11.2424324 16.83765,11.2831529 C17.2827313,11.5187059 17.6756349,11.8331941 18.0892839,12.1163588 C17.9924724,12.1332735 17.8956609,12.1495618 17.7988495,12.1664765 C17.6756349,12.0944324 17.5524203,12.0223882 17.4285771,11.95285 C17.3657125,11.9171412 17.3034766,11.8814324 17.2424979,11.8438441 C16.9866391,11.6847206 16.7552974,11.4579382 16.4403458,11.4272412 C16.5635604,11.7605235 16.8709682,11.9628735 17.1211693,12.1940412 C17.2217526,12.2779882 17.3267365,12.3556706 17.4273198,12.4402441 C17.6121417,12.6068853 17.7843906,12.7873088 17.9717271,12.9520706 C17.8202234,12.922 17.6668339,12.9000735 17.5178448,12.8581 C17.3437099,12.7509735 17.1758615,12.6338235 16.999212,12.5323353 C16.8062177,12.4227029 16.6075656,12.3212147 16.4315448,12.1852706 C16.3165026,12.0969382 16.2052323,12.0023412 16.0933333,11.91025 C16.132938,11.8350735 16.1725427,11.7592706 16.2159193,11.6859735 C16.4422318,11.3558235 16.7376953,11.0632618 16.8935995,10.6917647 L16.8935995,10.6917647 Z"/>
    <path fill="#B3B3B3"/>
    <path fill="#5D5D5D"/>
    <path fill="#FEFEFE"/>
    <path fill="#FEFEFE" d="M17.4344444,10.6917647 C18.0505174,10.9724235 18.6093835,11.3614618 19.1104142,11.8144 C18.814322,11.6728176 18.5012564,11.5631853 18.2196231,11.3934118 C17.9266741,11.1967 17.6840168,10.9373412 17.4344444,10.6917647 L17.4344444,10.6917647 Z"/>
    <path fill="#5D5D5D"/>
    <path fill="#FEFEFE"/>
    <path fill="#B3B3B3"/>
    <path fill="#FEFEFE" d="M1.34976362,12.6321529 C1.49686675,12.4216588 1.67163029,12.2318382 1.82753445,12.0282353 C1.90737248,12.1635529 2.00732716,12.2913529 2.05636154,12.4429588 C1.93691883,12.7092088 1.7143782,12.9265941 1.42645841,13.0049029 C1.38182456,12.8858735 1.31770268,12.7624588 1.34976362,12.6321529 L1.34976362,12.6321529 Z"/>
    <path fill="#5D5D5D" d="M16.0933333,12.0282353 C16.4082849,12.0589324 16.6396266,12.2857147 16.8954854,12.4448382 C16.8565094,12.5619882 16.8169047,12.6791382 16.7741568,12.7950353 C16.5239557,12.5638676 16.2165479,12.3615176 16.0933333,12.0282353 L16.0933333,12.0282353 Z"/>
    <path fill="#5D5D5D" d="M15.527133,12.6816441 C15.7609892,12.4755353 15.9671851,12.2412353 16.1947549,12.0282353 C16.1513783,12.1015324 16.1117736,12.1773353 16.0721689,12.2525118 C16.1840679,12.3446029 16.2953382,12.4392 16.4103804,12.5275324 C16.3996934,12.6753794 16.3890064,12.8232265 16.3764335,12.9710735 C16.2085851,12.8025529 16.0419939,12.6327794 15.8703736,12.4680176 C15.5598226,12.7449176 15.2530434,13.0262029 14.9487788,13.3099941 C14.4948965,13.7516559 13.9398023,14.0592529 13.4111111,14.3994265 C13.5431267,14.2684941 13.6468533,14.1137559 13.7279486,13.9471147 C13.8945398,13.9283206 14.0730752,13.9245618 14.2151491,13.8243265 C14.6992064,13.4991882 15.0864523,13.0587794 15.527133,12.6816441 L15.527133,12.6816441 Z"/>
    <path fill="#B3B3B3"/>
    <path fill="#5D5D5D" d="M0.0416575658,12.5369294 C-0.0476101425,12.3702882 0.0215408992,12.1785882 0.10892267,12.0282353 C0.0888060033,12.1760824 0.0573737117,12.3314471 0.097607045,12.4792941 C0.217049753,12.5864206 0.364781524,12.6553324 0.502454962,12.7361471 C0.572234649,12.5845412 0.641385691,12.4323088 0.710536732,12.2807029 C0.806719545,12.5388088 0.941878399,12.78 1.10846954,12.9992647 C1.42279246,12.8720912 1.75346017,12.7837588 2.06212527,12.6421765 C2.28906642,12.5406882 2.39907944,12.3045088 2.52983777,12.10905 C2.74232007,12.2719324 2.99440704,12.3621441 3.25466642,12.4166471 C3.45960496,12.4561147 3.59853569,12.62025 3.74123829,12.7574471 C3.62116694,12.8896324 3.50109559,13.0224441 3.38165288,13.1565088 C3.41245652,13.1702912 3.47406382,13.1984824 3.50423882,13.2122647 C3.59790704,13.1514971 3.69094663,13.0907294 3.78461486,13.0299618 C3.79718777,13.1853265 3.80913204,13.3413176 3.81981902,13.4966824 C3.92480288,13.4772618 4.02978673,13.4572147 4.13477059,13.4377941 C4.50001382,13.8894794 5.0155034,14.2465676 5.60580184,14.3060824 C5.8151409,14.3048294 6.01756486,14.2421824 6.22438934,14.2158706 C6.16781121,14.4464118 6.07288569,14.6656765 5.95470027,14.8717853 C5.9961909,14.9012294 6.03768152,14.9306735 6.07917215,14.9601176 C6.22816121,14.8811824 6.37589298,14.7665382 6.55379975,14.7796941 C6.76816798,14.7897176 6.98190757,14.8097647 7.19690444,14.8191618 C7.19124663,15.0039706 7.18370288,15.1881529 7.17930236,15.3735882 C7.43704715,15.3616853 7.66587423,15.2445353 7.87018413,15.0948088 C7.87269871,15.1994294 7.87584194,15.30405 7.87898517,15.4086706 C8.17633465,15.4556559 8.47557007,15.5427353 8.779206,15.5176765 C9.04072267,15.4280912 9.21548621,15.1693588 9.49146173,15.1098441 C9.69074246,15.0772676 9.76932319,15.3103147 9.88499402,15.4262118 C10.1094206,15.3836118 10.3332185,15.3366265 10.5519873,15.2689676 C10.348306,15.4644265 10.0471846,15.4587882 9.78818257,15.5176765 C9.72531798,15.7789147 9.64862319,16.0382735 9.61781954,16.3064029 C9.82212944,16.3076559 10.0283253,16.32645 10.2313779,16.2982588 C10.5318706,15.9599647 10.7028623,15.4851 11.1284555,15.2708471 C11.262357,15.1925382 11.4126034,15.3322412 11.3987732,15.4706912 C11.3918581,15.7156412 11.3101341,15.9499412 11.2655003,16.1892529 C11.5050143,16.1497853 11.7457857,16.1165824 11.988443,16.1059324 C11.9834138,16.1397618 11.9727268,16.2080471 11.9676977,16.2418765 C11.7130961,16.2757059 11.4597518,16.3176794 11.2082935,16.3684235 C11.1183971,16.6659971 11.042331,16.9673294 10.9719227,17.2699147 C10.9254029,17.4741441 10.8939706,17.6821324 10.8436789,17.8857353 C10.7034909,18.4495588 10.5972498,19.0240324 10.559531,19.6041441 C10.4457461,20.2469029 10.4576904,20.9003118 10.460205,21.5499618 C10.4558044,21.7310118 10.5362711,21.8964 10.5922206,22.0649206 C10.3910539,21.97095 10.298643,21.7610824 10.2841841,21.5499618 C10.2250914,20.3703176 10.3721945,19.1925529 10.6249102,18.0404735 C10.6431409,17.9383588 10.658857,17.8356176 10.680231,17.7335029 C10.8034456,17.2999853 10.9335753,16.8670941 10.9964399,16.4197941 C10.7845862,16.4511176 10.5199263,16.3746882 10.3451628,16.51815 C10.1012482,16.8996706 9.91642632,17.3181529 9.72594663,17.7291176 C9.67439767,17.8481471 9.62347736,17.9671765 9.56689923,18.0837 C9.00300392,18.9989735 8.78549246,20.0808882 8.22033986,20.9949088 C8.03174611,20.8483147 8.2291409,20.6484706 8.28509038,20.4830824 C8.61010027,19.7544971 8.92693777,19.0215265 9.24126069,18.2879294 C9.27143569,18.2140059 9.30098204,18.1400824 9.33492892,18.0674118 C9.63479298,17.56185 9.8736784,17.0237118 10.1326805,16.4962235 C9.92711329,16.4937176 9.72091746,16.4943441 9.51535027,16.4955971 C9.35378829,16.9479088 9.19662684,17.4021 9.03129298,17.8531588 C8.99231694,17.9652971 8.95962736,18.0799412 8.92505184,18.1945853 C8.60947163,19.0609941 8.28634767,19.9311618 8.1002685,20.8357853 C8.05374871,20.8364118 7.96133777,20.8370382 7.91481798,20.8376647 C7.93179142,20.5313206 8.02545965,20.2381324 8.10655496,19.9443176 C8.14678829,19.7908324 8.18890757,19.6379735 8.23794194,19.4869941 C8.54157788,18.6425118 8.85087163,17.7999088 9.16330861,16.9579324 C9.21800079,16.8107118 9.26263465,16.6603588 9.29972475,16.5081265 C8.95459819,16.4830676 8.61135757,16.4273118 8.26371642,16.4367088 C7.79788986,17.1402353 7.35720913,17.8619294 6.99007996,18.6224647 C6.82537475,18.9200382 6.70153152,19.2407912 6.51670965,19.5277147 C6.4406435,19.5283412 6.35389038,19.4425147 6.40543934,19.3685912 C6.70278882,18.7496382 6.99699507,18.1275529 7.35658048,17.54055 C7.57032007,17.1496324 7.83812319,16.7912912 8.05060548,16.4003735 C7.85635392,16.3621588 7.66210236,16.3214382 7.46533621,16.2982588 C7.01208257,17.2930941 6.64558204,18.3236382 6.26210809,19.3460382 C6.20993048,19.3335088 6.15775288,19.3216059 6.10557527,19.3097029 C6.43812892,18.2703882 6.89452579,17.2768059 7.31760444,16.2732 C7.29308725,16.2519 7.24405288,16.2099265 7.21953569,16.1886265 C7.10512215,16.2775853 7.03471382,16.4072647 6.96430548,16.5313059 C6.54688465,17.2711676 6.13449298,18.0135353 5.73718882,18.7634206 C5.66740913,18.7590353 5.59825809,18.7552765 5.52910704,18.7521441 C5.58694246,18.5165912 5.73341694,18.3205059 5.85285965,18.1143971 C6.04899715,17.7829941 6.22124611,17.4378088 6.41172579,17.1032735 C6.60346277,16.7831471 6.80462944,16.4692853 6.97939298,16.1397618 C6.88069559,16.1009206 6.78199819,16.0633324 6.6820435,16.0301294 C6.5695159,16.19865 6.46076017,16.3703029 6.35640496,16.5450882 C6.06031277,17.0406265 5.70261329,17.5010824 5.46247059,18.0279441 C5.37068829,18.1989706 5.31285288,18.4019471 5.15317684,18.5247353 C5.12425913,18.5115794 5.06705236,18.4846412 5.03813465,18.4708588 C5.04945027,18.2672559 5.17832267,18.0974824 5.25941798,17.9164324 C5.59008569,17.2104 6.08923048,16.6008441 6.46201746,15.9179912 C6.3432034,15.8891735 6.22376069,15.8559706 6.10117475,15.8547176 C5.97041642,15.9587118 5.90755184,16.1234735 5.79628152,16.2462618 C5.27702007,16.7844 4.82502371,17.3826794 4.38937215,17.9897294 C4.32336434,17.9433706 4.25735652,17.8976382 4.19072007,17.8537853 C4.47549663,17.3363206 4.89668934,16.9153324 5.24935965,16.4467324 C5.39834871,16.2888618 5.26318986,16.0783676 5.21981329,15.9067147 C4.76907423,16.4761765 4.45537996,17.1389824 4.02601486,17.7234794 C3.96063569,17.6608324 3.89525652,17.5981853 3.830506,17.5355382 C4.08887944,17.0631794 4.39565861,16.6190118 4.67917788,16.1616882 C4.6232284,16.0595735 4.57042215,15.9562059 4.51887319,15.8522118 C4.14482892,16.2130588 3.85565184,16.6484559 3.49983829,17.0255912 C3.36405079,17.1684265 3.20248882,16.9754735 3.12327944,16.8658412 C3.03338309,16.7530765 3.14842527,16.6409382 3.21443309,16.5532324 C3.47972163,16.2324794 3.74375288,15.9104735 3.99458257,15.5784441 C3.89777111,15.5521324 3.80158829,15.5233147 3.70603413,15.4944971 C3.3627935,15.7764088 3.10567736,16.1792294 2.69139975,16.3602794 C2.67568361,16.3076559 2.64550861,16.2030353 2.63042111,16.1504118 C3.01263777,15.7657588 3.50863934,15.4656794 3.76072632,14.9713941 C3.28169819,15.2639559 2.94725861,15.7156412 2.56189871,16.1096912 C2.51034975,16.0163471 2.32615652,15.9136059 2.44119871,15.8002147 C2.6165909,15.5928529 2.8127284,15.4024059 2.96297475,15.1743706 C2.65933882,15.4168147 2.38273465,15.6930882 2.05583882,15.9060882 C1.84901434,15.6367059 1.60384246,15.4017794 1.37752996,15.1499382 C1.42090652,15.0352941 1.49822996,14.9388176 1.56423777,14.8373294 C1.40644767,14.9193971 1.24677163,15.0045971 1.06760757,15.0277765 C1.01165809,14.9369382 0.95382267,14.8467265 0.896615899,14.7571412 C1.14555965,14.5015412 1.43347944,14.2885412 1.70568309,14.058 C1.42656434,14.2290265 1.13675861,14.3812588 0.836894545,14.5115647 C0.78786017,14.45205 0.738197149,14.3931618 0.688534128,14.3342735 C0.844438295,14.1438265 1.03051746,13.9803176 1.23797059,13.8481324 C1.01228673,13.9577647 0.775287253,14.0467235 0.526343503,14.0824324 C0.530115378,13.9959794 0.495539857,13.9007559 0.536401837,13.8199412 C0.711165378,13.6595647 0.919875795,13.5417882 1.12167111,13.419 C0.864554962,13.5267529 0.599895066,13.6200971 0.323290899,13.6601912 C0.332720587,13.5123441 0.337749753,13.3644971 0.353465899,13.2179029 C0.54646017,13.1176676 0.762085691,13.0750676 0.970796107,13.0199382 C0.953194024,12.9472676 0.934963295,12.87585 0.916732566,12.8044324 C0.593608607,12.8921382 0.28242892,12.7436647 0.0416575658,12.5369294 L0.0416575658,12.5369294 Z"/>
    <path fill="#FEFEFE"/>
    <path fill="#5D5D5D" d="M17.4354741,12.5156294 C17.4348455,12.3527471 17.4329595,12.1904912 17.4367314,12.0282353 C17.5605746,12.0977735 17.6837892,12.1698176 17.8070038,12.2418618 C17.7673991,12.3226765 17.7271658,12.4028647 17.6869325,12.4830529 C17.7013913,12.4962088 17.7309377,12.5225206 17.7453965,12.53505 C17.9729663,12.7430382 18.214995,12.9341118 18.445708,13.1383412 C18.5550924,13.25925 18.6575616,13.3857971 18.7644314,13.5085853 C18.7468293,13.5399088 18.7109965,13.6025559 18.6933944,13.6338794 C18.5827528,13.6132059 18.4721111,13.5931588 18.3633554,13.5655941 C18.1326424,13.4872853 17.9245606,13.3613647 17.7139642,13.2429618 C17.8541522,13.1834471 18.00377,13.1577618 18.1552736,13.1427265 C18.0961809,13.1045118 18.0377168,13.0656706 17.9798814,13.0274559 C17.792545,12.8626941 17.620296,12.6822706 17.4354741,12.5156294 L17.4354741,12.5156294 Z"/>
    <path fill="#5D5D5D"/>
    <path fill="#B3B3B3"/>
    <path fill="#B3B3B3" d="M19.7736356,12.4636324 C19.8088398,12.3189176 19.8453012,12.1742029 19.8735903,12.0282353 C19.8773622,12.17295 19.8817627,12.3182912 19.8836486,12.4636324 C19.7239726,12.4968353 19.5441799,12.4855588 19.4021059,12.5726382 C19.1405892,12.8150824 18.9224491,13.1289441 18.887245,13.4922971 C18.7395132,13.5637147 18.5980679,13.6489147 18.4805111,13.7641853 C18.3906148,13.7585471 18.3007184,13.7522824 18.2114507,13.7460176 C18.251684,13.8462529 18.292546,13.9464882 18.3384372,14.0442176 C18.0517747,13.8694324 17.7638549,13.6933941 17.4470174,13.5768706 C17.4878793,13.5718588 17.5689747,13.5624618 17.6098366,13.55745 C17.5520012,13.4528294 17.4954231,13.3475824 17.4344444,13.2448412 C17.7556825,13.4221324 18.0769205,13.6138324 18.4396491,13.6952735 C18.4509648,13.6088206 18.4622804,13.5229941 18.473596,13.4377941 C18.5823517,13.4653588 18.6929934,13.4854059 18.8036351,13.5060794 C18.8212372,13.4747559 18.85707,13.4121088 18.874672,13.3807853 C18.7678023,13.2579971 18.665333,13.13145 18.5559486,13.0105412 C18.6420731,13.0681765 18.7313408,13.1226794 18.8199799,13.1771824 C18.9545101,12.9892412 19.1097856,12.8006735 19.1512762,12.567 C19.1525335,12.5181353 19.1556767,12.4197794 19.156934,12.3709147 C19.3618726,12.4059971 19.5674398,12.4373206 19.7736356,12.4636324 L19.7736356,12.4636324 Z"/>
    <path fill="#FEFEFE" d="M14.7522222,12.8702118 C15.0564868,12.5864206 15.363266,12.3051353 15.673817,12.0282353 C15.8454373,12.1929971 16.0120285,12.3627706 16.1798769,12.5312912 C16.2898899,12.6409235 16.4011602,12.7486765 16.509916,12.8595618 C16.236455,12.7994206 15.966766,12.7173529 15.7247373,12.5757706 C15.5876925,12.4899441 15.4286451,12.5118706 15.2796561,12.5413147 C15.4305311,12.7580735 15.6279259,12.9372441 15.8416655,13.0907294 C15.9460207,13.1702912 16.0528905,13.2460941 16.156617,13.3275353 C16.2590863,13.4127353 16.3577837,13.5029471 16.4577384,13.5912794 C16.4520806,13.6200971 16.4413936,13.6764794 16.4357358,13.7046706 C16.0415748,13.5850147 15.645528,13.4590941 15.2796561,13.2667676 C15.2092477,13.2053735 15.1394681,13.1439794 15.0665451,13.0857176 C14.9647045,13.0092882 14.8578347,12.9403765 14.7522222,12.8702118 L14.7522222,12.8702118 Z"/>
    <path fill="#B3B3B3" d="M16.5824198,12.0282353 C16.7584406,12.1641794 16.9570927,12.2656676 17.150087,12.3753 C17.1444292,12.4454647 17.1394,12.5156294 17.1349995,12.5864206 C17.0953948,12.6058412 17.0557901,12.6252618 17.0168141,12.6446824 C16.9922969,12.6565853 16.9438911,12.6803912 16.9200026,12.6922941 C17.0036125,12.8771029 17.0834505,13.0650441 17.1840339,13.2417088 C16.9897823,13.1596412 16.7917589,13.0832118 16.5824198,13.0500088 C16.5597885,13.0456235 16.514526,13.0374794 16.4918948,13.0330941 C16.5032104,13.1114029 16.5138974,13.1897118 16.525213,13.2680206 C16.4214865,13.1865794 16.3146167,13.1107765 16.2102615,13.0312147 C16.2108901,12.8526706 16.1593411,12.6803912 16.0933333,12.5162559 C16.335362,12.6578382 16.605051,12.7399059 16.878512,12.8000471 C16.7697563,12.6891618 16.6584859,12.5814088 16.5484729,12.4717765 C16.5610458,12.3239294 16.5717328,12.1760824 16.5824198,12.0282353 L16.5824198,12.0282353 Z"/>
    <path fill="#FEFEFE" d="M17.4344444,13.3647059 C17.6085793,13.3784882 17.7814569,13.4079324 17.949934,13.4536647 C18.202021,13.5313471 18.4679382,13.5582853 18.7300835,13.5244559 C18.6885929,13.7581294 18.5333174,13.9466971 18.3987872,14.1346382 C18.3101481,14.0801353 18.2208804,14.0256324 18.1347559,13.9679971 C17.9040429,13.7637676 17.6620142,13.5726941 17.4344444,13.3647059 L17.4344444,13.3647059 Z"/>
    <path fill="#5D5D5D" d="M14.7522222 13.3908342C14.9012113 13.3613901 15.0602587 13.3394636 15.1973035 13.4252901 15.2633113 13.5894254 15.3148602 13.7617048 15.3142316 13.9402489 15.100492 13.7867636 14.9030972 13.607593 14.7522222 13.3908342L14.7522222 13.3908342zM16.0933333 13.5758265C16.0977339 13.5050353 16.102763 13.4348706 16.1084208 13.3647059 16.2850703 13.4661941 16.4529188 13.5833441 16.6270536 13.6904706 16.6044224 13.7575029 16.5830484 13.8245353 16.5610458 13.8921941 16.3913115 13.8082471 16.2404365 13.6929765 16.0933333 13.5758265L16.0933333 13.5758265z"/>
    <path fill="#FEFEFE" d="M16.0933333,13.4229676 C16.1323094,13.4035471 16.1719141,13.3841265 16.2115188,13.3647059 C16.3586219,13.4818559 16.5094969,13.5971265 16.6792313,13.6810735 C16.7628411,13.7186618 16.8489656,13.7512382 16.9332042,13.7888265 C17.1438005,13.9072294 17.3518823,14.03315 17.5825953,14.1114588 C17.5712797,14.1966588 17.5599641,14.2824853 17.5486484,14.3689382 C17.1859198,14.2874971 16.8646818,14.0957971 16.5434438,13.9185059 C16.3919401,13.7543706 16.2410651,13.5902353 16.0933333,13.4229676 L16.0933333,13.4229676 Z"/>
    <path fill="#5D5D5D" d="M16.0933333,13.4123176 C16.1172219,13.4004147 16.1656276,13.3766088 16.1901448,13.3647059 C16.3378766,13.5319735 16.4887516,13.6961088 16.6402552,13.8602441 C16.7012339,13.9629853 16.757812,14.0682324 16.8156474,14.1728529 C16.7747854,14.1778647 16.6936901,14.1872618 16.6528281,14.1922735 C16.5522448,14.1177235 16.4372026,14.0594618 16.3573646,13.9617324 C16.2567813,13.7850676 16.1769432,13.5971265 16.0933333,13.4123176 L16.0933333,13.4123176 Z"/>
    <path fill="#B3B3B3"/>
    <path fill="#B3B3B3" d="M12.7765979,14.4541382 C13.3052891,14.1139647 13.8603833,13.8063676 14.3142656,13.3647059 C14.4198781,13.4348706 14.5267479,13.5037824 14.6285885,13.5802118 C14.5449786,13.6065235 14.4619974,13.6334618 14.3790161,13.6616529 C14.5424641,13.8427029 14.7404875,13.9880441 14.957999,14.0989294 C14.9215375,13.9849118 14.8844474,13.8721471 14.8416995,13.7612618 C15.2075714,13.9535882 15.6036182,14.0795088 15.9977792,14.1991647 C16.003437,14.1709735 16.014124,14.1145912 16.0197818,14.0857735 C16.0323547,14.0193676 16.0461849,13.9529618 16.0593865,13.8865559 C16.2655823,13.9648647 16.4692635,14.0506912 16.6716875,14.13965 C16.6842604,14.2824853 16.7483823,14.4109118 16.8250771,14.5299412 C16.9143448,14.5105206 17.0042411,14.4911 17.0941375,14.4729324 C16.816276,14.6326824 16.4799505,14.5286882 16.1756859,14.5562529 C16.2404365,14.6608735 16.303301,14.7673735 16.3667943,14.8732471 C16.1235083,15.0430206 15.8368458,14.9546882 15.5740719,14.8970529 C15.7507214,15.0524176 15.9632036,15.1570382 16.163113,15.2785735 C16.1209938,15.2748147 16.0354979,15.2666706 15.99275,15.2629118 C16.0348693,15.3424735 16.0776172,15.4214088 16.1235083,15.4997176 C16.0455562,15.4934529 15.9688615,15.4878147 15.891538,15.4821765 C15.8286734,15.6218794 15.7871828,15.7816294 15.671512,15.8900088 C15.561499,15.9401265 15.4357698,15.9275971 15.318213,15.9382471 C15.3333005,16.0272059 15.3477594,16.1167912 15.3628469,16.2063765 C15.1535078,16.2239176 14.9441687,16.2445912 14.7367156,16.2734088 C14.6631641,16.1900882 14.595899,16.1005029 14.5091458,16.0303382 C14.2947776,16.0090382 14.1093271,16.1343324 13.9395927,16.2458441 C13.7623146,16.0804559 13.6095536,15.8925147 13.4373047,15.7227412 C13.246825,15.5348 13.0073109,15.3976029 12.843863,15.1827235 C12.7897995,15.1037882 12.712476,15.0085647 12.7677969,14.9095824 C12.803001,14.7623618 12.9783932,14.7467 13.0909208,14.6802941 C13.0066823,14.6477176 12.923701,14.6120088 12.8363193,14.5919618 C12.7212771,14.6289235 12.6257229,14.7059794 12.5257682,14.7698794 C12.5792031,14.9095824 12.6338953,15.0492853 12.6848156,15.1902412 C12.6364099,15.2015176 12.5402271,15.2234441 12.49245,15.2347206 C12.5062802,15.3431 12.5194818,15.4508529 12.5307974,15.5604853 C12.3994104,15.48155 12.2780818,15.3888324 12.1655542,15.2848382 C12.240363,15.1689412 12.3095141,15.0486588 12.3510047,14.9164735 C12.2567078,14.8983059 12.1630396,14.8801382 12.07,14.8619706 C12.2862542,14.69345 12.5502854,14.6063706 12.7765979,14.4541382 L12.7765979,14.4541382 Z"/>
    <path fill="#5D5D5D" d="M14.7522222,13.4461471 C14.8352035,13.4179559 14.9181847,13.3910176 15.0017946,13.3647059 C15.0747175,13.4229676 15.1444972,13.4843618 15.2149056,13.5457559 C15.2576535,13.6566412 15.2947436,13.7694059 15.331205,13.8834235 C15.1136936,13.7725382 14.9156701,13.6271971 14.7522222,13.4461471 L14.7522222,13.4461471 Z"/>
    <path fill="#5D5D5D"/>
    <path fill="#5D5D5D"/>
    <path fill="#5D5D5D" d="M14.7522222,14.7011765 C15.1690144,14.8978882 15.4135576,15.3188765 15.6970769,15.6634353 C15.5317431,15.6252206 15.3242899,15.6189559 15.2325076,15.4510618 C15.072203,15.2011 14.880466,14.9705588 14.7522222,14.7011765 L14.7522222,14.7011765 Z"/>
    <path fill="#B3B3B3" d="M19.7030177,15.8457382 C19.9010411,15.4924088 19.936874,15.0720471 20.1009505,14.7011765 C20.1298682,15.4773735 19.7771979,16.2028265 19.4006391,16.8606206 C19.13095,17.2609353 18.9442422,17.7238971 18.5852854,18.0578059 C18.1018568,18.5163824 17.661176,19.0319676 17.087851,19.3834176 C16.7659844,19.5744912 16.4629771,19.8131765 16.0933333,19.9071471 C16.3064443,19.7135676 16.557274,19.5701059 16.8005599,19.4178735 C17.309763,19.1040118 17.7454146,18.6880353 18.1540344,18.2551441 C18.4859594,17.8554559 18.8474307,17.4739353 19.1026609,17.0178647 C19.0291094,16.9752647 18.9568151,16.9326647 18.8838922,16.8900647 C18.9467568,16.7785529 18.9976771,16.6570176 19.0875734,16.5636735 C19.2151885,16.4640647 19.3692068,16.4058029 19.5131667,16.3325059 C19.4282995,16.3174706 19.3440609,16.3024353 19.2598224,16.2874 C19.320801,16.06375 19.5219677,15.9597559 19.7030177,15.8457382 L19.7030177,15.8457382 Z"/>
    <path fill="#5D5D5D"/>
    <path fill="#5D5D5D"/>
    <path fill="#5D5D5D"/>
    <path fill="#5D5D5D"/>
    <path fill="#B3B3B3"/>
    <path fill="#FEFEFE" d="M14.7522222,14.7011765 C15.1903884,14.8778412 15.6272972,15.1553676 15.8517238,15.5832471 C15.4009847,15.4241235 15.042028,15.0695412 14.7522222,14.7011765 L14.7522222,14.7011765 Z"/>
    <path fill="#B3B3B3" d="M16.8156474,14.9419477 C17.2846172,14.6957447 17.8296531,14.6775771 18.3476573,14.7176712 C18.2351297,14.9049859 18.1307745,15.1123477 17.9446953,15.2376418 C17.5737943,15.3253477 17.128713,15.12613 16.818162,15.4130535 C16.5937354,15.5590212 16.3900542,15.8246447 16.0933333,15.7807918 C16.2398078,15.5659124 16.4114281,15.361683 16.486237,15.1085888 C16.5641891,15.12613 16.6433984,15.1405388 16.7226078,15.1549477 C16.7534115,15.08353 16.7842151,15.0127388 16.8156474,14.9419477 L16.8156474,14.9419477 Z"/>
    <path fill="#5D5D5D"/>
    <path fill="#FEFEFE"/>
    <path fill="#050505"/>
    <path fill="#FEFEFE"/>
    <path fill="#B3B3B3" d="M13.8647333,16.8558176 C13.6692245,16.6259029 13.3234692,16.3790735 13.4315963,16.0376471 C13.6981422,16.2431294 13.9458286,16.4717912 14.1746557,16.7179941 C14.0715578,16.7637265 13.9678312,16.8094588 13.8647333,16.8558176 L13.8647333,16.8558176 Z"/>
    <path fill="#FEFEFE"/>
    <path fill="#FEFEFE"/>
    <path fill="#FEFEFE" d="M10.7288889 16.8959118C10.9199972 16.5732794 11.1230498 16.2368647 11.4530889 16.0376471 11.4832639 16.2995118 11.4361155 16.5695206 11.3154155 16.8044471 11.1601399 16.9416441 10.9199972 16.8702265 10.7288889 16.8959118L10.7288889 16.8959118zM8.04666667 16.5876882C8.10387344 16.3972412 8.18182552 16.2143118 8.27109323 16.0376471 8.57095729 16.09215 8.8783651 16.1021735 9.17194271 16.1867471 9.00786615 16.3734353 8.83247396 16.5494735 8.66525417 16.7336559 8.45905833 16.6835382 8.2528625 16.6346735 8.04666667 16.5876882L8.04666667 16.5876882z"/>
    <path fill="#B3B3B3"/>
    <path fill="#FEFEFE" d="M8.58415885,16.0557497 C8.77652448,16.026932 8.97203333,16.0419673 9.16565625,16.038835 C9.09964844,16.2530879 9.03992708,16.4692203 8.98586354,16.6866056 C8.67216927,16.7003879 8.35784635,16.6903644 8.04666667,16.6527762 C8.19879896,16.432885 8.37230521,16.2211379 8.58415885,16.0557497 L8.58415885,16.0557497 Z"/>
    <path fill="#B3B3B3"/>
    <path fill="#FEFEFE" d="M10.0321398,17.4724735 C10.2069033,17.3290118 10.4715632,17.4054412 10.6834168,17.3741176 C10.6205523,17.8214176 10.4904226,18.2543088 10.367208,18.6878265 C10.0371689,18.7166441 9.71278767,18.7861824 9.38777778,18.8456971 C9.39406424,18.8049765 9.40663715,18.7241618 9.41292361,18.6834412 C9.6034033,18.2724765 9.78822517,17.8539941 10.0321398,17.4724735 L10.0321398,17.4724735 Z"/>
    <path fill="#FEFEFE" d="M9.87183507,17.375214 C10.0774023,17.373961 10.2835981,17.3733346 10.4891653,17.3758404 C10.2301632,17.9033287 9.99127778,18.4414669 9.69141372,18.9470287 C9.59900278,18.9263551 9.50722049,18.9063081 9.41543819,18.8868875 C9.40852309,18.8480463 9.39469288,18.7709904 9.38777778,18.7327757 C9.55311163,18.2817169 9.71027309,17.8275257 9.87183507,17.375214 L9.87183507,17.375214 Z"/>
    <path fill="#B3B3B3"/>
    <path fill="#B3B3B3" d="M16.0933333 18.0607294C16.2165479 17.7781912 16.4516615 17.5708294 16.6811172 17.3741176 16.6610005 17.6854735 16.4359453 18.0525853 16.0933333 18.0607294L16.0933333 18.0607294zM10.8646764 17.7474941C11.4097123 17.67545 11.9145149 17.4286206 12.4620655 17.3741176 11.9245733 17.6879794 11.2965561 17.7869618 10.7288889 18.0331647 10.7791806 17.8295618 10.8106128 17.6215735 10.8571326 17.4173441 10.8583899 17.5269765 10.8609045 17.6366088 10.8646764 17.7474941L10.8646764 17.7474941z"/>
    <path fill="#B3B3B3"/>
    <path fill="#B3B3B3"/>
    <path fill="#5D5D5D"/>
    <path fill="#B3B3B3"/>
    <path fill="#B3B3B3"/>
    <path fill="#B3B3B3"/>
    <path fill="#5D5D5D"/>
    <path fill="#5D5D5D"/>
    <path fill="#5D5D5D"/>
    <path fill="#B3B3B3"/>
    <path fill="#B3B3B3"/>
    <path fill="#5D5D5D"/>
    <path fill="#B3B3B3"/>
  </g>
</svg>
