<svg xmlns="http://www.w3.org/2000/svg" width="32" height="32" viewBox="0 0 32 32">
  <g fill="none" fill-rule="evenodd" transform="translate(6 6)">
    <path stroke="#4A4A4A" stroke-width="1.5" d="M9.86047719,15.6691131 L18.7657378,10.5838146 C18.7657378,10.5838146 19.328769,10.0363553 19.328769,9.72967928 C19.328769,9.42300329 19.2424724,8.6402611 19.2424724,8.6402611 L14.5900752,1.24770847 C14.5900752,1.24770847 13.9447269,0.777928454 13.5598601,0.649173931 C13.1749933,0.520419408 12.4327745,0.697218339 12.4327745,0.697218339 L6.12346036,3.71604605 C6.12346036,3.71604605 5.11769029,4.52999468 4.92906576,5.22113816 C4.74044123,5.91228164 4.62503804,7.44307979 4.7770519,8.12243668 C4.92906576,8.80179356 5.61943844,10.7840744 6.12436994,11.290898 C6.62930145,11.7977216 7.58538559,12.5434203 8.235623,12.8361768 C8.88586042,13.1289334 9.50619508,13.3504091 9.50619508,13.3504091 L9.02195647,14.2927755 L9.86047719,15.6691131 Z"/>
    <ellipse cx="11.515" cy="7.616" stroke="#4A4A4A" stroke-width=".728" rx="3.865" ry="3.816"/>
    <path stroke="#4A4A4A" stroke-width="1.456" d="M9.18602229,14.9884091 L1.42990457,19.3992899"/>
    <rect width=".524" height="3.506" x="1.726" y="18.56" fill="#4A4A4A" transform="rotate(-32 1.988 20.313)" rx=".262"/>
    <path stroke="#4A4A4A" stroke-width=".619" d="M7.76798426,13.122535 C7.76798426,13.122535 6.89728708,12.4803339 6.35028732,12.0607311 C5.80328757,11.6411283 5.22820447,10.8495181 5.02548143,10.2128174 C4.82275839,9.57611678 4.50741775,8.68213158 4.50741775,8.68213158 L4.19696611,10.1389548 C4.19696611,10.1389548 4.46040374,11.2872498 5.40534553,12.2415711 C6.35028732,13.1958925 7.19085461,13.5813141 7.19085461,13.5813141 L7.76798426,13.122535 Z"/>
  </g>
</svg>
