<?xml version="1.0" encoding="UTF-8" standalone="no"?>
<svg width="45px" height="45px" viewBox="0 0 45 45" version="1.1" xmlns="http://www.w3.org/2000/svg" xmlns:xlink="http://www.w3.org/1999/xlink">
    <!-- Generator: Sketch 3.7.2 (28276) - http://www.bohemiancoding.com/sketch -->
    <title>prf_New</title>
    <desc>Created with Sketch.</desc>
    <defs></defs>
    <g id="Page-2---Icons-32x32" stroke="none" stroke-width="1" fill="none" fill-rule="evenodd">
        <g id="prf_New">
            <g id="Group" transform="translate(12.000000, 9.000000)">
                <g id="Group-2" stroke="#4A4A4A">
                    <polygon id="Path-3929-Copy" points="16 6 22 6 22 5 17 0 16 0"></polygon>
                    <polyline id="Path-1436" stroke-width="2" points="11 28 0 28 0 0 17 0 22 5 22 16"></polyline>
                </g>
                <path d="M20,33 C24.418278,33 28,29.418278 28,25 C28,20.581722 24.418278,17 20,17 C15.581722,17 12,20.581722 12,25 C12,29.418278 15.581722,33 20,33 L20,33 Z M20,31 C16.6862915,31 14,28.3137085 14,25 C14,21.6862915 16.6862915,19 20,19 C23.3137085,19 26,21.6862915 26,25 C26,28.3137085 23.3137085,31 20,31 L20,31 Z" id="Shape" fill="#4A4A4A"></path>
                <path d="M20.3461957,24.6538043 L20.3461957,21.5 L19.6538043,21.5 L19.6538043,24.6538043 L16.5,24.6538043 L16.5,25.3461957 L19.6538043,25.3461957 L19.6538043,28.5 L20.3461957,28.5 L20.3461957,25.3461957 L23.5,25.3461957 L23.5,24.6538043 L20.3461957,24.6538043 Z" id="plus" stroke="#4A4A4A" fill="#4A4A4A"></path>
            </g>
        </g>
    </g>
</svg>