<svg xmlns="http://www.w3.org/2000/svg" width="32" height="32" viewBox="0 0 32 32">
  <g fill="none" fill-rule="evenodd" stroke="#4A4A4A" transform="translate(5.68 6.39)">
    <polygon stroke-width=".905" points="19.603 1.755 17.232 10.446 15.652 8.866 11.701 12.817 8.54 9.656 12.491 5.706 10.91 4.125" stroke-linecap="round" stroke-linejoin="round"/>
    <path stroke-width=".71" d="M2.8791748 12.3383301C2.8791748 12.3383301 2.93811035 8.88280029 5.02711548 7.29561401 7.11612061 5.70842773 8.55163452 5.70348755 9.54625854 5.70348755 10.5408826 5.70348755 11.8853931 6.2364209 11.8853931 6.2364209M15.0623657 9.41512695C15.0623657 9.41512695 15.5775317 10.6281592 15.5775317 11.9295081 15.5775317 13.2308569 15.2485327 14.6928918 14.3760266 15.7857996 13.5035205 16.8787073 12.5096765 17.6765906 11.0667957 18.1830896"/>
    <path stroke-width="1.42" d="M.473304443 4.01047729C.473304443 4.01047729 2.30758667 2.19690918 3.75003418 1.52669067 5.19248169.856472168 6.82473633.17793335 9.21899292.17793335 11.6132495.17793335 12.6877832.627750244 13.5225012.990377197 14.3572192 1.35300415 16.3619812 2.63450562 16.3619812 2.63450562M18.7401172 5.0195752C18.7401172 5.0195752 19.755282 6.28226929 20.3819055 8.17583374 21.0085291 10.0693982 21.1072461 11.6663348 21.0093091 12.8759003 20.9113721 14.0854657 20.440061 15.9881738 19.7438416 17.3549585 19.0476221 18.7217432 17.2907361 20.7050977 17.2907361 20.7050977"/>
  </g>
</svg>
