<svg xmlns="http://www.w3.org/2000/svg" width="32" height="32" viewBox="0 0 32 32">
  <g fill="none" fill-rule="evenodd" stroke="#4A4A4A" transform="translate(6.552 4.824)" stroke-linecap="round" stroke-linejoin="round">
    <polygon stroke-width="1.019" points="1.832 11.108 2.613 10.607 4.517 9.891 6.776 9.417 4.517 7.533 6.776 4.702 4.517 5.176 2.613 5.891 1.193 6.801 .354 7.842 .154 8.943 .605 10.03 1.678 11.028"/>
    <polyline stroke-width="1.019" points="17.761 11.098 16.289 10.333 14.224 9.704 11.86 9.331 11.86 11.872 6.891 7.076 11.86 2.057 11.86 4.597 14.224 4.969 16.289 5.599 17.916 6.444 18.992 7.446 19.445 8.536 19.244 9.642 18.992 9.955 18.402 10.687 17.761 11.098"/>
    <polyline stroke-width="1.019" points="19.387 8.639 19.387 13.373 19.187 14.479 18.348 15.524 16.928 16.437 15.024 17.156 12.765 17.631 15.024 14.789 12.765 12.897 15.024 12.421 16.928 11.703 18.348 10.79 19.187 9.745 19.387 8.639"/>
    <polygon stroke-width="1.019" points="7.738 17.57 7.738 20.1 12.707 15.102 7.738 10.327 7.738 12.856 5.374 12.485 3.309 11.858 1.837 11.097 1.683 11.017 1.196 10.567 .607 10.02 .355 9.416 .154 8.933 .154 13.648 .607 14.734 1.683 15.731 3.309 16.573 5.374 17.2"/>
    <path fill="#4A4A4A" stroke-width=".619" d="M10.3672424,17.4556195 L10.3574456,21.9553445 L10.3574456,17.4654722 L10.3672424,17.4556195 Z M10.3772418,12.8628067 L10.4038594,0.63713032 C10.4038594,0.285539813 10.1328538,0 9.79921457,0 C9.4655904,0 9.19455469,0.285539813 9.19455469,0.63713032 L9.19455469,11.7261403 L10.3574456,12.8437808 L10.3574456,0.63713032 L10.3574456,12.8437808 L10.3772418,12.8628067 Z M9.19455469,18.6350075 L9.19455469,21.9553445 C9.19455469,22.2934425 9.45518914,22.568 9.77601524,22.568 C10.0968413,22.568 10.3574456,22.2934425 10.3574456,21.9553445 L10.3574456,17.4654722 L9.19455469,18.6350075 Z"/>
  </g>
</svg>
