<svg xmlns="http://www.w3.org/2000/svg" width="32" height="32" viewBox="0 0 32 32">
  <g fill="none" fill-rule="evenodd" stroke="#4A4A4A" stroke-width="1.456" transform="translate(5.552 5.552)" stroke-linecap="round" stroke-linejoin="round">
    <path d="M0.669117647,15.6102917 C3.01893835,13.6404838 4.04290631,8.06503477 5.57293634,5.75874218 C7.10309087,3.45260647 9.48554819,0.617036837 10.6235809,1.97693688"/>
    <path d="M8.12041176 5.266625C8.12041176 5.266625 10.0559478 2.23052391 11.831853 1.35514364 13.6076806.479920936 13.9474198.160397686 14.9313603.981263628M10.7400074 5.03154167C13.1192312 2.82643299 14.5889086 1.336938 15.93787.744108057 17.2869716.151121903 18.4963133.641632051 17.4399938 2.49713509M13.0833885 6.28221179C13.0833885 6.28221179 16.3961173 3.18041339 17.9741857 2.36367183 19.5523472 1.54693027 21.35726 2.66498939 19.1285234 4.55822361 16.8998023 6.45130098 14.79646 8.19960162 13.9825205 9.84124117 13.168767 11.4830376 12.3288683 13.3692133 18.201154 13.2680422 20.4090922 13.5088139 19.9456555 15.8594359 16.9770753 15.5356882 12.9760338 15.0993188 12.9338483 18.6683869 9.02782498 17.8507042 9.02782498 17.8507042 6.35510166 19.0548765 6.25758824 20.3707292"/>
  </g>
</svg>
