<svg xmlns="http://www.w3.org/2000/svg" width="32" height="32" viewBox="0 0 32 32">
  <g fill="none" fill-rule="evenodd" stroke="#4A4A4A" transform="translate(6.552 6.552)">
    <path stroke-width=".728" d="M2.40607911 16.386665L4.06131941 14.6605088C4.06131941 14.6605088 3.37499805 13.7598398 2.99055859 12.5675977 2.60611914 11.3753555 2.29588379 9.13892383 2.94345898 7.63120312 3.59103418 6.12348242 4.79660638 4.45882227 6.91137891 3.23974219 9.02615144 2.02066211 10.6067432 1.64724219 12.896584 1.64724219 15.1864248 1.64724219 16.3972403 2.02066211 16.3972403 2.02066211M1.67816797 5.52398437L3.7930293 6.1430332M3.34425 3.53389258L5.20424023 4.51374219M5.67808008 1.8825625L7.10653125 3.19815234M8.78132227 1.03939063L9.44587109 2.17920117M.992646484 13.5010586L3.09719922 12.7355566M3.71375977 17.8502187L18.6701074 1.36251172M5.98556055 15.4435176L7.83062109 16.6711289 9.83404297 14.5107676 7.81889062 13.3505176 9.58868066 11.4484932 11.4414727 12.5393379 12.9946934 10.5563555 11.1700723 9.64404492 12.6895234 8.12299414 14.2105742 8.98980469 15.6052559 7.33385352 13.9594355 6.52107422 15.2412559 5.12639258 16.7388457 5.88016406 17.9648574 4.37244336 16.5541797 3.83195312 17.6394258 2.55519824 19.0341074 3.12119336"/>
    <path stroke-width="1.456" d="M2.51991797,16.6533555 C1.44076055,15.2348974 1.29762556,14.9385397 0.711826169,13.5821055 C0.126026779,12.2256712 -0.000710936796,10.4136346 0.292728516,8.4775741 C0.586167968,6.54151355 2.11583897,4.3186786 3.43302842,3.35926861 C4.75021788,2.39985863 7.31794535,0.707827152 9.82799976,0.410122072 C12.3380542,0.112416991 14.3771118,0.164493178 16.245811,0.410122067 C18.1145102,0.655750956 20.6539785,1.60920703 20.6539785,1.60920703 L5.5150977,19.8955859 C5.5150977,19.8955859 3.59907538,18.0718135 2.51991797,16.6533555 Z"/>
    <path stroke-width=".728" d="M15.0953359,2.86721094 L5.60343164,12.8635254 C5.60343164,12.8635254 4.95079102,11.5783281 4.72489062,10.7031641 C4.49899023,9.828 4.63371289,7.16998242 5.98467187,5.7500625 C7.33563086,4.33014258 9.36802369,3.15123047 11.3778438,2.88996094 C13.3876638,2.62869141 15.0953359,2.86721094 15.0953359,2.86721094 Z"/>
  </g>
</svg>
