<svg xmlns="http://www.w3.org/2000/svg" width="32" height="32" viewBox="0 0 32 32">
  <g fill="none" fill-rule="evenodd" transform="translate(2.13 2.13)">
    <path fill="#FCFCFC" d="M19.5814012,7.4689586 C19.5814012,6.24204711 20.5779123,5.24541841 21.8048656,5.24541841 C23.0318189,5.24541841 24.0284816,6.24204711 24.0284816,7.4689586 C24.0284816,8.69587008 23.0318189,9.69249878 21.8048656,9.69249878 C20.5779123,9.69249878 19.5814012,8.69587008 19.5814012,7.4689586 L19.5814012,7.4689586 Z"/>
    <path stroke="#4A4A4A" stroke-width=".71" d="M15.3098635,13.8470081 L21.2197992,8.28815761" stroke-linecap="round" stroke-linejoin="round"/>
    <path fill="#4A4A4A" stroke="#4A4A4A" stroke-width="1.42" d="M15.3110079 13.7287608C15.6995768 14.1172303 15.6995768 14.7470701 15.3110079 15.1355397 14.9225921 15.5240093 14.2926789 15.5240093 13.9042631 15.1355397 13.5158473 14.7470701 13.5158473 14.1172303 13.9042631 13.7287608 14.2926789 13.3402912 14.9225921 13.3402912 15.3110079 13.7287608M22.5254562 7.04099845C22.891092 7.40662761 22.891092 7.99940712 22.5254562 8.36502104 22.1598203 8.73065019 21.5670909 8.73065019 21.2014551 8.36502104 20.8358192 7.99940712 20.8358192 7.40662761 21.2014551 7.04099845 21.5670909 6.67538453 22.1598203 6.67538453 22.5254562 7.04099845"/>
    <polyline stroke="#4A4A4A" stroke-width="1.42" points="19.374 7.435 10.537 5.809 5.089 15.59 12.733 23.931 23.105 19.116 21.861 9.831"/>
    <path stroke="#4A4A4A" stroke-width=".71" d="M14.555,24.85 C20.2407715,24.85 24.85,20.2407715 24.85,14.555 C24.85,8.8692285 20.2407715,4.26 14.555,4.26 C8.8692285,4.26 4.26,8.8692285 4.26,14.555 C4.26,20.2407715 8.72609667,23.1689989 9.53216893,23.5339592" transform="rotate(-148 14.555 14.555)"/>
  </g>
</svg>
