<svg xmlns="http://www.w3.org/2000/svg" width="32" height="32" viewBox="0 0 32 32">
  <g fill="none" fill-rule="evenodd" stroke="#4A4A4A">
    <path stroke-width=".71" d="M24.9176079,15.7923078 C24.9176079,15.7923078 26.2238613,16.8152543 24.2567086,19.8947917 L19.6085294,15.0364589 C22.1549311,11.3643627 20.8518298,9.4536084 20.8518298,9.4536084 C21.2056836,9.4536084 24.9176079,15.7923078 24.9176079,15.7923078 Z" stroke-linecap="round" stroke-linejoin="round"/>
    <path stroke-width="1.42" d="M21.1342245,16.7996354 C27.5797862,13.0985261 26.2503445,6.09828381 21.1342245,9.25305421" stroke-linecap="round"/>
    <path stroke-width=".905" d="M20.9889355,16.49506 C21.3436514,16.8532109 21.3436514,17.4338763 20.9889355,17.7920119 C20.6342196,18.1501627 20.0590741,18.1501627 19.7043582,17.7920119 C19.3494909,17.4338763 19.3494909,16.8532109 19.7043582,16.49506 C20.0590741,16.1369244 20.6342196,16.1369244 20.9889355,16.49506"/>
    <path stroke-width=".71" d="M23.1852849,21.8059269 L18.2857264,16.8569531 C13.5060125,21.6848743 11.5344666,20.1073352 11.5344666,20.1073352 L12.8424786,21.0126044 C12.8789465,21.0436824 17.1559786,24.192306 17.1559786,24.192306 C17.1559786,24.192306 19.0984608,25.8832023 23.160166,21.7805871" stroke-linecap="round" stroke-linejoin="round"/>
    <path stroke-width="1.42" d="M16.5218873,12.5888062 C13.3021864,12.2398731 8.17389314,14.9696759 6.29457367,17.493538 C4.41540583,20.0174002 7.44278556,27.2775192 9.02220233,26.6808965 C10.6925906,26.0499501 11.4211206,19.0081886 12.4653218,17.9565501 C13.5092197,16.9049727 17.0933881,14.2748903 17.0933881,12.8026208 L16.5218873,12.5888062 Z" stroke-linecap="round" stroke-linejoin="round"/>
    <path stroke-width=".71" d="M8.72679443,15.1831836 C8.72679443,15.1831836 8.97865723,13.3409277 9.93254639,12.0349854 C10.8864355,10.729043 12.1564966,9.28460205 13.508374,8.52485352 C14.8602515,7.76510498 15.9243848,7.49053467 16.4752588,7.49053467 C17.0261328,7.49053467 18.1143604,7.6396936 18.4678003,8.18051392 C18.8212402,8.72133423 18.9884265,9.92405273 18.7489575,10.8597412 C18.5094885,11.7954297 17.5103577,13.6727869 16.7521692,14.3583459"/>
    <path stroke-width="1.42" d="M11.852025,20.404613 L18.3920508,25.0898157 C18.3920508,25.0898157 20.6413951,25.4050342 21.9186497,24.7692236 C23.1959044,24.1334131 24.1170323,23.4169995 24.924536,22.3282519 C25.7320396,21.2395044 25.900526,20.2487805 26.0108568,19.3881482 C26.1211876,18.5275159 26.0108568,17.5451123 26.0108568,17.5451123 L19.4660643,7.19811034 C19.4660643,7.19811034 18.1013597,6.14680419 17.0417332,6.14680419 C15.9821068,6.14680419 14.2521751,6.25843506 12.4360936,7.51168213 C10.6200121,8.7649292 9.66265627,9.8299292 8.68571291,11.4097485 C7.70876955,12.9895679 7.47224731,13.9687648 7.34839599,14.8033962 C7.22454468,15.6380275 7.34839599,15.9750002 7.34839599,15.9750002"/>
  </g>
</svg>
