<svg xmlns="http://www.w3.org/2000/svg" width="32" height="32" viewBox="0 0 32 32">
  <g fill="none" fill-rule="evenodd" transform="translate(9.23 4.97)">
    <polygon fill="#4A4A4A" points="11.088 21.682 10.277 22.424 1.972 17.067 2.844 16.703"/>
    <polygon fill="#4A4A4A" points="1.23 22.487 .463 21.775 9.137 16.703 9.956 17.078"/>
    <path stroke="#4A4A4A" stroke-width=".852" d="M7.5555396 3.62765625L4.86149221 3.62765625 4.0104128 4.51510322 2.47513889 11.3690583 3.61574344 10.5187556 4.31793863 19.0165958 5.99822746 13.9390405 8.06140949 19.0294792C8.06140949 19.0294792 8.54574585 10.7648783 8.54574585 10.7220452L9.95602431 12.3604089 8.7122943 4.55592846 7.5555396 3.62765625 7.5555396 3.62765625zM7.21729512.737729276C7.68379515 1.32692387 7.68379515 2.2822428 7.21729512 2.87143739 6.75096356 3.46063198 5.99469103 3.46063198 5.528191 2.87143739 5.06169096 2.2822428 5.06169096 1.32692387 5.528191.737729276 5.99469103.148534686 6.75096356.148534686 7.21729512.737729276" stroke-linecap="round" stroke-linejoin="round"/>
  </g>
</svg>
