<svg xmlns="http://www.w3.org/2000/svg" width="32" height="32" viewBox="0 0 32 32">
  <g fill="none" fill-rule="evenodd">
    <path stroke="#4A4A4A" stroke-width="1.065" d="M23.8327699,7.3285111 L8.70147107,25.1073281" stroke-linecap="round" stroke-linejoin="round"/>
    <path fill="#4A4A4A" d="M6.50924106 25.1865673C6.50924106 23.9811034 7.49182441 23.0018967 8.7014337 23.0018967 9.91104299 23.0018967 10.8937011 23.9811034 10.8937011 25.1865673 10.8937011 26.3920312 9.91104299 27.3712379 8.7014337 27.3712379 7.49182441 27.3712379 6.50924106 26.3920312 6.50924106 25.1865673L6.50924106 25.1865673zM23.7379946 5.06460135C24.9475848 5.06460135 25.9302396 6.04384141 25.9302396 7.24934641 25.9302396 8.45470246 24.9475848 9.43394253 23.7379946 9.43394253 22.5283895 9.43394253 21.5457796 8.45470246 21.5457796 7.24934641 21.5457796 6.04384141 22.5283895 5.06460135 23.7379946 5.06460135z"/>
    <polyline stroke="#4A4A4A" stroke-width="1.42" points="23.828 9.998 23.791 25.212 11.798 25.198"/>
    <polyline stroke="#4A4A4A" stroke-width="1.42" points="20.893 7.182 8.783 7.225 8.802 22.548"/>
  </g>
</svg>
