<svg xmlns="http://www.w3.org/2000/svg" width="32" height="32" viewBox="0 0 32 32">
  <g fill="none" fill-rule="evenodd" transform="translate(7.81 6.39)">
    <path fill="#4A4A4A" stroke="#4A4A4A" stroke-width="1.42" d="M1.65954659 18.2036143C2.02001221 18.5628369 2.02001221 19.1452691 1.65954659 19.5044917 1.29908096 19.8637293.71463349 19.8637293.354167867 19.5044917-.00631278268 19.1452691-.00631278268 18.5628369.354167867 18.2036143.71463349 17.8443917 1.29908096 17.8443917 1.65954659 18.2036143M1.70032627.333654536C2.08333933.715333293 2.08333933 1.33416291 1.70032627 1.71584166 1.3173283 2.09752042.696374883 2.09752042.313376911 1.71584166-.0696361485 1.33416291-.0696361485.715333293.313376911.333654536.696374883-.0480242211 1.3173283-.0480242211 1.70032627.333654536M16.6421045 18.1351319C17.0251175 18.5168106 17.0251175 19.1356402 16.6421045 19.517319 16.2591065 19.8989978 15.6381531 19.8989978 15.2551551 19.517319 14.872142 19.1356402 14.872142 18.5168106 15.2551551 18.1351319 15.6381531 17.7534531 16.2591065 17.7534531 16.6421045 18.1351319M1.70444148 4.70299571C2.08745454 5.08467447 2.08745454 5.70350409 1.70444148 6.08518284 1.32144351 6.4668616.700490091 6.4668616.317492119 6.08518284-.0655209408 5.70350409-.0655209408 5.08467447.317492119 4.70299571.700490091 4.32131696 1.32144351 4.32131696 1.70444148 4.70299571"/>
    <path stroke="#4A4A4A" stroke-width="1.42" d="M1.01967163 2.86010742L1.01967163 3.49964478M1.0323484 7.47606079L1.03804566 16.7967175"/>
    <path stroke="#4A4A4A" stroke-width=".71" d="M3.1105835,5.48083252 C4.13848877,5.57946289 8.21353516,5.71830811 11.3717004,8.07477661 C14.5298657,10.4312451 14.9639954,12.0637598 15.2987146,13.4592322 C15.6334338,14.8547046 15.7611853,16.179801 15.8621558,16.8598999"/>
    <path stroke="#4A4A4A" stroke-width="1.42" d="M3.19916016,18.8132666 L13.6948877,18.8246156"/>
    <path fill="#4A4A4A" d="M3.07929565,0.294331055 L3.07357544,1.47295532 L14.9335742,1.47295532 L14.9335742,10.0093359 C14.9335742,10.0093359 15.5028223,11.0510217 15.8046069,11.7104932 C16.1063916,12.3699646 16.4254236,13.7657837 16.4254236,13.7657837 L16.4254236,0.337232666 L3.07929565,0.294331055 Z"/>
  </g>
</svg>
