<svg xmlns="http://www.w3.org/2000/svg" width="32" height="32" viewBox="0 0 32 32">
  <g fill="none" fill-rule="evenodd" stroke="#4A4A4A" stroke-width="1.456">
    <path d="M25.5027503,15.4380967 L23.5581585,9.55624414 L22.6297627,10.4199443 C22.6297627,10.4199443 20.5404063,8.02106348 15.9451729,8.02106348 C11.0342832,8.02106348 8.46077832,12.6654404 8.3368086,12.9874062 C8.21283887,13.3093721 7.94143855,14.4089258 8.92279887,14.9607021 C9.90415919,15.5124785 10.726536,14.7293809 10.9811406,14.3449414 C11.2357451,13.960502 13.104711,10.9192891 15.9451729,10.9192891 C19.1012911,10.9192891 19.8394222,11.9123799 20.530098,12.508501 L19.5610013,13.5103008 L25.5027503,15.4380967 Z"/>
    <path d="M24.4760077,25.437877 L22.5314159,19.5560244 L21.6030201,20.4197246 C21.6030201,20.4197246 19.5136638,18.0208437 14.9184303,18.0208437 C10.0075406,18.0208437 7.43403575,22.6652207 7.31006602,22.9871865 C7.1860963,23.3091523 6.91469598,24.4087061 7.8960563,24.9604824 C8.87741662,25.5122588 9.69979346,24.7291611 9.954398,24.3447217 C10.2090025,23.9602822 12.0779684,20.9190693 14.9184303,20.9190693 C18.0745485,20.9190693 18.8126796,21.9121602 19.5033554,22.5082812 L18.5342587,23.5100811 L24.4760077,25.437877 Z" transform="rotate(-180 15.828 21.73)"/>
  </g>
</svg>
