<svg xmlns="http://www.w3.org/2000/svg" xmlns:xlink="http://www.w3.org/1999/xlink" width="45" height="45" fill="#4A4A4A">
    <g id="tb_syncing_cloud" fill="inherit" stroke="none" transform="translate(5 6)">
        <path fill-rule="evenodd" d="M12.5 2a7.5 7.5 0 0 0-7.06 10.04l.33.91-.9.36A4.5 4.5 0 0 0 6.5 22h.02l3.45.11-.07 2L6.48 24A6.5 6.5 0 0 1 3.3 11.85a9.52 9.52 0 0 1 16-9 6.5 6.5 0 0 1 9.61 4.5A8.5 8.5 0 0 1 35 15.5h-1 1v.04a4.06 4.06 0 0 1-.02.37c-.02.24-.06.56-.14.92a4.2 4.2 0 0 1-1.32 2.34l-1.25-1.56c.28-.23.5-.68.62-1.22a4.87 4.87 0 0 0 .1-.84l.01-.05a6.5 6.5 0 0 0-5.2-6.37l-.76-.15-.05-.77a4.5 4.5 0 0 0-7.26-3.26l-.77.6-.62-.76A7.48 7.48 0 0 0 12.5 2z"/>
        <path fill-rule="evenodd" d="M30.22 24.77v.08a8.6 8.6 0 0 1-2.97 4.8 8.11 8.11 0 0 1-5.3 1.85 8.3 8.3 0 0 1-5.82-2.35l-1.42 1.43a.68.68 0 0 1-.5.21.68.68 0 0 1-.5-.2.68.68 0 0 1-.21-.5v-4.96c0-.2.07-.36.21-.5.14-.14.3-.21.5-.21h4.96c.19 0 .35.07.5.2.13.15.2.31.2.5a.7.7 0 0 1-.2.5l-1.52 1.52A5.71 5.71 0 0 0 22 28.67a5.57 5.57 0 0 0 4.83-2.7c.08-.13.27-.56.58-1.3.06-.17.17-.25.33-.25h2.13c.1 0 .18.03.25.1s.1.15.1.25zm.28-8.85v4.96a.7.7 0 0 1-.21.5.68.68 0 0 1-.5.2h-4.96a.68.68 0 0 1-.5-.2.68.68 0 0 1-.2-.5c0-.2.07-.36.2-.5l1.53-1.53A5.5 5.5 0 0 0 22 17.33a5.57 5.57 0 0 0-4.83 2.7c-.08.13-.27.56-.58 1.3-.06.17-.17.25-.33.25h-2.2a.34.34 0 0 1-.26-.1.34.34 0 0 1-.1-.25v-.08a8.63 8.63 0 0 1 2.99-4.8A8.17 8.17 0 0 1 22 14.5a8.57 8.57 0 0 1 5.85 2.35l1.44-1.43a.69.69 0 0 1 .5-.21.7.7 0 0 1 .71.7z"/>
    </g>
</svg>