<svg xmlns="http://www.w3.org/2000/svg" width="32" height="32" viewBox="0 0 32 32">
  <g fill="none" fill-rule="evenodd">
    <polyline fill="#FFFFFF" points="25.671 23.02 11.062 27.04 8.217 18.429 6.2 6.781 20.07 5.04 27.2 10.445 25.671 23.02"/>
    <path fill="#E72B2D" d="M25.6714136,23.0202805 L11.0622486,27.0399998 L8.21680342,18.4292532 L6.19999969,6.78134054 L20.0697806,5.03999978 L27.1999997,10.4446474 L25.6714136,23.0202805 Z M8.65686352,9.81810336 L17.3463899,8.59202852 L20.4728923,11.727974 L25.5850622,10.8446034 L19.8235961,6.4777449 L7.86060383,7.97959587 L8.65686352,9.81810336 Z M10.35151,19.0848262 L11.1419576,21.3091784 L15.5799222,20.2403443 L14.4913962,18.1700075 L10.35151,19.0848262 Z M17.319405,11.719104 L9.10605694,13.1197564 L9.9110348,15.1965442 L14.3377903,14.3623617 L15.4856829,16.2750546 L20.285244,15.2836313 L17.319405,11.719104 Z"/>
  </g>
</svg>
