<svg xmlns="http://www.w3.org/2000/svg" width="32" height="32" viewBox="0 0 32 32">
  <g fill="none" fill-rule="evenodd" transform="translate(6 5)">
    <polyline fill="#A5AAB1" points="1.778 16.939 1.414 10.381 7.518 8.817 7.531 14.661 1.778 16.939"/>
    <polyline fill="#767A7E" points="7.461 8.923 1.366 10.47 .289 10.098 7.108 8.457 7.46 8.545 7.461 8.923"/>
    <polyline fill="#AAAAAA" points="13.865 1.701 15.477 1.815 12.478 2.123 10.836 1.988 13.865 1.701"/>
    <polyline fill="#A5AAB1" points="7.18 8.436 .33 10.11 .289 9.477 7.177 7.882 7.18 8.436"/>
    <polyline fill="#A5AAB1" points="7.609 8.457 7.253 8.368 7.25 7.815 8.044 7.092 8.164 7.254 7.608 7.756 7.609 8.457"/>
    <polyline fill="#5C6063" points=".289 9.392 5.398 3.642 7.953 7.089 7.167 7.808 .289 9.392"/>
    <polyline fill="#2F201C" points="19.344 10.757 19.274 11.445 16.71 12.573 12.664 14.351 12.7 13.532 19.344 10.757"/>
    <polyline fill="#EEEEEE" points="12.693 14.424 16.742 12.626 16.296 18.299 10.625 21.754 10.777 16.074 10.839 13.773 12.693 14.424"/>
    <polyline fill="#A5AAB1" points="10.893 13.77 10.831 16.076 7.618 14.781 7.604 8.895 7.603 8.509 7.602 7.809 8.153 7.307 12.453 13.137 10.893 13.77"/>
    <polyline fill="#767A7E" points="10.836 13.694 12.398 13.057 12.734 13.516 12.698 14.351 10.836 13.694"/>
    <polyline fill="#767A7E" points="7.569 14.782 10.766 16.074 10.614 21.754 1.836 17.07 7.569 14.782"/>
    <polyline fill="#969481" points="12.297 13.179 8.014 7.369 7.895 7.208 5.352 3.756 10.769 3.067 10.688 6.355 12.197 8.305 15.062 7.521 15.165 5.857 19.273 10.83 12.631 13.632 12.297 13.179"/>
    <polyline fill="#EDEDED" points="10.836 6.218 10.918 2.925 10.943 1.917 12.594 2.06 12.36 8.17 10.836 6.218"/>
    <polyline fill="#EEEEEE" points="12.313 8.098 12.545 2.027 15.547 1.701 15.299 5.662 15.196 7.318 12.313 8.098"/>
    <path stroke="#000000" stroke-width=".75" d="M7.61675 14.7104167L7.6015625 8.81666667M7.6015625 14.7822917L10.8359375 16.0760417M1.8359375 17.0822917L7.6015625 14.7822917M12.6640625 13.5604167L19.34375 10.7572917M.2890625 9.46354167L7.1796875 7.88229167M.2890625 10.1104167L7.109375 8.45729167" stroke-linecap="round" stroke-linejoin="round"/>
    <polyline stroke="#000000" stroke-width=".75" points="7.602 8.529 7.253 8.439 7.25 7.882" stroke-linecap="round" stroke-linejoin="round"/>
    <path stroke="#000000" stroke-width=".75" d="M8.0234375 7.09166667L7.25 7.81041667M1.4140625 10.3979167L7.53125 8.81666667" stroke-linecap="round" stroke-linejoin="round"/>
    <polyline stroke="#000000" stroke-width=".75" points="10.836 6.301 12.339 8.242 15.195 7.462" stroke-linecap="round" stroke-linejoin="round"/>
    <polyline stroke="#000000" stroke-width=".75" points="12.224 8.17 12.453 2.06 10.836 1.917" stroke-linecap="round" stroke-linejoin="round"/>
    <path stroke="#000000" stroke-width=".75" d="M15.4765625 1.70104167L12.5234375 2.06041667M16.25 18.3041667L16.671875 12.6260417M7.6015625 7.81041667L8.1640625 7.30729167M10.625 21.6822917L16.3203125 18.2322917M5.3515625 3.78541667L10.765625 3.06666667" stroke-linecap="round" stroke-linejoin="round"/>
    <polyline stroke="#000000" stroke-width=".75" points="15.336 5.726 19.484 10.708 19.414 11.404" stroke-linecap="round" stroke-linejoin="round"/>
    <path stroke="#000000" stroke-width=".75" d="M10.8359375 13.7041667L12.3828125 13.0572917M13.859375 1.70104167L10.8359375 1.98854167" stroke-linecap="round" stroke-linejoin="round"/>
    <polyline stroke="#000000" stroke-width=".75" points="7.604 8.96 7.603 8.577 7.602 7.882" stroke-linecap="round" stroke-linejoin="round"/>
    <polyline stroke="#000000" stroke-width=".75" points="12.664 14.423 16.71 12.619 19.273 11.476" stroke-linecap="round" stroke-linejoin="round"/>
    <path stroke="#000000" stroke-width=".75" d="M10.9553281 1.91666667L10.8359375 6.22916667M15.4765625 1.70104167L15.125 7.37916667M12.6640625 14.4229167L10.8359375 13.7760417M5.3515625 3.64166667L12.6640625 13.4885417M.2890625 9.39166667L5.3515625 3.64166667M10.625 21.7541667L1.8359375 17.0822917M12.6640625 14.4229167L10.8359375 13.7760417M.2890625 9.39166667L5.3515625 3.64166667M10.625 21.7541667L1.8359375 17.0822917" stroke-linecap="round" stroke-linejoin="round"/>
    <polyline stroke="#000000" stroke-width=".75" points="10.836 13.776 10.775 16.076 10.625 21.754" stroke-linecap="round" stroke-linejoin="round"/>
    <polyline stroke="#000000" stroke-width=".75" points="5.352 3.642 7.907 7.083 8.027 7.244 12.328 13.036 12.664 13.489" stroke-linecap="round" stroke-linejoin="round"/>
    <polygon stroke="#4A4949" stroke-width="2.25" points="1.769 16.999 1.406 10.413 .329 10.035 .289 9.404 5.38 3.642 12.664 13.526 12.628 14.354 10.775 13.703 10.561 21.682"/>
    <path stroke="#000000" stroke-width=".75" d="M1.40563203,10.412971 L0.329341434,10.0348574 L0.2890625,9.40396432 L5.3799451,3.64166667 L10.4329336,10.4984086 C11.1766432,11.5075985 12.6640625,13.5259783 12.6640625,13.5259783 L12.6279051,14.3539895 L10.7748868,13.7031351 L10.5611274,21.6822917 L1.76851712,16.9990573 L1.40563203,10.412971 Z"/>
  </g>
</svg>
