<svg xmlns="http://www.w3.org/2000/svg" width="32" height="32" viewBox="0 0 32 32">
  <g fill="none" fill-rule="evenodd">
    <path fill="#4A4A4A" d="M7.25,7.25 L24.75,7.25 L24.75,24.75 L7.25,24.75 L7.25,7.25 Z M6,6 L6,26 L26,26 L26,6 L6,6 Z"/>
    <path fill="#4A4A4A" d="M21,14.9696293 L21,25.689939 L21,26 L20.7111592,26 L7.2888408,26 L7,26 L7,25.689939 L7,11.3431831 L7,11.0331221 L7.2888408,11.0331221 L18.3868639,11.0331221 L18.3788176,11 L18.3993512,11.0331221 L18.3868639,11.0331221 L18.5035139,11.513305 L18.5327013,11.6334533 L18.1581937,11.9287458 L7.4375,11.9287458 L7.4375,25.5139423 L20.125,25.5139423 L20.0876158,15.8692259 L21,14.9696293 Z"/>
    <polygon stroke="#4A4A4A" stroke-width=".85" points="17.143 15.857 18.571 14.429 22.143 18 25 15.143 21.429 11.571 22.857 10.143 15 8" stroke-linecap="round" stroke-linejoin="round" transform="matrix(-1 0 0 1 40 0)"/>
  </g>
</svg>
