<svg xmlns="http://www.w3.org/2000/svg" fill="#4A4A4A" width="32" height="32" viewBox="0 0 32 32">
  <g id="tb_trim" transform="translate(5 5)" fill="inherit" stroke="none">
    <path fill-opacity=".25" d="M22 7v15H7v-7H0V0h15v7h7z"/>
    <path d="M22 7h.7v-.7H22V7zm0 15v.7h.7V22H22zM7 22h-.7v.7H7V22zm8-7v.7h.7V15H15zm0-15h.7v-.7H15V0zM0 0v-.7h-.7V0H0zm0 15h-.7v.7H0V15zm21.3-8v15h1.4V7h-1.4zm.7 14.3H7v1.4h15v-1.4zM14.3 7v8h1.4V7h-1.4zm.7.7h7V6.3h-7v1.4zm0 6.6H7v1.4h8v-1.4zM7.7 22v-7H6.3v7h1.4zm8-15V0h-1.4v7h1.4zM15-.7H0V.7h15V-.7zM-.7 0v15H.7V0H-.7zM0 15.7h7v-1.4H0v1.4z"/>
  </g>
</svg>
