<svg xmlns="http://www.w3.org/2000/svg" width="32" height="32" viewBox="0 0 32 32">
  <path fill="none" stroke="#4A4A4A" stroke-width="1.5" d="M14.1369673,17.0598934 C13.6216096,17.5199668 12.9368296,17.75 12.0826065,17.75 L2.82739347,17.75 C1.97317044,17.75 1.28839036,17.5199668 0.77303267,17.0598934 C0.25767498,16.5998201 0,15.9726072 0,15.1782359 C0,14.8273886 0.0123542799,14.4848211 0.0370632102,14.1505232 C0.0617721406,13.8162253 0.11118926,13.4554538 0.185316051,13.0681978 C0.259442842,12.6809418 0.35298239,12.3218252 0.4659375,11.9908372 C0.57889261,11.6598492 0.730673763,11.3371407 0.921285511,11.0227021 C1.11189726,10.7082634 1.3307445,10.4401672 1.57783381,10.2184052 C1.82492311,9.99664321 2.12672052,9.81956728 2.48323509,9.68717207 C2.83974965,9.55477686 3.23332171,9.48858025 3.66396307,9.48858025 C3.72750032,9.48858025 3.87575168,9.5597416 4.10872159,9.70206645 C4.34169151,9.8443913 4.60466118,10.0032632 4.89763849,10.1786868 C5.19061581,10.3541105 5.57183359,10.5129823 6.04130327,10.6553072 C6.51077294,10.797632 6.98200048,10.8687934 7.455,10.8687934 C7.92799952,10.8687934 8.39922706,10.797632 8.86869673,10.6553072 C9.33816641,10.5129823 9.71938419,10.3541105 10.0123615,10.1786868 C10.3053388,10.0032632 10.5683085,9.8443913 10.8012784,9.70206645 C11.0342483,9.5597416 11.1824997,9.48858025 11.2460369,9.48858025 C11.6766783,9.48858025 12.0702503,9.55477686 12.4267649,9.68717207 C12.7832795,9.81956728 13.0850769,9.99664321 13.3321662,10.2184052 C13.5792555,10.4401672 13.7981027,10.7082634 13.9887145,11.0227021 C14.1793262,11.3371407 14.3311074,11.6598492 14.4440625,11.9908372 C14.5570176,12.3218252 14.6505572,12.6809418 14.7246839,13.0681978 C14.7988107,13.4554538 14.8482279,13.8162253 14.8729368,14.1505232 C14.8976457,14.4848211 14.91,14.8273886 14.91,15.1782359 C14.91,15.9726072 14.652325,16.5998201 14.1369673,17.0598934 Z M11.5213636,3.81296296 C11.5213636,4.86550488 11.1242618,5.76412388 10.3300462,6.50884693 C9.53583055,7.25356999 8.57749141,7.62592593 7.455,7.62592593 C6.33250859,7.62592593 5.37416945,7.25356999 4.57995384,6.50884693 C3.78573822,5.76412388 3.38863636,4.86550488 3.38863636,3.81296296 C3.38863636,2.76042105 3.78573822,1.86180205 4.57995384,1.11707899 C5.37416945,0.372355941 6.33250859,5.68434189e-14 7.455,5.68434189e-14 C8.57749141,5.68434189e-14 9.53583055,0.372355941 10.3300462,1.11707899 C11.1242618,1.86180205 11.5213636,2.76042105 11.5213636,3.81296296 L11.5213636,3.81296296 Z" transform="translate(8.52 7.1)"/>
</svg>
