<?xml version="1.0" encoding="UTF-8" standalone="no"?>
<svg width="45px" height="45px" viewBox="0 0 45 45" version="1.1" xmlns="http://www.w3.org/2000/svg" xmlns:xlink="http://www.w3.org/1999/xlink">
    <!-- Generator: Sketch 3.7.2 (28276) - http://www.bohemiancoding.com/sketch -->
    <title>tb_uploadCloud</title>
    <desc>Created with Sketch.</desc>
    <defs></defs>
    <g id="Page-2---Icons" stroke="none" stroke-width="1" fill="none" fill-rule="evenodd">
        <g id="tb_uploadCloud" stroke="#4A4A4A" stroke-width="2">
            <path d="M22,29 L31.5,29 C35.6421356,29 39,25.6421356 39,21.5 C39,17.8676439 36.4177912,14.838395 32.9889039,14.1477835 C32.8073005,11.2743429 30.4192509,9 27.5,9 C26.224048,9 25.049577,9.43449198 24.1164708,10.1635923 C22.5582861,8.23406755 20.173259,7 17.5,7 C12.8055796,7 9,10.8055796 9,15.5 C9,16.5092264 9.17588713,17.4773721 9.49868011,18.375456 C7.45069824,19.1758655 6,21.1685184 6,23.5 C6,26.5375661 8.46243388,29 11.5,29 L12.9908854,29" id="Oval-38"></path>
            <polygon id="Path-1426" fill="#4A4A4A" transform="translate(18.000000, 27.503540) scale(1, -1) translate(-18.000000, -27.503540) " points="14 30 18 36 22 30 19.0356445 30.0345459 19.0285645 19.0070801 17.0561523 19.0302734 17.0410156 30.0511475"></polygon>
        </g>
    </g>
</svg>