<svg xmlns="http://www.w3.org/2000/svg" fill="#4A4A4A" width="32" height="32" viewBox="0 0 32 32">
  <g id="tb_union" transform="translate(5 5)" fill="inherit" stroke="none">
    <path fill-opacity=".25" fill-rule="evenodd" d="M7 22h15V7h-7V0H0v15h7v7zm11-4h-5v-5h5v5z"/>
    <path d="M22 7h.7v-.7H22V7zM7 22h-.7v.7H7V22zm15 0v.7h.7V22H22zM15 0h.7v-.7H15V0zM0 0v-.7h-.7V0H0zm0 15h-.7v.7H0V15zm18-2h.7v-.7H18v.7zm-5 5h-.7v.7h.7V18zm5 0v.7h.7V18H18zM15 7h-.7v.7h.7V7zm-8 8h.7v-.7H7v.7zm6-2v-.7h-.7v.7h.7zm-6 9.7h15v-1.4H7v1.4zm15.7-.7V7h-1.4v15h1.4zM15-.7H0V.7h15V-.7zM-.7 0v15H.7V0H-.7zM13 18.7h5v-1.4h-5v1.4zm5.7-.7v-5h-1.4v5h1.4zM14.3 0v7h1.4V0h-1.4zm.7 7.7h7V6.3h-7v1.4zM7.7 22v-7H6.3v7h1.4zM7 14.3H0v1.4h7v-1.4zm5.3-1.3v5h1.4v-5h-1.4zm.7.7h5v-1.4h-5v1.4z"/>
  </g>
</svg>