<svg xmlns="http://www.w3.org/2000/svg" width="32" height="32" viewBox="0 0 32 32">
  <g fill="none" fill-rule="evenodd" transform="translate(6 5)">
    <polyline stroke="#4A4A4A" stroke-width=".533" points="3.546 13.306 3.546 15.245 4.88 15.245" stroke-linecap="round" stroke-linejoin="round" transform="rotate(-6 4.213 14.276)"/>
    <path fill="#4A4A4A" d="M13.4084665,12.5392986 L13.4084665,13.2745723 C13.4084665,13.3713604 13.3871318,13.4426495 13.3444617,13.4884417 C13.3017917,13.5342339 13.2461134,13.5571297 13.177425,13.5571297 C13.103533,13.5571297 13.0462936,13.5331932 13.0057051,13.4853195 C12.9651165,13.4374458 12.9448225,13.3671974 12.9448225,13.2745723 L12.9448225,11.513662 C12.9448225,11.4137517 12.9671979,11.3414219 13.0119494,11.2966704 C13.0567009,11.2519189 13.1290307,11.2295435 13.228941,11.2295435 L13.9829478,11.2295435 C14.087021,11.2295435 14.1760023,11.2339666 14.2498943,11.2428128 C14.3237863,11.251659 14.3903922,11.2696114 14.4497139,11.2966704 C14.5215244,11.3268516 14.5850082,11.3700414 14.640167,11.4262409 C14.6953258,11.4824405 14.7372146,11.5477455 14.7658348,11.6221578 C14.7944549,11.6965702 14.8087648,11.7754045 14.8087648,11.858663 C14.8087648,12.0293431 14.7606316,12.165677 14.6643639,12.2676688 C14.5680961,12.3696606 14.4221356,12.4419904 14.2264779,12.4846604 C14.3086958,12.5283711 14.3872699,12.5928956 14.4622026,12.6782356 C14.5371354,12.7635757 14.6040014,12.8543782 14.6628028,12.9506459 C14.7216042,13.0469137 14.7673957,13.1338135 14.8001788,13.2113481 C14.8329618,13.2888826 14.8493531,13.3422194 14.8493531,13.3713599 C14.8493531,13.4015411 14.8397265,13.4314617 14.8204729,13.4611226 C14.8012194,13.4907835 14.7749413,13.5141996 14.7416379,13.5313717 C14.7083344,13.5485437 14.6698279,13.5571297 14.6261171,13.5571297 C14.5740805,13.5571297 14.5303704,13.5449012 14.4949855,13.520444 C14.4596006,13.4959868 14.4291597,13.4650255 14.4036617,13.4275591 C14.3781638,13.3900928 14.34356,13.3349348 14.2998492,13.2620835 L14.1140794,12.9529876 C14.0474726,12.8395478 13.9878915,12.7531683 13.9353345,12.6938465 C13.8827776,12.6345248 13.8294408,12.5939368 13.7753228,12.5720815 C13.7212047,12.5502261 13.6530377,12.5392986 13.5708199,12.5392986 L13.4084665,12.5392986 Z M13.4084665,11.5776667 L13.4084665,12.2067863 L13.8237166,12.2067863 C13.9350749,12.2067863 14.0287394,12.1971596 14.1047129,12.1779061 C14.1806863,12.1586525 14.2387063,12.12587 14.2787745,12.0795574 C14.3188427,12.0332448 14.3388765,11.9695009 14.3388765,11.8883238 C14.3388765,11.8248391 14.3227454,11.7689006 14.2904827,11.7205065 C14.25822,11.6721125 14.2134691,11.6359476 14.1562289,11.6120107 C14.1021108,11.5891146 13.9954373,11.5776667 13.8362053,11.5776667 L13.4084665,11.5776667 Z" transform="rotate(32 13.897 12.393)"/>
    <path stroke="#4A4A4A" stroke-width=".75" d="M12.5113525 8.87713623L16.9411011 11.7728882M11.1132812 12.6127319C11.3659668 12.9449463 12.1657715 13.9200439 12.9036255 14.2583618 13.6414795 14.5966797 14.6987915 14.5966797 15.1171875 14.5966797M1.17590332 12.9053345L6.64404297 11.7880859M1.77368164 15.8571167C2.32592773 16.0480347 3.14697266 16.5234375 4.26947021 16.366333 5.39196777 16.2092285 6.18927002 15.7025757 6.61584473 15.5198364"/>
    <path stroke="#4A4A4A" stroke-width="1.5" d="M4.07751465 1.94213867C5.62243635 1.94213867 8.14264277 4.23985308 7.76391602 7.94677734 7.59075129 9.6416893 7.3590749 10.1538674 6.95916748 10.9385376 6.74462891 11.3594901 6.5329864 11.528003 6.50976563 11.6711426 6.26159668 13.2009277 6.46514893 14.7955322 6.59442139 15.762207 6.60437247 15.8366193 6.878479 16.3416748 6.95916748 16.9221191 7.03985596 17.5025635 6.89195778 20.5319625 4.43041992 20.7530518 2.88513184 20.8918457 2.68701172 20.4188232 2.1875 19.4520264 1.74658383 18.5986402 1.64770861 17.2075764 1.67254639 16.3466187 1.6758472 16.2322017 1.86083984 15.9263454 1.86083984 15.8339844 1.86083984 15.0466309 1.56884766 13.7167358 1.28637695 12.9071655 1.25705693 12.8231334.885626148 12.4415089.846740723 12.3364258.511001847 11.4291328.128306603 9.74125902.306518555 7.94677734.505371094 5.94445801 1.71179199 1.94213867 4.07751465 1.94213867zM18.5280762 1.28222656C19.715858 1.99887562 20.2733154 4.81843958 19.6864014 7.28405762 19.1616975 9.48833126 18.1900968 10.7808593 17.5001831 11.4252319 17.4183852 11.5016304 16.8666523 11.7346425 16.8023071 11.7907715 16.1952515 12.3203125 15.1740723 14.1422119 14.9088135 14.9980469 14.8832645 15.0804784 14.8360082 15.5263905 14.8065796 15.6116943 14.5304694 16.4120467 14.1004139 16.9582663 13.4207764 17.6226807 12.6687012 18.3579102 11.7646484 18.7165527 11 18.2568359 10.2353516 17.7971191 9.6663208 17.34021 9.82318115 15.9910889 9.91639003 15.18942 10.3463291 13.9410833 10.6421509 13.3009033 10.70591 13.162924 11.1445117 12.7250506 11.1915894 12.6618042 11.4570923 12.3051147 12.2441406 10.4602051 12.4202881 9.36962891 12.4389593 9.25403055 12.3458321 8.76468969 12.3546143 8.61450195 12.4286843 7.34779099 12.3776457 5.35590714 13.5710449 3.54125977 14.5427856 2.06365967 16.8668213.279907227 18.5280762 1.28222656z"/>
  </g>
</svg>
