<svg xmlns="http://www.w3.org/2000/svg" width="32" height="32" viewBox="0 0 32 32">
  <g fill="none" fill-rule="evenodd" stroke="#4A4A4A" transform="translate(4.096 4.824)">
    <polygon stroke-width="1.456" points="22.795 .049 16.854 1.69 18.089 2.981 16.046 4.861 17.812 6.683 19.857 4.861 21.15 6.037"/>
    <polygon stroke-width="1.456" points="7.083 .106 1.143 1.747 2.377 3.038 .335 4.918 2.1 6.74 4.145 4.918 5.438 6.094" transform="rotate(-90 3.709 3.423)"/>
    <polygon stroke-width="1.456" points="22.852 15.419 16.912 17.06 18.146 18.351 16.103 20.232 17.869 22.053 19.914 20.232 21.207 21.407" transform="rotate(90 19.478 18.736)"/>
    <polygon fill="#FFFFFF" stroke-width=".582" points="7.034 16.016 6.552 15.528 7.526 14.56 8.008 15.048"/>
    <path stroke-width="1.456" d="M15.2948816,14.4812165 C13.3298939,16.4936493 10.0990325,16.532013 8.08672951,14.5668955 C6.07438818,12.6019058 6.03598613,9.37104125 8.00105062,7.35873632 C9.96616626,5.34643139 13.1968998,5.30793979 15.2093306,7.27305735 C17.2216336,9.23804703 17.2599973,12.4689116 15.2948816,14.4812165 Z" stroke-linecap="round" stroke-linejoin="round"/>
    <path fill="#4A4A4A" stroke-width=".582" d="M6.92686645,17.3633487 L2.12936303,22.1997742 C1.65042914,22.6826323 0.864576772,22.6917623 0.374068935,22.2203487 L0.374108124,22.2203487 C-0.11638665,21.7490637 -0.125792111,20.975462 0.353141785,20.4926038 L5.1506452,15.6561784 C5.62959216,15.1734488 6.41544453,15.1641903 6.90595237,15.6356039 L6.90591318,15.6356039 C7.39638182,16.1070174 7.40578729,16.8804906 6.92686645,17.3633487 L6.92686645,17.3633487 Z" stroke-linecap="round" stroke-linejoin="round"/>
  </g>
</svg>
