<svg xmlns="http://www.w3.org/2000/svg" width="32" height="32" viewBox="0 0 32 32">
  <g fill="none" fill-rule="evenodd" stroke="#4A4A4A" transform="translate(5.552 5.824)">
    <polygon fill="#4A4A4A" stroke-width=".728" points="9.344 13.168 8.642 12.473 10.06 11.094 10.762 11.79"/>
    <path stroke-width="1.456" d="M19.0897112,2.28597278 C21.5378458,4.69944504 21.5845185,8.66771112 19.1937912,11.1392977 C16.8032195,13.6110413 12.8726068,13.6581611 10.4244722,11.2445317 C7.97629092,8.83105949 7.92957162,4.86279342 10.3202367,2.39120683 C12.710964,-0.0803797467 16.641421,-0.127656536 19.0897112,2.28597278 L19.0897112,2.28597278 Z" stroke-linecap="round" stroke-linejoin="round"/>
    <path fill="#4A4A4A" stroke-width=".728" d="M8.74750826,15.0480592 L3.03151223,20.9437122 C2.46088538,21.5323213 1.52457984,21.5434508 0.940163198,20.9687928 L0.940209891,20.9687928 C0.35580881,20.3942915 0.344602653,19.4512629 0.915229499,18.8626538 L6.63122553,12.9670008 C7.20186794,12.3785484 8.13817348,12.3672622 8.72259012,12.9419202 L8.72254343,12.9419202 C9.30691338,13.5165783 9.31811954,14.4594501 8.74750826,15.0480592 L8.74750826,15.0480592 Z" stroke-linecap="round" stroke-linejoin="round"/>
  </g>
</svg>
