<svg xmlns="http://www.w3.org/2000/svg" width="170" height="32" viewBox="0 0 170 32">
  <g fill="none" fill-rule="evenodd">
    <g transform="translate(2 3)">
      <path fill="#005F9E" d="M22.4303714,3.22682927 L13.5676393,0 L4.70490716,3.22682927 C5.12068966,4.76341463 5.60212202,6.27804878 6.14920424,7.77073171 C7.61538462,7.04634146 9.10344828,6.4097561 10.6790451,5.83902439 C14.5742706,4.43414634 18.5132626,3.57804878 22.4303714,3.22682927 L22.4303714,3.22682927 Z"/>
      <path fill="#FFBE00" d="M17.0033156,17.9121951 C15.7559682,18.9658537 14.5742706,20.0634146 13.4582228,21.2268293 C14.9462865,23.2243902 16.5656499,25.0902439 18.2944297,26.8243902 L25.5159151,20.7439024 L27.1571618,11.4365854 C23.5901857,13.104878 20.1545093,15.2560976 17.0033156,17.9121951 L17.0033156,17.9121951 Z"/>
      <path fill="#009AD9" d="M6.17108753,7.79268293 C3.98275862,8.84634146 1.92572944,10.0756098 0,11.4365854 L1.64124668,20.7439024 L8.8627321,26.8243902 C10.2413793,24.8707317 11.7732095,23.004878 13.4582228,21.2268293 C12.2108753,19.5585366 11.0291777,17.7804878 9.95689655,15.9146341 C8.4469496,13.2804878 7.17771883,10.5585366 6.17108753,7.79268293 L6.17108753,7.79268293 Z"/>
      <g fill="#989D9F" transform="translate(33.044 5.707)">
        <polygon points="4.486 13.873 4.486 1.58 .109 1.58 .109 .066 10.526 .066 10.526 1.58 6.127 1.58 6.127 13.895 4.486 13.895"/>
        <path d="M8.92838196 13.8731707L8.92838196 4.01707317 10.5258621 4.01707317 10.5258621 5.83902439 10.5696286 5.83902439C11.2917772 4.69756098 12.4515915 3.79756098 14.377321 3.79756098L14.5742706 3.79756098 14.4648541 5.2902439C14.3992042 5.26829268 14.0490716 5.26829268 14.005305 5.26829268 12.4297082 5.26829268 11.2698939 6.0804878 10.5477454 7.48536585L10.5477454 13.8512195 8.92838196 13.8512195 8.92838196 13.8731707zM15.7122016 1.9097561L15.7122016.329268293 17.3972149.329268293 17.3972149 1.9097561 15.7122016 1.9097561 15.7122016 1.9097561zM15.7559682 13.8731707L15.7559682 4.01707317 17.3534483 4.01707317 17.3534483 13.8731707 15.7559682 13.8731707 15.7559682 13.8731707zM19.5417772 13.8731707L19.5417772 4.01707317 21.1392573 4.01707317 21.1392573 5.5097561C22.0802387 4.56585366 23.1962865 3.8195122 24.6843501 3.8195122 26.3474801 3.8195122 27.0477454 4.52195122 27.3759947 5.55365854 28.3169761 4.6097561 29.5424403 3.8195122 31.0086207 3.8195122 33.0218833 3.8195122 33.8534483 5.00487805 33.8534483 6.76097561L33.8534483 13.8731707 32.2559682 13.8731707 32.2559682 7.11219512C32.2559682 5.79512195 31.8183024 5.1804878 30.5490716 5.1804878 29.4549072 5.1804878 28.535809 5.79512195 27.5072944 6.76097561L27.5072944 13.8512195 25.9098143 13.8512195 25.9098143 7.11219512C25.9098143 5.79512195 25.4721485 5.1804878 24.2029178 5.1804878 23.1306366 5.1804878 22.1896552 5.79512195 21.1392573 6.76097561L21.1392573 13.8512195 19.5417772 13.8512195 19.5417772 13.8731707zM37.4860743 12.6219512L37.4860743 13.895122 35.8885942 13.895122 35.8885942.0658536585 37.4860743.0658536585 37.4860743 5.4C38.2301061 4.56585366 39.2586207 3.8195122 40.7248011 3.8195122 42.9787798 3.8195122 44.729443 5.5097561 44.729443 8.93414634 44.729443 12.3804878 42.9568966 14.0268293 40.5497347 14.0268293 39.3680371 14.0268293 38.3395225 13.5 37.4860743 12.6219512L37.4860743 12.6219512zM43.1319629 8.95609756C43.1319629 6.43170732 41.9502653 5.20243902 40.3527851 5.20243902 39.2148541 5.20243902 38.295756 5.81707317 37.4860743 6.71707317L37.4860743 11.2390244C38.3395225 12.204878 39.3023873 12.7317073 40.3309019 12.7317073 42.0596817 12.7317073 43.1319629 11.5682927 43.1319629 8.95609756L43.1319629 8.95609756z"/>
        <polygon points="46.414 13.873 46.414 .044 48.012 .044 48.012 13.873"/>
        <path d="M49.6750663,8.95609756 C49.6750663,5.37804878 52.0603448,3.8195122 54.117374,3.8195122 C56.4370027,3.8195122 58.2095491,5.46585366 58.2095491,9.04390244 L58.2095491,9.37317073 L51.2506631,9.37317073 C51.316313,11.5902439 52.5855438,12.797561 54.2049072,12.797561 C55.627321,12.797561 56.4151194,12.2268293 57.1591512,11.195122 L58.1001326,12.0073171 C57.1810345,13.3243902 55.933687,14.0926829 54.0954907,14.0926829 C51.7977454,14.0926829 49.6750663,12.3804878 49.6750663,8.95609756 L49.6750663,8.95609756 Z M56.6996021,8.1 C56.5683024,6.34390244 55.7367374,5.15853659 54.117374,5.15853659 C52.8043767,5.15853659 51.5570292,6.0804878 51.316313,8.1 L56.6996021,8.1 L56.6996021,8.1 Z"/>
      </g>
      <g fill="#989D9F" transform="translate(94.755 5.488)">
        <path d="M.196949602 7.13414634C.196949602 2.8097561 2.60411141.0219512195 6.0397878.0219512195 8.97214854.0219512195 10.5039788 1.71219512 11.1385942 4.25853659L9.56299735 4.69756098C8.97214854 2.61219512 8.00928382 1.53658537 5.99602122 1.53658537 3.43567639 1.53658537 1.816313 3.7097561 1.816313 7.13414634 1.816313 10.8 3.45755968 12.8853659 6.01790451 12.8853659 7.96551724 12.8853659 9.19098143 11.7878049 9.75994695 9.54878049L11.3136605 9.9C10.6352785 12.6219512 8.88461538 14.3780488 5.99602122 14.3780488 2.56034483 14.3560976.196949602 11.6560976.196949602 7.13414634L.196949602 7.13414634zM12.2546419 9.17560976C12.2546419 5.77317073 14.4210875 4.03902439 16.8282493 4.03902439 19.2354111 4.03902439 21.4018568 5.77317073 21.4018568 9.17560976 21.4018568 12.5560976 19.2354111 14.3121951 16.8282493 14.3121951 14.4210875 14.3121951 12.2546419 12.5560976 12.2546419 9.17560976L12.2546419 9.17560976zM19.7606101 9.17560976C19.7606101 7.11219512 18.7758621 5.42195122 16.806366 5.42195122 14.9244032 5.42195122 13.852122 6.95853659 13.852122 9.17560976 13.852122 11.2609756 14.8149867 12.9512195 16.806366 12.9512195 18.6883289 12.9512195 19.7606101 11.4365854 19.7606101 9.17560976L19.7606101 9.17560976zM22.9118037 14.0926829L22.9118037 4.23658537 24.5311671 4.23658537 24.5311671 5.70731707C25.3846154 4.87317073 26.6100796 4.01707317 28.229443 4.01707317 30.1114058 4.01707317 31.1399204 5.09268293 31.1399204 6.95853659L31.1399204 14.0707317 29.5424403 14.0707317 29.5424403 7.33170732C29.5424403 6.01463415 28.9734748 5.4 27.7261273 5.4 26.5444297 5.4 25.5596817 6.01463415 24.5311671 6.9804878L24.5311671 14.0707317 22.9118037 14.0707317 22.9118037 14.0926829zM33.1312997 14.0926829L33.1312997 4.23658537 34.7506631 4.23658537 34.7506631 5.70731707C35.6041114 4.87317073 36.8295756 4.01707317 38.448939 4.01707317 40.3309019 4.01707317 41.3594164 5.09268293 41.3594164 6.95853659L41.3594164 14.0707317 39.7619363 14.0707317 39.7619363 7.33170732C39.7619363 6.01463415 39.1929708 5.4 37.9456233 5.4 36.7639257 5.4 35.7791777 6.01463415 34.7506631 6.9804878L34.7506631 14.0707317 33.1312997 14.0707317 33.1312997 14.0926829zM42.7818302 9.17560976C42.7818302 5.59756098 45.1671088 4.03902439 47.2241379 4.03902439 49.5437666 4.03902439 51.316313 5.68536585 51.316313 9.26341463L51.316313 9.59268293 44.3574271 9.59268293C44.4230769 11.8097561 45.6923077 13.0170732 47.3116711 13.0170732 48.7340849 13.0170732 49.5218833 12.4463415 50.2659151 11.4146341L51.2068966 12.2268293C50.2877984 13.5439024 49.0404509 14.3121951 47.2022546 14.3121951 44.9045093 14.3121951 42.7818302 12.6 42.7818302 9.17560976L42.7818302 9.17560976zM49.806366 8.3195122C49.6750663 6.56341463 48.8435013 5.37804878 47.2241379 5.37804878 45.9111406 5.37804878 44.6637931 6.3 44.4230769 8.3195122L49.806366 8.3195122 49.806366 8.3195122zM52.3229443 9.17560976C52.3229443 5.57560976 54.6425729 4.03902439 56.8309019 4.03902439 59.0411141 4.03902439 60.0915119 5.35609756 60.6823607 6.80487805L59.3255968 7.37560976C58.8441645 6.10243902 58.0782493 5.42195122 56.7871353 5.42195122 55.3647215 5.42195122 53.9423077 6.4097561 53.9423077 9.19756098 53.9423077 11.6341463 55.102122 12.995122 56.765252 12.995122 58.0125995 12.995122 58.7785146 12.4463415 59.41313 11.0195122L60.7261273 11.5463415C59.9602122 13.1926829 58.8222812 14.3560976 56.6996021 14.3560976 54.4237401 14.3121951 52.3229443 12.5560976 52.3229443 9.17560976L52.3229443 9.17560976zM62.8269231 11.7219512L62.8269231 5.57560976 61.1200265 5.57560976 61.1200265 4.25853659 62.8269231 4.25853659 62.8269231.746341463 64.4244032.746341463 64.4244032 4.25853659 66.9628647 4.25853659 66.9628647 5.57560976 64.4244032 5.57560976 64.4244032 11.3707317C64.4244032 12.4243902 64.7526525 12.9512195 65.9562334 12.9512195 66.306366 12.9512195 66.7002653 12.8853659 66.9628647 12.8195122L66.9628647 14.1365854C66.678382 14.202439 66.0656499 14.2463415 65.5623342 14.2463415 63.505305 14.2243902 62.8269231 13.4341463 62.8269231 11.7219512L62.8269231 11.7219512z"/>
      </g>
      <path fill="#989D9F" d="M162.483422,7.83658537 L162.242706,7.83658537 L162.242706,6.45365854 L161.717507,6.45365854 L161.717507,6.21219512 L162.964854,6.21219512 L162.964854,6.45365854 L162.461538,6.45365854 L162.461538,7.83658537 L162.483422,7.83658537 Z M163.774536,7.83658537 L163.33687,6.58536585 L163.33687,6.58536585 L163.33687,6.89268293 L163.33687,7.83658537 L163.096154,7.83658537 L163.096154,6.21219512 L163.53382,6.21219512 L163.971485,7.46341463 L164.409151,6.21219512 L164.846817,6.21219512 L164.846817,7.83658537 L164.540451,7.83658537 L164.540451,6.89268293 L164.540451,6.58536585 L164.540451,6.58536585 L164.037135,7.83658537 L163.774536,7.83658537 L163.774536,7.83658537 Z"/>
    </g>
  </g>
</svg>