<?xml version="1.0" encoding="UTF-8" standalone="no"?>
<svg width="45px" height="45px" viewBox="0 0 45 45" version="1.1" xmlns="http://www.w3.org/2000/svg" xmlns:xlink="http://www.w3.org/1999/xlink">
    <!-- Generator: Sketch 3.6.1 (26313) - http://www.bohemiancoding.com/sketch -->
    <title>u_unlock</title>
    <desc>Created with Sketch.</desc>
    <defs></defs>
    <g id="Page-2---Icons" stroke="none" stroke-width="1" fill="none" fill-rule="evenodd">
        <g id="u_unlock" stroke="#4A4A4A" stroke-width="2">
            <path d="M34,22.5 C34,22.758524 33.9124608,22.9822434 33.7373798,23.1711648 C33.5622988,23.3600862 33.3549691,23.4545455 33.1153846,23.4545455 L32.2307692,23.4545455 C31.9911847,23.4545455 31.783855,23.3600862 31.608774,23.1711648 C31.433693,22.9822434 31.3461538,22.758524 31.3461538,22.5 L31.3461538,17.6818182 C31.3461538,16.6278356 31.0006044,15.7279867 30.3094952,14.9822443 C29.618386,14.236502 28.7844602,13.8636363 27.8076925,13.8636363 C26.8309248,13.8636363 25.6911092,14.1178939 25,14.8636363 C24.3088908,15.6093786 24,16.9460172 24,17.9999998 L24,21 L26,21 L26,33 L12,33 L12,21 L21,21 L21,18 C21,16.1605022 22,13.9612926 23,12.9612926 C24,11.9612926 26.1029562,11 27.8076923,11 C29.5124284,11 30.970647,11.6537577 32.1823918,12.9612926 C33.3941367,14.2688276 34,15.8423203 34,17.6818182 L34,22.5 Z" id=""></path>
        </g>
    </g>
</svg>