<?xml version="1.0" encoding="UTF-8" standalone="no"?>
<svg width="46px" height="46px" viewBox="0 0 46 46" version="1.1" xmlns="http://www.w3.org/2000/svg" xmlns:xlink="http://www.w3.org/1999/xlink" xmlns:sketch="http://www.bohemiancoding.com/sketch/ns">
    <!-- Generator: Sketch 3.3.2 (12043) - http://www.bohemiancoding.com/sketch -->
    <title>wi_Browse</title>
    <desc>Created with Sketch.</desc>
    <defs>
        <path d="M22.8776105,16.7714286 L28.2571429,16.7714286 C28.6857164,16.7714286 29.0499985,16.6214301 29.35,16.3214286 C29.6500015,16.0214271 29.8,15.657145 29.8,15.2285714 L29.8,12.1428571 C29.8,11.7142836 29.6500015,11.3500015 29.35,11.05 C29.0499985,10.7499985 28.6857164,10.6 28.2571429,10.6 L23.7843195,10.6 C23.9281069,11.2245222 24,11.8654024 24,12.5226467 C24,13.6767609 23.7783177,14.7804164 23.3349464,15.8336465 C23.1974763,16.1602074 23.0450311,16.4728012 22.8776105,16.7714286 Z M23.0224162,8.54285714 L28.2571429,8.54285714 C28.6857164,8.54285714 29.0499985,8.39285864 29.35,8.09285714 C29.6500015,7.79285564 29.8,7.42857357 29.8,7 L29.8,3.91428571 C29.8,3.48571214 29.6500015,3.12143007 29.35,2.82142857 C29.0499985,2.52142707 28.6857164,2.37142857 28.2571429,2.37142857 L12.8285714,2.37142857 C12.3999979,2.37142857 12.0357158,2.52142707 11.7357143,2.82142857 C11.4357128,3.12143007 11.2857143,3.48571214 11.2857143,3.91428571 L11.2857143,5.17599068 C11.603172,4.9902332 11.9368233,4.82219813 12.2866693,4.67188479 C13.3291909,4.22395936 14.4216253,4 15.5640053,4 C16.7063853,4 17.7988197,4.22395936 18.8413413,4.67188479 C19.8838629,5.11981022 20.782575,5.72510578 21.5375044,6.48778962 C22.1276836,7.08403097 22.6226513,7.76904913 23.0224162,8.54285714 Z M9.22857143,22.1224629 L9.22857143,23.4571429 C9.22857143,23.8857164 9.07857293,24.2499985 8.77857143,24.55 C8.47856993,24.8500015 8.11428786,25 7.68571429,25 L6.27917571,25 L9.22857143,22.1224629 Z M1.08519604,23.9800649 C1.02839856,23.817929 1,23.6436219 1,23.4571429 L1,20.3714286 C1,19.942855 1.1499985,19.5785729 1.45,19.2785714 C1.7500015,18.9785699 2.11428357,18.8285714 2.54285714,18.8285714 L6.35621261,18.8285714 L1.08519604,23.9800649 Z M8.03439149,16.7353314 C7.92332283,16.7593962 7.80709718,16.7714286 7.68571429,16.7714286 L2.54285714,16.7714286 C2.11428357,16.7714286 1.7500015,16.6214301 1.45,16.3214286 C1.1499985,16.0214271 1,15.657145 1,15.2285714 L1,12.1428571 C1,11.7142836 1.1499985,11.3500015 1.45,11.05 C1.7500015,10.7499985 2.11428357,10.6 2.54285714,10.6 L7.34369107,10.6 C7.19990368,11.2245222 7.12801061,11.8654024 7.12801061,12.5226467 C7.12801061,14.1839565 7.21215046,15.4020992 8.03439149,16.7353314 Z M11.3005101,20.1446333 C11.2906462,20.2181179 11.2857143,20.2937163 11.2857143,20.3714286 L11.2857143,23.4571429 C11.2857143,23.8857164 11.4357128,24.2499985 11.7357143,24.55 C12.0357158,24.8500015 12.3999979,25 12.8285714,25 L28.2571429,25 C28.6857164,25 29.0499985,24.8500015 29.35,24.55 C29.6500015,24.2499985 29.8,23.8857164 29.8,23.4571429 L29.8,20.3714286 C29.8,19.942855 29.6500015,19.5785729 29.35,19.2785714 C29.0499985,18.9785699 28.6857164,18.8285714 28.2571429,18.8285714 L21.2559217,18.8285714 C20.5620316,19.4649726 19.7571775,19.9799142 18.8413413,20.3734086 C17.7988197,20.821334 16.7063853,21.0452934 15.5640053,21.0452934 C13.8172036,21.0452934 12.7178377,21.1262399 11.3005101,20.1446333 Z M9.22857143,6.87829861 L9.22857143,3.91428571 C9.22857143,3.48571214 9.07857293,3.12143007 8.77857143,2.82142857 C8.47856993,2.52142707 8.11428786,2.37142857 7.68571429,2.37142857 L2.54285714,2.37142857 C2.11428357,2.37142857 1.7500015,2.52142707 1.45,2.82142857 C1.1499985,3.12143007 1,3.48571214 1,3.91428571 L1,7 C1,7.42857357 1.1499985,7.79285564 1.45,8.09285714 C1.7500015,8.39285864 2.11428357,8.54285714 2.54285714,8.54285714 L7.68571429,8.54285714 C7.84548091,8.54285714 7.99631293,8.52201184 8.13821093,8.480321 C8.44648119,7.89485096 8.80993343,7.36084542 9.22857143,6.87829861 Z" id="path-1"></path>
    </defs>
    <g id="Page-2---Icons" stroke="none" stroke-width="1" fill="none" fill-rule="evenodd" sketch:type="MSPage">
        <g id="wi_Browse" sketch:type="MSArtboardGroup" transform="translate(0.500000, 0.500000)">
            <g id="EntityInfo_Icon" sketch:type="MSLayerGroup" transform="translate(8.000000, 9.000000)">
                <path d="M11.379639,9.54874817 C10.5118262,8.67202142 9.46749676,8.23366462 8.24661939,8.23366462 C7.02574202,8.23366462 5.98141258,8.67202142 5.11359975,9.54874817 C4.24578691,10.4254749 3.811887,11.4805314 3.811887,12.7139492 C3.811887,13.9473671 4.24578691,15.0024236 5.11359975,15.8791503 C5.98141258,16.7558771 7.02574202,17.1942339 8.24661939,17.1942339 C9.46749676,17.1942339 10.5118262,16.7558771 11.379639,15.8791503 C12.2474519,15.0024236 12.6813518,13.9473671 12.6813518,12.7139492 C12.6813518,11.4805314 12.2474519,10.4254749 11.379639,9.54874817 Z M21.3781413,25.9519044 C21.1537639,26.1785866 20.8880577,26.291926 20.5810149,26.291926 C20.2621627,26.291926 19.9964565,26.1785866 19.7838884,25.9519044 L11.6975406,17.9944859 C10.6406047,18.7341857 9.46264068,19.1040301 8.16361326,19.1040301 C7.31924544,19.1040301 6.51179392,18.9384949 5.74123447,18.6074196 C4.97067503,18.2763443 4.30640961,17.8289519 3.74841828,17.2652291 C3.19042696,16.7015062 2.74758335,16.0304177 2.41987416,15.2519433 C2.09216497,14.4734689 1.92831283,13.6577235 1.92831283,12.8046826 C1.92831283,11.9516416 2.09216497,11.1358962 2.41987416,10.3574218 C2.74758335,9.57894742 3.19042696,8.90785887 3.74841828,8.34413603 C4.30640961,7.78041319 4.97067503,7.33302082 5.74123447,7.0019455 C6.51179392,6.67087018 7.31924544,6.505335 8.16361326,6.505335 C9.00798108,6.505335 9.8154326,6.67087018 10.585992,7.0019455 C11.3565515,7.33302082 12.0208169,7.78041319 12.5788082,8.34413603 C13.1367996,8.90785887 13.5796432,9.57894742 13.9073524,10.3574218 C14.2350616,11.1358962 14.3989137,11.9516416 14.3989137,12.8046826 C14.3989137,14.1170532 14.0328296,15.3071169 13.3006505,16.3749094 L21.3869983,24.3412758 C21.6054711,24.5619927 21.7147059,24.8304281 21.7147059,25.1465901 C21.7147059,25.4567868 21.6025188,25.7252222 21.3781413,25.9519044 Z" id="" fill="#4A4A4A" sketch:type="MSShapeGroup" transform="translate(11.821509, 16.398631) scale(-1, 1) translate(-11.821509, -16.398631) "></path>
                <g id="">
                    <use fill="#BABABA" fill-rule="evenodd" sketch:type="MSShapeGroup" xlink:href="#path-1"></use>
                    <use fill="none" xlink:href="#path-1"></use>
                    <use fill="none" xlink:href="#path-1"></use>
                    <use fill="none" xlink:href="#path-1"></use>
                    <use fill="none" xlink:href="#path-1"></use>
                    <use fill="none" xlink:href="#path-1"></use>
                    <use fill="none" xlink:href="#path-1"></use>
                    <use fill="none" xlink:href="#path-1"></use>
                </g>
            </g>
        </g>
    </g>
</svg>