<?xml version="1.0" encoding="UTF-8" standalone="no"?>
<svg width="46px" height="46px" viewBox="0 0 46 46" version="1.1" xmlns="http://www.w3.org/2000/svg" xmlns:xlink="http://www.w3.org/1999/xlink" xmlns:sketch="http://www.bohemiancoding.com/sketch/ns">
    <!-- Generator: Sketch 3.3.2 (12043) - http://www.bohemiancoding.com/sketch -->
    <title>wi_InModel</title>
    <desc>Created with Sketch.</desc>
    <defs></defs>
    <g id="Page-2---Icons" stroke="none" stroke-width="1" fill="none" fill-rule="evenodd" sketch:type="MSPage">
        <g id="wi_InModel" sketch:type="MSArtboardGroup" transform="translate(0.500000, 0.500000)" fill="#4A4A4A">
            <path d="M32.289042,25.1474253 L32.289042,32.9585206 C32.289042,33.2405894 32.1869066,33.4846837 31.9826326,33.6908108 C31.7783587,33.896938 31.536459,34 31.2569262,34 L25.0642316,34 L25.0642316,27.7511238 L20.9357684,27.7511238 L20.9357684,34 L14.7430738,34 C14.463541,34 14.2216413,33.896938 14.0173674,33.6908108 C13.8130934,33.4846837 13.710958,33.2405894 13.710958,32.9585206 L13.710958,25.1474253 C13.710958,25.1365765 13.7136458,25.1203036 13.7190214,25.098606 C13.724397,25.0769084 13.7270848,25.0606354 13.7270848,25.0497866 L23,17.33633 L32.2729152,25.0497866 C32.2836665,25.0714842 32.289042,25.1040301 32.289042,25.1474253 L32.289042,25.1474253 Z M35.8853204,22.9029872 L34.8854583,24.1071977 C34.7994482,24.2048369 34.6865617,24.2645044 34.5467953,24.286202 L34.4984149,24.286202 C34.3586485,24.286202 34.2457619,24.2482318 34.1597519,24.1722902 L23,14.7827027 L11.8402481,24.1722902 C11.711233,24.2590806 11.5822198,24.2970508 11.4532047,24.286202 C11.3134383,24.2645044 11.2005518,24.2048369 11.1145417,24.1071977 L10.1146796,22.9029872 C10.0286695,22.7944992 9.99104064,22.6670278 10.0017919,22.520569 C10.0125432,22.3741102 10.0716742,22.2574874 10.1791868,22.170697 L21.7743625,12.423101 C22.1184028,12.1410323 22.5269446,12 23,12 C23.4730554,12 23.8815972,12.1410323 24.2256375,12.423101 L28.1605789,15.7428165 L28.1605789,12.569559 C28.1605789,12.4176759 28.2089588,12.2929166 28.3057202,12.1952774 C28.4024815,12.0976382 28.5261192,12.0488193 28.6766368,12.0488193 L31.7729841,12.0488193 C31.9235018,12.0488193 32.0471394,12.0976382 32.1439007,12.1952774 C32.2406621,12.2929166 32.289042,12.4176759 32.289042,12.569559 L32.289042,19.20899 L35.8208132,22.170697 C35.9283258,22.2574874 35.9874568,22.3741102 35.9982081,22.520569 C36.0089594,22.6670278 35.9713305,22.7944992 35.8853204,22.9029872 L35.8853204,22.9029872 Z" id="" sketch:type="MSShapeGroup"></path>
        </g>
    </g>
</svg>