<?xml version="1.0" encoding="UTF-8" standalone="no"?>
<svg width="45px" height="45px" viewBox="0 0 45 45" version="1.1" xmlns="http://www.w3.org/2000/svg" xmlns:xlink="http://www.w3.org/1999/xlink" xmlns:sketch="http://www.bohemiancoding.com/sketch/ns">
    <!-- Generator: Sketch 3.3.3 (12072) - http://www.bohemiancoding.com/sketch -->
    <title>wi_visible</title>
    <desc>Created with Sketch.</desc>
    <defs></defs>
    <g id="Page-2---Icons" stroke="none" stroke-width="1" fill="none" fill-rule="evenodd" sketch:type="MSPage">
        <g id="wi_visible" sketch:type="MSArtboardGroup">
            <g id="EyeOpen" sketch:type="MSLayerGroup" transform="translate(8.000000, 13.000000)">
                <path d="M0.0313218541,10.5467122 C0.0313218541,10.5467122 4.91585314,1.02766927 15.1234217,1.02766927 C25.3309902,1.02766927 29.9758533,10.5441488 29.9758533,10.5441488 C29.9758533,10.5441488 24.8015949,19.9313151 14.9838716,19.9313151 C5.16614831,19.9313151 0.0313218541,10.5467122 0.0313218541,10.5467122 Z" id="Path-1124-Copy" stroke="#363545" stroke-width="2.3" sketch:type="MSShapeGroup"></path>
                <path d="M14.9779988,15.1319173 C18.773802,15.1319173 21.8509085,11.9979106 21.8509085,8.13191732 C21.8509085,4.26592407 18.773802,1.13191732 14.9779988,1.13191732 C11.1821956,1.13191732 8.10508907,4.26592407 8.10508907,8.13191732 C8.10508907,11.9979106 11.1821956,15.1319173 14.9779988,15.1319173 Z M13.7458194,7 C15.0110871,7 16.0367893,5.95533108 16.0367893,4.66666667 C16.0367893,3.37800225 15.0110871,2.33333333 13.7458194,2.33333333 C12.4805517,2.33333333 11.4548495,3.37800225 11.4548495,4.66666667 C11.4548495,5.95533108 12.4805517,7 13.7458194,7 Z" id="Oval-28" fill="#363545" sketch:type="MSShapeGroup"></path>
            </g>
        </g>
    </g>
</svg>