<?xml version="1.0" encoding="UTF-8" standalone="no"?>
<svg width="46px" height="45px" viewBox="0 0 46 45" version="1.1" xmlns="http://www.w3.org/2000/svg" xmlns:xlink="http://www.w3.org/1999/xlink" xmlns:sketch="http://www.bohemiancoding.com/sketch/ns">
    <!-- Generator: Sketch 3.3.2 (12043) - http://www.bohemiancoding.com/sketch -->
    <title>wi_Warehouse</title>
    <desc>Created with Sketch.</desc>
    <defs></defs>
    <g id="Page-2---Icons" stroke="none" stroke-width="1" fill="none" fill-rule="evenodd" sketch:type="MSPage">
        <g id="wi_Warehouse" sketch:type="MSArtboardGroup" transform="translate(0.250000, 0.000000)">
            <g id="Group" sketch:type="MSLayerGroup" transform="translate(5.000000, 8.000000)">
                <path d="M26.9675562,18.6948806 L33.1453891,13.2159213 L25.6444664,2.36856561 L22.5549316,5.04003911 M6.8108205,11.4834987 L0.213096634,9.62953822 L4.22923947,22.8105022 L9.89028349,23.5917589 L11.4898869,23.8124782 L13.4920499,26.5468768 L26.2609105,22.1694814 L30.8812866,20.5858309 L26.9675562,18.6948806 M19.299316,2.10253909 L18.8025283,0.365020064 L4.76178411,3.92864022 L6.8108205,11.4834987" id="Stroke-6" stroke="#4A4A4A" stroke-width="2" stroke-linecap="round" sketch:type="MSShapeGroup"></path>
                <path d="M26.9675562,18.6948806 L23.8140411,13.1017 M6.8108205,11.4834987 L11.4898869,23.8124782 M11.4898869,23.8124782 L26.9675562,18.6948806 M23.1522993,19.9565981 L21.7496429,17.296179" id="Stroke-7" stroke="#4A4A4A" stroke-width="0.881999985" stroke-linecap="round" sketch:type="MSShapeGroup"></path>
                <path d="M25.720094,24.830307 L12.0834851,29.6316622 L9.89028349,23.5917589 L11.4898869,23.8124782 L13.4920499,26.5468768 L26.2609105,22.1694814 L25.720094,24.830307" id="Fill-8" fill="#4A4A4A" sketch:type="MSShapeGroup"></path>
                <path d="M25.720094,24.830307 L12.0834851,29.6316622 L9.89028349,23.5917589 L11.4898869,23.8124782 L13.4920499,26.5468768 L26.2609105,22.1694814 L25.720094,24.830307" id="Stroke-9" stroke="#4A4A4A" stroke-width="1.30774208" stroke-linecap="round" sketch:type="MSShapeGroup"></path>
                <path d="M7.03842397,11.4742503 L17.8500003,8.36770449" id="Stroke-10" stroke="#4A4A4A" stroke-width="0.881999985" stroke-linecap="round" sketch:type="MSShapeGroup"></path>
                <path d="M9.97300123,18.5440761 L8.97566171,15.9856838 L8.47817364,10.9136121 L7.80737222,5.79479514 L9.13006815,8.94136565 L9.50702467,12.1737037 L10.8825024,15.5422129 L11.1653182,18.3985559 L12.5908205,21.9759964 L12.704262,23.4433933 L11.8120921,23.7063866 L10.3968311,19.7338464" id="Fill-11" fill="#4A4A4A" sketch:type="MSShapeGroup"></path>
                <path d="M11.1653182,18.3985559 L10.8825024,15.5422129 L15.2566948,14.2268399 L15.315385,17.1071653 L11.1653182,18.3985559" id="Fill-12" fill="#4A4A4A" sketch:type="MSShapeGroup"></path>
                <path d="M15.315385,17.1071653 L15.2566948,14.2268399 L16.9106556,17.7693231 L16.8850525,20.5801401 L15.315385,17.1071653" id="Fill-14" fill="#4A4A4A" sketch:type="MSShapeGroup"></path>
                <path d="M16.8850525,20.5801401 L16.9106556,17.7693231 L21.3017855,16.3852548 L21.5814502,13.2199861 L26.0714475,11.8542095 L24.8476189,19.4285791 L12.704262,23.4433933 L12.5908205,21.9759964 L16.8850525,20.5801401" id="Fill-15" fill="#4A4A4A" sketch:type="MSShapeGroup"></path>
                <path d="M9.13006815,8.94136565 L17.9072073,6.52077046 L17.8331552,9.77993624 L9.50702467,12.1737037 L9.13006815,8.94136565" id="Fill-17" fill="#4A4A4A" sketch:type="MSShapeGroup"></path>
                <path d="M17.9072073,6.52077046 L21.5814502,13.2199861 L21.3017855,16.3852548 L17.8331552,9.77993624 L17.9072073,6.52077046" id="Fill-18" fill="#4A4A4A" sketch:type="MSShapeGroup"></path>
                <path d="M24.8476189,19.4285791 L26.0714475,11.8542095 L20.3371392,2.49213587 L7.40110426,5.77514645 L8.97566171,15.9856838 L11.8120921,23.7063866" id="Stroke-20" stroke="#4A4A4A" stroke-width="0.881999985" sketch:type="MSShapeGroup"></path>
                <path d="M9.13006815,8.94136565 L17.9072073,6.52077046 L21.5814502,13.2199861 L26.0714475,11.8542095 M11.1653182,18.3985559 L15.315385,17.1071653 M15.2566948,14.2268399 L15.315385,17.1071653 M16.9106556,17.7693231 L16.8850525,20.5801401 M15.2566948,14.2268399 L16.9106556,17.7693231 M15.315385,17.1071653 L16.8850525,20.5801401 M10.8825024,15.5422129 L15.2566948,14.2268399 M10.8825024,15.5422129 L11.1653182,18.3985559 M9.50702467,12.1737037 L10.8825024,15.5422129 M16.9106556,17.7693231 L21.3017855,16.3852548 M17.8331552,9.77993624 L21.3017855,16.3852548 M9.50702467,12.1737037 L17.8331552,9.77993624 M12.704262,23.4433933 L12.5908205,21.9759964 M11.1653182,18.3985559 L12.5908205,21.9759964 M9.13006815,8.94136565 L9.50702467,12.1737037 M7.80737222,5.79479514 L9.13006815,8.94136565 M12.5908205,21.9759964 L16.8850525,20.5801401 M17.9072073,6.52077046 L17.8331552,9.77993624 M21.5814502,13.2199861 L21.3017855,16.3852548" id="Stroke-21" stroke="#4A4A4A" stroke-width="0.881999985" stroke-linecap="round" sketch:type="MSShapeGroup"></path>
            </g>
        </g>
    </g>
</svg>